<?xml version="1.0" encoding="UTF-8"?>
<svg width="46px" height="46px" viewBox="0 0 46 46" version="1.1" xmlns="http://www.w3.org/2000/svg" xmlns:xlink="http://www.w3.org/1999/xlink">
    <!-- Generator: Sketch 48.2 (47327) - http://www.bohemiancoding.com/sketch -->
    <title>icons/negative/3d</title>
    <desc>Created with Sketch.</desc>
    <defs></defs>
    <g id="Symbols" stroke="none" stroke-width="1" fill="none" fill-rule="evenodd">
        <g id="icons/negative/3d">
            <g id="Group-2" transform="translate(8.000000, 3.000000)" stroke="#FFFFFF" stroke-width="2">
                <g id="Group">
                    <path d="M15,11.4705882 L15,28.2352941" id="Path-12" stroke-linecap="round"></path>
                    <polyline id="Path-13" stroke-linecap="round" points="0 3.52941176 15 11.4705882 30 3.52941176"></polyline>
                    <path d="M25.3635985,5.73733486 L15.2250452,0.0583691509 C15.0860155,-0.0194563836 14.9148014,-0.0194563836 14.7757716,0.0583691509 L4.63640151,5.73685935 C4.49737175,5.81468488 4.41176471,5.95860664 4.41176471,6.11441622 L4.41274494,17.7044769 C4.41274494,17.860128 4.49835198,18.0039705 4.63730006,18.0818753 L14.7750365,23.7650414 C14.8445513,23.8040334 14.9221531,23.8235294 14.9997549,23.8235294 C15.0772751,23.8235294 15.1548769,23.8040334 15.2243917,23.7651206 L25.3635985,18.0863134 C25.5026283,18.0084879 25.5882353,17.8645661 25.5882353,17.7088358 L25.5882353,6.11481248 C25.5882353,5.95908216 25.5026283,5.81516039 25.3635985,5.73733486 Z" id="Path"></path>
                </g>
            </g>
            <path d="M9.46,38.78 C9.46,36.62 10.9,35.36 12.67,35.36 C13.58,35.36 14.26,35.77 14.69,36.21 L13.88,37.12 C13.56,36.82 13.25,36.63 12.69,36.63 C11.68,36.63 10.97,37.42 10.97,38.73 C10.97,40.07 11.58,40.85 12.8,40.85 C13.07,40.85 13.34,40.78 13.5,40.65 L13.5,39.53 L12.42,39.53 L12.42,38.33 L14.8,38.33 L14.8,41.33 C14.34,41.77 13.53,42.12 12.62,42.12 C10.86,42.12 9.46,40.97 9.46,38.78 Z M16.15,42 L16.15,35.48 L17.62,35.48 L17.62,42 L16.15,42 Z M18.74,41.18 L19.58,40.17 C20.05,40.57 20.65,40.85 21.19,40.85 C21.8,40.85 22.1,40.61 22.1,40.22 C22.1,39.81 21.73,39.68 21.16,39.44 L20.31,39.08 C19.64,38.81 19,38.25 19,37.3 C19,36.22 19.96,35.36 21.32,35.36 C22.07,35.36 22.86,35.66 23.42,36.22 L22.67,37.15 C22.24,36.82 21.84,36.63 21.32,36.63 C20.81,36.63 20.49,36.85 20.49,37.22 C20.49,37.62 20.92,37.76 21.48,37.99 L22.32,38.33 C23.11,38.65 23.61,39.18 23.61,40.1 C23.61,41.18 22.71,42.12 21.15,42.12 C20.3,42.12 19.4,41.8 18.74,41.18 Z M26.25,41.22 L26.93,40.29 C27.31,40.66 27.78,40.93 28.32,40.93 C28.94,40.93 29.35,40.66 29.35,40.18 C29.35,39.62 29.02,39.27 27.64,39.27 L27.64,38.23 C28.78,38.23 29.14,37.89 29.14,37.38 C29.14,36.94 28.86,36.68 28.36,36.68 C27.91,36.68 27.57,36.89 27.17,37.24 L26.43,36.34 C27.01,35.84 27.65,35.53 28.43,35.53 C29.74,35.53 30.62,36.16 30.62,37.27 C30.62,37.93 30.24,38.39 29.56,38.68 L29.56,38.72 C30.29,38.93 30.82,39.45 30.82,40.27 C30.82,41.45 29.74,42.12 28.46,42.12 C27.43,42.12 26.71,41.76 26.25,41.22 Z M32.08,42 L32.08,35.48 L33.92,35.48 C35.91,35.48 37.19,36.47 37.19,38.71 C37.19,40.95 35.91,42 34,42 L32.08,42 Z M33.55,40.81 L33.83,40.81 C34.94,40.81 35.68,40.27 35.68,38.71 C35.68,37.15 34.94,36.67 33.83,36.67 L33.55,36.67 L33.55,40.81 Z" id="GIS-3D" fill="#FFFFFF"></path>
        </g>
    </g>
</svg>