<?xml version="1.0" encoding="UTF-8"?>
<svg width="20px" height="20px" viewBox="0 0 20 20" version="1.1" xmlns="http://www.w3.org/2000/svg" xmlns:xlink="http://www.w3.org/1999/xlink">
    <!-- Generator: Sketch 48.2 (47327) - http://www.bohemiancoding.com/sketch -->
    <title>icons/accent/basemap</title>
    <desc>Created with Sketch.</desc>
    <defs></defs>
    <g id="Symbols" stroke="none" stroke-width="1" fill="none" fill-rule="evenodd">
        <g id="icons/accent/basemap" fill="#64B6D9">
            <path d="M10.9656471,2.16932201 C10.9647059,2.16932201 10.9647059,2.17025235 10.9637647,2.17025235 C10.9703529,2.17025235 10.9769412,2.16932201 10.9844706,2.16932201 L10.9656471,2.16932201 Z M11.0607059,2.13117804 C11.0343529,2.14420281 11.008,2.15257588 10.9816471,2.16001861 C11.0089412,2.14420281 11.0352941,2.13117804 11.0607059,2.13117804 Z M9.90776471,18 C8.18917647,18 6.59576471,17.4697058 5.28564706,16.5672753 C5.28376471,16.5644842 5.28282353,16.5626236 5.28376471,16.5607629 C5.28470588,16.5589022 5.29035294,16.5570415 5.29694118,16.5579719 C5.30258824,16.5589022 5.30917647,16.5589022 5.31105882,16.5570415 C5.312,16.5551808 5.30164706,16.5449471 5.28847059,16.5356437 C5.27435294,16.5254099 5.24988235,16.5114548 5.23482353,16.5030818 C5.21882353,16.495639 5.19905882,16.487266 5.19058824,16.4844749 C5.18494118,16.4826143 5.16329412,16.4742412 5.13694118,16.4630771 C4.70682353,16.1523433 4.30870588,15.8006745 3.94917647,15.4136528 C3.94447059,15.4052797 3.93788235,15.3969066 3.93129412,15.3876032 C3.91623529,15.3680661 3.89082353,15.3438772 3.87576471,15.3327131 C3.87482353,15.3317828 3.87388235,15.3308524 3.872,15.3299221 C3.82870588,15.2815444 3.78541176,15.2331666 3.74305882,15.1838586 C3.76376471,15.1801372 3.77411765,15.1643214 3.76564706,15.1457146 C3.75435294,15.1215258 3.71952941,15.0712874 3.68847059,15.0340737 C3.72423529,15.021049 3.80423529,15.0201186 3.84470588,14.944761 C3.88517647,14.7158972 3.76470588,14.5642517 3.68470588,14.3744621 C3.72517647,14.3744621 3.76564706,14.4126061 3.80517647,14.4498197 C3.87576471,14.3363182 3.91152941,14.2200256 3.92658824,14.100942 C3.93317647,14.0423305 3.936,13.9827887 3.93411765,13.9223165 C3.92752941,13.5752995 3.64611765,13.2720084 3.72705882,12.967787 C3.84941176,12.5109896 4.09129412,12.0923363 4.18164706,11.6141412 C4.20235294,11.5694848 4.22776471,11.5266891 4.25223529,11.4838935 C4.30023529,11.3973718 4.34729412,11.3099198 4.36047059,11.212234 C4.37647059,11.1517618 4.384,11.0475637 4.37741176,10.9805791 C4.36988235,10.9135946 4.35576471,10.8345156 4.34541176,10.8056751 C4.33411765,10.7759042 4.31152941,10.7321782 4.29458824,10.7079893 C4.27764706,10.6847308 4.16847059,10.6037911 4.05270588,10.5284335 C3.93694118,10.4540063 3.84188235,10.3926038 3.84094118,10.3926038 C3.84,10.3916735 3.83905882,10.3898128 3.83811765,10.3870217 C3.83811765,10.3851611 3.83247059,10.376788 3.82682353,10.3693453 C3.82117647,10.3619025 3.81364706,10.3488778 3.80988235,10.3405047 C3.80611765,10.3321316 3.79952941,10.3246889 3.79482353,10.3237586 C3.79105882,10.3237586 3.78447059,10.3237586 3.77976471,10.3237586 C3.77505882,10.3246889 3.76847059,10.3228282 3.76282353,10.3209676 C3.75811765,10.3181765 3.75058824,10.3135248 3.74588235,10.3098035 C3.74211765,10.3060821 3.72423529,10.3005001 3.70823529,10.297709 C3.69129412,10.2939877 3.67247059,10.2874753 3.66588235,10.2818932 C3.65929412,10.2763112 3.65082353,10.2707292 3.64611765,10.2707292 C3.64235294,10.2707292 3.63576471,10.2707292 3.632,10.2725898 C3.62729412,10.2735202 3.56894118,10.2725898 3.50211765,10.2716595 C3.43435294,10.2697988 3.37411765,10.2716595 3.36752941,10.2753809 C3.36188235,10.2800326 3.35529412,10.297709 3.35341176,10.3153855 C3.35247059,10.333062 3.34588235,10.3516688 3.33929412,10.3553902 C3.33270588,10.3591115 3.32141176,10.3628329 3.31388235,10.3628329 C3.30635294,10.3628329 3.29788235,10.3572508 3.29411765,10.3498081 C3.32988235,10.1553669 3.16894118,9.92743342 2.96752941,10.0037214 C2.96752941,10.0037214 2.96752941,10.0800093 2.96752941,10.1181533 C2.80658824,10.0800093 3.008,9.92743342 2.88752941,9.89021979 C2.72658824,9.85207582 2.80658824,10.0418653 2.68517647,10.0800093 C2.84705882,9.73764391 2.80752941,9.43342249 2.60705882,9.13013141 C2.48658824,8.86405396 2.16470588,8.75055239 2.15717647,8.39888359 C2.144,8.35887894 2.12517647,8.31794395 2.11576471,8.30864054 C2.10541176,8.30026747 2.08094118,8.30957088 2.06023529,8.33003838 C2.03858824,8.35050587 2.01694118,8.36725201 2.01129412,8.36725201 C2.00470588,8.36632167 2,8.35515758 2,8.34213281 C2,8.3281777 2.00752941,8.27607861 2.016,8.22677055 C2.01788235,8.21560647 2.01976471,8.20444238 2.02070588,8.19420863 C2.84988235,4.64495872 6.06588235,2 9.90682353,2 C10.3312941,2 10.7482353,2.03256193 11.1548235,2.09489476 C11.0804706,2.11350157 11.0098824,2.13769043 10.9458824,2.16932201 C10.912,2.17769508 10.8781176,2.18606815 10.8442353,2.2009536 C10.8282353,2.20467496 10.8112941,2.20746598 10.7915294,2.20746598 C10.8592941,2.22979416 10.9138824,2.19909292 10.9637647,2.17025235 C10.9505882,2.17211304 10.9392941,2.17397372 10.928,2.17676474 C10.9364706,2.17490406 10.9449412,2.1711827 10.9534118,2.16932201 L10.9656471,2.16932201 C10.9694118,2.16746133 10.9722353,2.16560065 10.976,2.16373997 C10.9769412,2.16280963 10.9788235,2.16280963 10.9807059,2.16187929 C11.0324706,2.1507152 11.0851765,2.14048145 11.1378824,2.13117804 C11.1774118,2.13117804 11.216,2.14141179 11.2498824,2.14048145 C11.2188235,2.15722758 11.1877647,2.17304338 11.1567059,2.18792883 C11.0992941,2.20746598 11.0607059,2.24560995 10.9844706,2.28375392 L11.0992941,2.28375392 C11.0607059,2.32096755 11.0607059,2.32096755 11.0230588,2.35911152 L11.0607059,2.35911152 C10.9458824,2.39725549 10.8687059,2.39725549 10.7529412,2.39725549 C10.7915294,2.32096755 10.9072941,2.39725549 10.9844706,2.32096755 C10.6381176,2.32096755 10.3303529,2.39725549 9.98870588,2.48656821 C9.93788235,2.50424468 9.88705882,2.52378184 9.83811765,2.54611001 C9.77788235,2.57215955 9.71952941,2.60006978 9.66211765,2.63170136 C9.52282353,2.70147692 9.29223529,2.81590883 9.36847059,2.89126643 C9.44564706,2.96755437 9.52282353,2.98709152 9.6,3.01500174 C9.63858824,3.02895686 9.67623529,3.04570299 9.71482353,3.07361321 C9.75341176,3.12013025 9.792,3.15734388 9.83058824,3.19548785 C10.0611765,3.23363182 10.2531765,2.96755437 10.0611765,2.77776486 C10.1185882,2.73962089 10.1665882,2.6828701 10.2202353,2.62984068 C10.2729412,2.5777416 10.3303529,2.53029422 10.4075294,2.51168741 C10.2917647,2.54983138 10.2917647,2.70147692 10.3303529,2.73962089 C10.4075294,2.79637167 10.4941176,2.7582277 10.5854118,2.71543203 C10.6767059,2.67263635 10.7727059,2.62518898 10.8687059,2.66333295 C10.8395294,2.69217351 10.7896471,2.71078032 10.7331765,2.72752646 C10.6767059,2.74427259 10.6136471,2.7582277 10.5609412,2.77776486 C10.4461176,2.77776486 10.4075294,2.9294104 10.4837647,3.00569834 C10.4461176,2.96755437 10.3689412,2.96755437 10.3303529,2.96755437 C10.2917647,3.34806373 9.83058824,3.3862077 9.56141176,3.23363182 C9.6,3.23363182 9.67623529,3.27177579 9.71482353,3.19548785 C9.71482353,3.12013025 9.67623529,3.12013025 9.6,3.15734388 L9.6,3.04384231 C9.44564706,3.00569834 9.44564706,3.19548785 9.44564706,3.30991976 C9.40705882,3.30991976 9.33082353,3.27177579 9.29223529,3.27177579 C8.97129412,3.49319688 8.67764706,3.60948948 8.34352941,3.73043377 C8.27670588,3.75462263 8.20894118,3.77881149 8.13835294,3.80207001 C8.33035294,3.88021863 8.33035294,4.22165368 8.13835294,4.18444005 C7.63858824,4.03186417 7.06164706,3.9183626 6.98447059,4.5258751 C6.98447059,4.60216304 6.86964706,4.71659495 6.94588235,4.79195255 C7.25364706,5.02081637 7.67717647,5.02081637 8.02258824,4.86824049 C8.13835294,4.83009652 8.21552941,4.64030701 8.35294118,4.60309338 C8.41129412,4.57797418 8.47058824,4.55285498 8.52329412,4.51750204 C8.57505882,4.48121875 8.62117647,4.43470171 8.65411765,4.36678684 C8.72,4.31189673 8.79435294,4.28398651 8.87341176,4.26724038 C8.95341176,4.25049424 9.03811765,4.2449122 9.12658824,4.23839981 C9.18588235,4.23374811 9.24705882,4.22723573 9.30917647,4.21700198 C9.56141176,4.4505175 9.984,4.73334109 10.1374118,5.07570648 C10.176,4.96127457 10.2861176,4.806838 10.4395294,4.95848354 C10.2861176,4.69240609 9.71482353,4.4505175 9.67623529,4.07000814 C10.0611765,4.33608559 10.4461176,4.5258751 10.7152941,4.9826724 C10.7529412,5.02081637 10.8687059,5.05803 10.9458824,5.02081637 C11.0607059,4.94452843 11.0324706,4.88777765 10.9938824,4.83009652 C10.9552941,4.77334574 10.9072941,4.71659495 10.9844706,4.64030701 C11.0230588,4.56401907 11.0512941,4.58355623 11.0832941,4.63193395 C11.3298824,5.17246191 12.0611765,4.90638446 12.3303529,5.13431794 C12.7143529,5.43853937 12.0997647,5.81904873 11.6376471,5.74276079 C11.3684706,5.66647285 11.1378824,5.62832888 10.9232941,5.54831957 C10.8762353,5.5352948 10.8291765,5.52320037 10.7858824,5.51110594 C10.7322353,5.50738458 10.6625882,5.51575765 10.6315294,5.52971276 C10.5995294,5.54459821 10.5656471,5.58367252 10.5552941,5.61716479 C10.5449412,5.64972671 10.5364706,5.69438307 10.5374118,5.71671125 C10.5383529,5.73903942 10.5157647,5.77067101 10.4884706,5.78834748 C10.4602353,5.80602396 10.3868235,5.79392953 10.3237647,5.7613676 C10.2616471,5.72973602 10.1957647,5.69996511 10.1778824,5.69531341 C10.16,5.6906617 10.0847059,5.65530876 10.0094118,5.61623445 C9.97176471,5.59669729 9.92,5.57622979 9.86729412,5.55855332 C9.6,5.55297128 9.29223529,5.36225142 9.44564706,5.05803 C9.19623529,4.96313525 8.92705882,4.94452843 8.66258824,4.9780207 C8.59576471,4.98639377 8.52988235,4.99755786 8.46494118,5.01151297 C8.09976471,5.13431794 7.75341176,5.13431794 7.36941176,5.13431794 C7.10023529,5.13431794 6.90729412,5.43853937 6.78494118,5.6813583 C6.75670588,5.72415397 6.72470588,5.76415862 6.69176471,5.80230259 C6.55811765,5.95673916 6.39717647,6.08047447 6.22117647,6.14745901 C6.14776471,6.1837423 6.08094118,6.22467729 6.01882353,6.26933364 C5.52376471,6.63030585 5.37223529,7.26107687 5.22917647,7.8602163 C5.21505882,7.88161414 5.19717647,7.91510641 5.18870588,7.9355739 C5.18023529,7.95697174 5.17741176,8.0062798 5.18211765,8.04535411 C5.18682353,8.08535876 5.18494118,8.1523433 5.17741176,8.19327829 C5.16988235,8.23514362 5.16329412,8.28631236 5.16235294,8.30584952 C5.16235294,8.32631701 5.16988235,8.35236655 5.18117647,8.36353064 C5.19152941,8.37562507 5.21411765,8.38585882 5.23011765,8.38678916 C5.28376471,8.43888824 5.32705882,8.49656937 5.36376471,8.55704152 C5.39952941,8.61751366 5.42964706,8.68077683 5.45788235,8.74404 C5.75435294,9.73392255 6.86964706,9.65856495 7.65647059,9.34876148 C7.72047059,9.33573671 7.78447059,9.3217816 7.84658824,9.30875683 C7.90776471,9.29573206 7.96705882,9.28363763 8.02258824,9.27247354 C8.15811765,9.29015002 8.27294118,9.3171299 8.27670588,9.33294569 C8.28047059,9.34969182 8.28988235,9.37015932 8.29647059,9.37946273 C8.304,9.38969648 8.31717647,9.40365159 8.32564706,9.41202465 C8.33505882,9.41946738 8.34729412,9.43435283 8.35388235,9.44458658 C8.36047059,9.45482033 8.36894118,9.4724968 8.37364706,9.48366089 C8.37835294,9.49482498 8.39811765,9.51622282 8.41882353,9.53017793 C8.43952941,9.54506338 8.54023529,9.55529713 8.64282353,9.55343645 C8.79247059,9.54413304 8.86870588,9.62042098 8.94588235,9.73392255 C9.09929412,10.0762879 8.83011765,10.4567973 9.15858824,10.7107803 C9.17364706,10.7256658 9.20658824,10.7675311 9.24611765,10.8242819 C9.28658824,10.881963 9.33458824,10.9535993 9.37976471,11.0261658 C9.47105882,11.171299 9.55952941,11.384347 9.57552941,11.5006396 C9.59152941,11.6160019 9.62352941,11.7415979 9.64611765,11.7788115 C9.66870588,11.8160251 9.67623529,11.9081289 9.66305882,11.9834865 C9.65647059,12.0216304 9.64141176,12.0709385 9.62258824,12.1193162 C9.44564706,12.3574834 9.33082353,12.6617048 9.36847059,12.9277823 C9.52282353,13.3836493 9.83058824,13.8013723 9.92470588,14.2786371 L9.92470588,14.3298058 C9.93882353,14.3707408 9.96329412,14.4153971 9.97929412,14.4293523 C9.99623529,14.4433074 10.0150588,14.4619142 10.0216471,14.4702872 C10.0272941,14.4786603 10.0395294,14.4907547 10.0470588,14.4981975 C10.0555294,14.5047098 10.0649412,14.5112222 10.0687059,14.5130829 C10.0715294,14.5149436 10.096,14.5577393 10.1204706,14.6079777 C10.1458824,14.6582161 10.1929412,14.731713 10.2258824,14.7717176 C10.2588235,14.810792 10.2964706,14.8861496 10.3105882,14.9382486 C10.3247059,14.9903477 10.3284706,15.0424468 10.32,15.0545412 C10.3124706,15.0666357 10.3030588,15.0880335 10.3002353,15.1029189 C10.2974118,15.1178044 10.3002353,15.1447843 10.3068235,15.1624608 C10.3124706,15.1810676 10.3407059,15.2229329 10.3698824,15.2545645 C10.3981176,15.2871264 10.4367059,15.3252704 10.4555294,15.3382952 C10.4743529,15.3522503 10.5345882,15.3662054 10.5891765,15.3680661 C10.6437647,15.3708571 10.704,15.3680661 10.7237647,15.3634144 C10.7435294,15.3578323 10.7727059,15.3420165 10.7887059,15.3271311 C10.8047059,15.313176 10.8291765,15.2861961 10.8442353,15.2666589 C10.8592941,15.2480521 11.0418824,15.2266543 11.2508235,15.2192115 C11.4381176,15.1298988 11.6875294,15.0108152 11.8748235,14.9215025 C11.9802353,14.8145133 12.0818824,14.6944994 12.1007059,14.6535644 C12.1204706,14.6135597 12.1901176,14.5419235 12.2569412,14.4954064 C12.3228235,14.4479591 12.3877647,14.352134 12.4009412,14.2804977 C12.4131765,14.2097918 12.4451765,14.1288522 12.4715294,14.1000116 C12.5609412,13.9920921 12.7529412,13.9920921 12.7529412,13.8776602 C12.8301176,13.4599372 12.9835294,13.1175718 13.2668235,12.7621816 C13.3035294,12.7026398 13.3383529,12.6421677 13.3703529,12.5807652 C13.568,12.214211 13.6950588,11.8160251 13.6658824,11.4038842 C13.6498824,11.3573671 13.6348235,11.3117804 13.6225882,11.2671241 C13.4004706,10.458658 14.0696471,9.96278637 14.8451765,9.62972439 C14.8649412,9.58134667 14.8847059,9.53110827 14.9054118,9.47900919 C14.9656471,9.3217816 15.0287059,9.14780788 15.088,8.98127689 C15.1077647,8.92545645 15.1265882,8.87056634 15.1454118,8.81846726 C15.2527059,8.70775672 15.2141176,8.55611118 15.2141176,8.44167927 C14.9835294,8.55611118 14.7529412,8.51796721 14.5317647,8.55983254 C14.48,8.56448424 14.4301176,8.56820561 14.384,8.57192697 C14.3463529,8.56262356 14.3011765,8.54587743 14.2851765,8.53657402 C14.2691765,8.52727061 14.1571765,8.46493778 14.0414118,8.4128387 C13.936,8.36539132 13.9152941,8.30957088 13.8390588,8.26119316 C13.8014118,8.2370043 13.7392941,8.08908013 13.6950588,8.0518665 C13.6508235,8.01465287 13.5802353,7.91324573 13.5510588,7.8806838 C13.4117647,7.69275497 13.2912941,7.529015 13.1764706,7.30108152 C13.0221176,7.07314804 12.8301176,6.84521456 12.6992941,6.57448541 C12.6616471,6.52517735 12.624,6.47679963 12.5844706,6.42935225 C12.5458824,6.38190487 12.5054118,6.33538784 12.464,6.28980114 C12.3689412,6.19862775 12.3303529,6.16048378 12.2616471,6.08233516 C12.2343529,6.06000698 12.2456471,6.02651471 12.2861176,6.00883824 C12.5223529,5.89440633 12.4451765,6.23677172 12.6362353,6.2181649 C12.6804706,6.26096058 12.7228235,6.30468659 12.7642353,6.34934295 C12.8065882,6.39306896 12.848,6.43772532 12.8884706,6.48331201 C12.9421176,6.5447145 12.9948235,6.60611699 13.0475294,6.66938016 C13.2527059,6.9215025 13.4456471,7.18757995 13.6470588,7.44993604 C13.6715294,7.47691592 13.7035294,7.5243633 13.7355294,7.58018374 C13.7675294,7.63600419 13.7995294,7.69926736 13.8230588,7.75601814 C13.9454118,8.44167927 14.7143529,8.09931387 15.1378824,7.94766833 C15.3684706,7.83323642 15.6376471,7.71973485 15.6762353,7.4536574 C15.7910588,6.9215025 15.3684706,6.61728108 15.0221176,6.31305966 C14.9835294,6.61728108 14.6371765,6.61728108 14.5261176,6.3893476 C14.4931765,6.35120363 14.464,6.31305966 14.4451765,6.27491569 C14.4451765,6.31305966 14.4065882,6.35120363 14.4065882,6.3893476 C14.3294118,6.19862775 14.176,6.00883824 14.0602353,5.8571927 C14.2531765,5.8571927 14.4065882,5.97069427 14.6155294,6.06093732 C14.6785882,6.08884754 14.7425882,6.11675776 14.8065882,6.14466798 C15.1887059,6.31305966 15.5755294,6.47214792 16.0602353,6.42656123 C16.1562353,6.40795441 16.2145882,6.48424235 16.2475294,6.59309222 C16.2644706,6.64798232 16.2757647,6.71124549 16.2823529,6.77450866 C16.2889412,6.83777183 16.2917647,6.90196534 16.2927059,6.95778579 C16.336,6.89824398 16.3755294,6.83591115 16.4094118,6.77171764 C16.4432941,6.70752413 16.4724706,6.6405396 16.496,6.57262472 C16.6296471,6.19118502 16.6098824,5.7613676 16.4978824,5.35666938 C17.4437647,6.6656588 18,8.26863589 18,10 C18,14.4181882 14.3764706,18 9.90776471,18 Z M11.0070588,2.16932201 C11.0672941,2.16932201 11.1068235,2.16932201 11.1312941,2.16932201 C11.0955294,2.16932201 11.0390588,2.16932201 11.0070588,2.16932201 Z M15.1482353,11.9993022 L15.0861176,11.8653332 L14.9515294,11.8523084 L14.8649412,11.9071985 L14.8225882,11.9927899 L14.4677647,12.4365624 L14.0903529,12.6449587 L14.032,12.7119432 L13.9887059,12.7891615 L13.968,12.8645191 L13.9915294,13.3548087 L13.8098824,13.8097453 L13.7929412,13.8878939 L13.7797647,14.0497732 L13.792,14.1176881 L13.9331765,14.2767764 L14.1430588,14.3102686 L14.3595294,14.1549017 L14.4762353,13.7967205 L14.9402353,12.844982 L15.0767059,12.2560763 L15.1105882,12.1872311 L15.1350588,12.1155948 L15.1407059,12.1239679 C15.1454118,12.0830329 15.1501176,12.0420979 15.1548235,12.0011629 L15.1472941,12.0234911 L15.1482353,11.9993022 Z M16.8376471,9.56739156 L16.9204706,9.50691941 L16.9543529,9.35434353 C16.9552941,9.31526922 16.9543529,9.27619491 16.9543529,9.2371206 L16.9665882,9.1868822 L17.0051765,9.08268403 L17.0202353,9.01662984 L17.0343529,8.88173043 L17.0776471,8.80265147 L17.1105882,8.71706012 L17.0936471,8.64449355 L17.0192941,8.52261891 L16.9835294,8.44167927 L17.0042353,8.29747645 L17.0503529,8.17095011 L17.0221176,8.06861263 L16.8338824,7.91789743 L16.7708235,7.98953367 L16.752,8.20537272 L16.7416471,8.2277009 C16.7868235,8.66682172 16.8056471,9.10873357 16.7971765,9.55064542 L16.8376471,9.56739156 Z M17.2197647,7.08896383 L17.2734118,7.32061868 L17.2950588,7.34666822 L17.3072941,7.32899174 L17.2969412,7.27503198 L17.28,7.21455983 L17.2677647,7.15594837 L17.2696471,7.10943133 L17.2658824,7.07779974 L17.2574118,7.04430748 L17.2291765,6.9968601 L17.2047059,6.98383533 L17.1830588,6.98290499 L17.1745882,7.01639726 L17.1952941,7.05640191 L17.2197647,7.08896383 Z M17.1077647,7.07873008 L17.0898824,7.10570997 L17.0898824,7.13734155 L17.1096471,7.23874869 L17.1350588,7.25363414 L17.1576471,7.24153971 L17.1708235,7.23595767 L17.1764706,7.21362949 L17.1698824,7.17827654 L17.1614118,7.14199326 L17.1369412,7.09361554 L17.1077647,7.07873008 Z M16.8498824,6.6656588 L16.9054118,6.80893127 L16.9148235,6.94290034 L16.9392941,7.02477032 L16.9778824,7.08338179 L17.0004706,7.07314804 L16.9929412,6.94103966 L17.0023529,6.88428887 L17.0616471,6.89266194 L17.1265882,6.93824863 L17.1501176,6.86475172 L17.1030588,6.74938946 L17.0324706,6.75125015 L16.9496471,6.68798698 L16.8950588,6.53262007 L16.8630588,6.33538784 L16.7952941,6.19211536 L16.7134118,6.10187231 L16.6861176,6.09629027 L16.6757647,6.12792185 L16.6936471,6.19397604 L16.7152941,6.26189092 L16.7407059,6.3939993 L16.7774118,6.52889871 L16.8498824,6.6656588 Z M17.8917647,9.09384812 L17.8785882,9.10594255 L17.8644706,9.20455867 L17.8503529,9.32457262 L17.8334118,9.37760205 L17.8183529,9.33294569 L17.8136471,9.2120014 L17.8192941,9.07431097 L17.8211765,9.07431097 L17.8061176,8.97383417 L17.7816471,8.92173509 L17.7694118,8.92452611 L17.7430588,8.95894871 L17.6856471,8.95243633 L17.6705882,8.96360042 L17.664,9.01383882 L17.6696471,9.0659379 L17.6922353,9.17850913 L17.6969412,9.18502151 L17.7007059,9.19525526 L17.7054118,9.20269799 L17.7148235,9.21014071 L17.7185882,9.21944412 L17.7223529,9.24084196 L17.7270588,9.25758809 L17.7694118,9.25665775 L17.776,9.26782184 L17.7703529,9.30968717 L17.7618824,9.34131876 L17.7449412,9.34410978 L17.7383529,9.35899523 L17.7383529,9.41388534 L17.7392941,9.43156181 L17.7421176,9.44830794 L17.7421176,9.46877544 L17.7402353,9.54227236 L17.7411765,9.57483428 L17.7477647,9.58041633 L17.7552941,9.56553088 L17.7637647,9.49482498 L17.7712941,9.47156646 L17.7788235,9.45947203 L17.7863529,9.45761135 L17.7938824,9.4678451 L17.7967059,9.50226771 L17.7976471,9.55901849 L17.7976471,9.58134667 L17.8334118,9.5934411 L17.8381176,9.623212 L17.8409412,9.62693336 L17.8428235,9.64088848 L17.8437647,9.6529829 L17.8447059,9.66042563 L17.8484706,9.65949529 L17.8484706,9.68368415 L17.8494118,9.69949994 L17.8362353,9.85114548 L17.8287059,9.94883126 L17.8230588,10 L17.8192941,10.0251192 L17.8164706,10.0493081 L17.8174118,10.0576811 L17.8155294,10.0781486 L17.8042353,10.0911734 L17.7967059,10.1060588 L17.7882353,10.1516455 L17.7778824,10.2409583 L17.7797647,10.2781719 L17.7854118,10.2697988 L17.7938824,10.2260728 L17.8004706,10.2009536 L17.8023529,10.2037446 L17.8023529,10.2297942 L17.7882353,10.3237586 L17.7825882,10.3619025 L17.7816471,10.3758577 L17.7835294,10.3628329 C17.8512941,10 17.8927059,9.63344575 17.9087059,9.26596116 L17.8917647,9.09384812 Z M17.4409412,10.2884056 L17.3487059,10.3907431 L17.3016471,10.46424 L17.28,10.5796023 L17.3072941,10.6437958 L17.3534118,10.6112339 L17.4418824,10.4651704 L17.6188235,10.2437493 L17.5237647,10.2428189 L17.4409412,10.2884056 Z M17.584,8.45563438 L17.5670588,8.38864984 L17.552,8.42121177 L17.5472941,8.51703686 L17.5463529,8.61937435 L17.5567059,8.80823352 L17.5557647,8.90405861 L17.5614118,8.995232 L17.5727059,9.01849052 L17.584,9.0110478 L17.5877647,8.96732178 L17.5858824,8.91894406 L17.584,8.82777067 L17.6028235,8.77474125 L17.6254118,8.74497035 L17.6338824,8.66961275 L17.5962353,8.55425049 L17.584,8.45563438 Z M17.1312941,10.0707059 L16.9609412,10.0753576 L16.8771765,10.0641935 L16.8178824,10.1321084 L16.8790588,10.2223514 L17.0089412,10.2381672 L17.0503529,10.2204908 L17.1265882,10.1190836 C17.1284706,10.1032678 17.1294118,10.0865217 17.1312941,10.0707059 Z M17.3929412,10.1702524 L17.3505882,10.172113 L17.2207059,10.2428189 L17.1331765,10.2242121 L17.0917647,10.2688685 L17.0757647,10.3544598 L17.1096471,10.3953948 L17.2470588,10.3581812 L17.4061176,10.2186301 L17.3929412,10.1702524 Z M17.2978824,8.92917781 L17.3590588,8.94406326 L17.4145882,8.92452611 L17.4484706,8.85940226 L17.4738824,8.77195023 L17.456,8.74776137 C17.3835294,8.77195023 17.2856471,8.79986045 17.2131765,8.82218863 L17.1642353,8.89196418 L17.1463529,9.00360507 L17.1472941,9.12827073 L17.1294118,9.26317014 L17.0992941,9.38876614 L17.0936471,9.50133736 L17.1143529,9.60739621 L17.1218824,9.73113153 L17.1152941,9.85765787 L17.1284706,9.94697058 L17.1698824,9.95069194 L17.1952941,9.83439935 L17.1830588,9.59995348 L17.2065882,9.53296895 L17.2338824,9.60274451 L17.2508235,9.6939179 L17.2988235,9.74322596 L17.3468235,9.68833585 L17.3487059,9.55157576 L17.2978824,9.3971392 L17.296,9.3469008 L17.3148235,9.2920107 L17.3712941,9.17943947 L17.3665882,9.1115246 L17.3138824,9.14501686 L17.2611765,9.20269799 L17.2150588,9.16827538 L17.2,9.05105245 L17.2357647,8.94220258 L17.2978824,8.92917781 Z M17.3345882,7.57646238 L17.2470588,7.54762182 L17.2112941,7.6043726 L17.2094118,7.7253169 L17.2141176,7.76904291 L17.232,7.780207 L17.2724706,7.74950576 L17.3138824,7.73834167 L17.3345882,7.77183393 L17.3703529,7.8853355 L17.4418824,8.01651355 L17.4795294,8.02116525 L17.44,7.81183859 L17.4569412,7.81183859 L17.4776471,7.83230608 L17.4908235,7.82486336 L17.4898824,7.77741598 L17.4654118,7.6592627 L17.392,7.42295616 L17.3543529,7.39690662 L17.3581176,7.46482149 L17.3656471,7.53831841 L17.3552941,7.57274102 L17.3345882,7.57646238 Z M8.40752941,3.12013025 C8.41694118,3.11082684 8.42635294,3.09966275 8.43482353,3.08663798 C8.42447059,3.09408071 8.41505882,3.10431446 8.40752941,3.12013025 Z M8.48470588,2.96755437 C8.48470588,2.99639493 8.46211765,3.04756367 8.43482353,3.08663798 C8.47435294,3.05872776 8.52329412,3.089429 8.52329412,3.12013025 C8.52329412,3.27177579 8.29176471,3.15734388 8.29176471,3.30991976 C8.33035294,3.30991976 8.36894118,3.30991976 8.33035294,3.34806373 C8.29176471,3.3862077 8.21552941,3.3862077 8.17694118,3.42342133 L8.33035294,3.42342133 C8.31152941,3.48110245 8.24376471,3.49040586 8.18635294,3.50901268 C8.12894118,3.52854983 8.08094118,3.55646005 8.09976471,3.65042447 C8.14776471,3.61414118 8.20047059,3.58995232 8.256,3.57413653 C8.42164706,3.52575881 8.60894118,3.54715665 8.75388235,3.4615653 C8.71529412,3.4615653 8.71529412,3.42342133 8.67670588,3.42342133 C8.75388235,3.3862077 8.83011765,3.34806373 8.79247059,3.23363182 C8.75388235,3.23363182 8.75388235,3.27177579 8.71529412,3.27177579 C8.79247059,3.12013025 8.63811765,2.9294104 8.79058824,2.82986394 L8.82258824,2.78055588 C8.79247059,2.77776486 8.71529412,2.77776486 8.67670588,2.77776486 C8.71529412,2.73962089 8.75388235,2.73962089 8.79247059,2.70147692 C8.59952941,2.70147692 8.52329412,2.89126643 8.36894118,2.96755437 C8.40752941,3.04384231 8.48470588,2.9294104 8.48470588,2.96755437 Z M9.312,4.49331318 C9.11435294,4.3956274 9.11435294,4.59099895 9.09082353,4.75566926 L9.15294118,4.81986277 C9.312,4.78544017 9.41082353,4.59099895 9.312,4.49331318 Z M8.36894118,3.08198628 C8.29176471,3.19548785 8.29176471,3.00569834 8.21741176,3.05779742 L8.18541176,3.07268287 C8.06117647,3.23363182 7.75341176,3.27177579 7.792,3.53785324 C8.06117647,3.49970927 8.21552941,3.30991976 8.36894118,3.08198628 Z M11.1030588,5.25061054 L11.2423529,5.24781951 C11.2150588,5.13431794 10.9458824,5.05803 10.9458824,5.21060588 C10.9072941,5.24874985 11.0230588,5.24874985 11.1030588,5.25061054 Z M11.9312941,5.33248052 L11.968,5.33806257 C12.0611765,5.28689382 12.176,5.40039539 12.2145882,5.24874985 C12.0997647,5.24874985 12.0225882,5.21060588 11.9068235,5.24874985 C11.9068235,5.24874985 11.9068235,5.32410745 11.9312941,5.33248052 Z M9.71952941,4.99290615 L9.74305882,5.03105012 L9.78917647,5.04500523 L9.83058824,5.04593557 C9.92752941,4.78916153 9.70164706,4.78916153 9.52188235,4.75752995 L9.43058824,4.77613676 L9.44658824,4.84405163 L9.71952941,4.99290615 Z" id="Fill-1"></path>
        </g>
    </g>
</svg>