<?xml version="1.0" encoding="utf-8"?>
<!-- Generator: Adobe Illustrator 16.0.0, SVG Export Plug-In . SVG Version: 6.00 Build 0)  -->
<!DOCTYPE svg PUBLIC "-//W3C//DTD SVG 1.1//EN" "http://www.w3.org/Graphics/SVG/1.1/DTD/svg11.dtd">
<svg version="1.1" id="Layer_1" xmlns="http://www.w3.org/2000/svg" xmlns:xlink="http://www.w3.org/1999/xlink" x="0px" y="0px"
	 width="128px" height="30px" viewBox="0 0 128 30" enable-background="new 0 0 128 30" xml:space="preserve">
<g>
	<path fill="#FFFFFF" d="M52.646,15.589h-7.441v7.925c0,0.268-0.218,0.486-0.485,0.486h-1.236c-0.265,0-0.483-0.223-0.483-0.486
		V10.332c0-3.226,1.769-4.51,5.162-4.51c1.43,0,3.708,0.049,4.725,0.146c0.147,0.024,0.244,0.194,0.244,0.339V7.52
		c0,0.17-0.097,0.29-0.267,0.29h-4.678c-2.568,0-2.982,0.678-2.982,2.522v3.367h7.441c0.267,0,0.486,0.22,0.486,0.484v0.922
		C53.131,15.372,52.913,15.589,52.646,15.589"/>
	<path fill="#FFFFFF" d="M58.769,24.001h-1.333c-0.245,0-0.436-0.222-0.436-0.483V6.454c0-0.243,0.168-0.462,0.436-0.462h1.333
		c0.242,0,0.435,0.194,0.435,0.462v17.062C59.204,23.759,59.034,24.001,58.769,24.001"/>
	<path fill="#FFFFFF" d="M76.723,24.169c-1.258,0-2.422-0.121-3.803-0.604c-1.384,0.483-2.521,0.604-3.781,0.604
		c-3.686,0-5.138-2.396-5.138-6.617V6.453c0-0.243,0.193-0.46,0.459-0.46h1.287c0.241,0,0.461,0.217,0.461,0.46v11.099
		c0,3.273,0.651,4.753,3.392,4.753c0.412,0,1.696-0.072,2.231-0.22V6.453c0-0.243,0.19-0.46,0.459-0.46h1.31
		c0.27,0,0.438,0.169,0.438,0.436v15.657c0.531,0.146,1.816,0.219,2.229,0.219c2.737,0,3.395-1.479,3.395-4.752v-11.1
		c0-0.243,0.193-0.46,0.461-0.46h1.283c0.242,0,0.463,0.217,0.463,0.46v11.099C81.863,21.771,80.408,24.169,76.723,24.169"/>
	<path fill="#FFFFFF" d="M97.391,24.001h-1.332c-0.244,0-0.438-0.219-0.438-0.483v-7.177h-7.416v7.177
		c0,0.241-0.17,0.483-0.438,0.483h-1.332c-0.242,0-0.438-0.242-0.438-0.483V10.84c0-3.71,1.724-5.019,5.213-5.019h1.399
		c3.472,0,5.213,1.309,5.213,5.019v12.678C97.826,23.759,97.635,24.001,97.391,24.001 M95.621,10.84
		c0-2.521-0.799-3.079-3.006-3.079h-1.402c-2.207,0-3.008,0.558-3.008,3.079v3.562h7.416V10.84z"/>
	<path fill="#FFFFFF" d="M113.998,24.001h-1.553c-0.291,0-0.438,0-0.629-0.315l-4.34-7.222h-0.22h-0.409
		c-0.804,0-1.384-0.024-2.666-0.073v7.127c0,0.241-0.173,0.483-0.438,0.483h-1.31c-0.242,0-0.438-0.219-0.438-0.483V6.55
		c0-0.341,0.146-0.486,0.582-0.534c1.041-0.12,2.855-0.194,4.268-0.194c3.826,0,6.785,1.284,6.785,5.211v0.17
		c0,2.714-1.604,4.312-3.805,4.896l4.406,7.368c0.051,0.07,0.074,0.146,0.074,0.218C114.312,23.854,114.191,24.001,113.998,24.001
		 M111.451,11.033c0-2.423-1.574-3.224-4.604-3.224c-0.752,0-2.084,0-2.666,0.073v6.642c1.063,0.023,2.104,0.049,2.666,0.049
		c2.979,0,4.604-0.752,4.604-3.369V11.033L111.451,11.033z"/>
	<path fill="#FFFFFF" d="M126.889,24.048c-0.922,0.099-3.297,0.121-4.727,0.121c-3.393,0-5.162-1.283-5.162-4.508V10.33
		c0-3.225,1.77-4.509,5.162-4.509c1.43,0,3.709,0.049,4.727,0.146c0.146,0.025,0.242,0.194,0.242,0.339v1.212
		c0,0.17-0.096,0.291-0.266,0.291h-4.68c-2.568,0-2.98,0.68-2.98,2.521v3.369h7.441c0.268,0,0.481,0.217,0.481,0.484v0.92
		c0,0.268-0.217,0.485-0.481,0.485h-7.441v4.071c0,1.842,0.412,2.521,2.98,2.521h4.68c0.17,0,0.266,0.121,0.266,0.289v1.238
		C127.131,23.854,127.035,24.023,126.889,24.048"/>
	<g>
		<path fill="#FFFFFF" d="M24.505,2.53c0.945,0.156,1.768,0.451,2.452,0.854c0.688,0.41,1.234,0.929,1.61,1.524
			c0.384,0.601,0.597,1.28,0.615,2.004c0.018,0.73-0.163,1.506-0.565,2.286c-0.406,0.788-1,1.505-1.727,2.126
			c-0.729,0.625-1.59,1.151-2.525,1.552c-0.937,0.401-1.945,0.679-2.966,0.805c-1.017,0.125-2.046,0.101-3.024-0.098
			c-0.973-0.196-1.803-0.542-2.47-1.002c-0.662-0.455-1.164-1.02-1.486-1.653c-0.32-0.625-0.464-1.321-0.416-2.047
			c0.046-0.72,0.283-1.471,0.725-2.214c0.437-0.739,1.035-1.406,1.745-1.978c0.706-0.572,1.522-1.054,2.399-1.423
			c0.876-0.37,1.817-0.631,2.768-0.762C22.596,2.375,23.567,2.375,24.505,2.53"/>
		<path fill="#FFFFFF" d="M24.949,1.728c1.577,0.255,2.962,0.745,4.115,1.42c1.171,0.684,2.108,1.558,2.771,2.567
			c0.673,1.026,1.061,2.192,1.121,3.44c0.06,1.265-0.221,2.615-0.889,3.982c-0.68,1.385-1.69,2.651-2.94,3.749
			c-1.258,1.107-2.75,2.035-4.374,2.738c-1.629,0.707-3.381,1.185-5.151,1.387c-1.764,0.201-3.537,0.134-5.212-0.245
			c-1.658-0.377-3.057-1.021-4.164-1.853c-1.095-0.824-1.904-1.828-2.404-2.945c-0.493-1.102-0.686-2.312-0.555-3.564
			c0.127-1.235,0.569-2.51,1.347-3.77c0.767-1.245,1.79-2.361,2.989-3.316c1.188-0.952,2.551-1.749,4.008-2.363
			c1.453-0.611,3.008-1.045,4.585-1.261C21.776,1.478,23.387,1.477,24.949,1.728 M16.416,17.113
			c1.324,0.281,2.718,0.326,4.103,0.162c1.387-0.166,2.762-0.539,4.037-1.09c1.273-0.552,2.443-1.274,3.434-2.129
			c0.983-0.854,1.783-1.837,2.324-2.917c0.54-1.066,0.77-2.123,0.734-3.117c-0.034-0.981-0.333-1.901-0.855-2.712
			c-0.518-0.803-1.256-1.498-2.183-2.044c-0.917-0.539-2.022-0.934-3.281-1.139c-1.252-0.202-2.545-0.202-3.816-0.028
			c-1.265,0.174-2.513,0.52-3.679,1.012c-1.169,0.491-2.258,1.13-3.204,1.893c-0.953,0.766-1.762,1.656-2.361,2.648
			c-0.605,1-0.939,2.011-1.022,2.985c-0.082,0.982,0.092,1.931,0.501,2.79c0.416,0.868,1.073,1.646,1.954,2.279
			C13.989,16.344,15.104,16.832,16.416,17.113"/>
		<path fill="#FFFFFF" d="M36.89,11.494c-0.124-1.804-0.723-3.483-1.714-4.948c-0.97-1.438-2.323-2.673-3.99-3.636
			c-1.639-0.942-3.588-1.626-5.796-1.976c-2.179-0.346-4.42-0.34-6.617-0.035c-2.186,0.303-4.345,0.904-6.368,1.755
			C10.376,3.506,8.466,4.616,6.791,5.94c-1.695,1.338-3.165,2.906-4.288,4.662c-1.145,1.787-1.832,3.611-2.08,5.386
			c-0.255,1.812-0.058,3.578,0.569,5.197c0.643,1.656,1.732,3.162,3.243,4.406c1.543,1.271,3.518,2.268,5.888,2.867
			c2.404,0.609,4.967,0.756,7.534,0.482c2.582-0.271,5.14-0.961,7.518-2.004c2.372-1.037,4.542-2.418,6.362-4.062
			c1.802-1.627,3.244-3.506,4.192-5.557C36.658,15.313,37.019,13.339,36.89,11.494 M33.87,15.199
			c-0.813,1.709-2.039,3.271-3.558,4.625c-1.536,1.371-3.361,2.518-5.353,3.385c-1.995,0.869-4.142,1.451-6.311,1.689
			c-2.157,0.24-4.317,0.137-6.354-0.354c-2.009-0.481-3.696-1.293-5.022-2.336c-1.305-1.024-2.259-2.272-2.835-3.653
			c-0.565-1.354-0.765-2.838-0.579-4.367c0.184-1.501,0.743-3.049,1.698-4.572c0.943-1.499,2.188-2.84,3.632-3.986
			c1.432-1.138,3.07-2.093,4.814-2.824c1.739-0.734,3.597-1.25,5.479-1.511c1.892-0.262,3.82-0.266,5.689,0.035
			c1.893,0.302,3.56,0.89,4.954,1.7c1.418,0.821,2.559,1.875,3.373,3.098c0.828,1.243,1.318,2.662,1.406,4.184
			C34.992,11.862,34.669,13.518,33.87,15.199"/>
	</g>
</g>
</svg>
