<?xml version="1.0" encoding="UTF-8"?>
<svg width="20px" height="20px" viewBox="0 0 20 20" version="1.1" xmlns="http://www.w3.org/2000/svg" xmlns:xlink="http://www.w3.org/1999/xlink">
    <!-- Generator: Sketch 52.4 (67378) - http://www.bohemiancoding.com/sketch -->
    <title>icons/20px/accent/support</title>
    <desc>Created with Sketch.</desc>
    <g id="icons/20px/accent/support" stroke="none" stroke-width="1" fill="none" fill-rule="evenodd">
        <path d="M5.2178,17.6108 L7.4198,15.4088 C8.2018,15.7838 9.0748,15.9998 9.9998,15.9998 C10.9248,15.9998 11.7978,15.7838 12.5798,15.4088 L14.7818,17.6108 C13.3948,18.4858 11.7578,18.9998 9.9998,18.9998 C8.2418,18.9998 6.6058,18.4858 5.2178,17.6108 Z M2.3898,5.2168 L4.5918,7.4198 C4.2168,8.2028 3.9998,9.0748 3.9998,9.9998 C3.9998,10.9248 4.2168,11.7978 4.5918,12.5808 L2.3898,14.7828 C1.5148,13.3948 0.9998,11.7578 0.9998,9.9998 C0.9998,8.2418 1.5148,6.6048 2.3898,5.2168 Z M14.7818,2.3888 L12.5798,4.5908 C11.7978,4.2158 10.9248,3.9998 9.9998,3.9998 C9.0748,3.9998 8.2018,4.2158 7.4198,4.5908 L5.2178,2.3888 C6.6058,1.5138 8.2418,0.9998 9.9998,0.9998 C11.7578,0.9998 13.3948,1.5138 14.7818,2.3888 Z M5.3538,11.8188 C5.1318,11.2538 4.9998,10.6438 4.9998,9.9998 C4.9998,9.3568 5.1318,8.7458 5.3538,8.1818 C5.8608,6.8868 6.8868,5.8608 8.1818,5.3538 C8.7458,5.1318 9.3568,4.9998 9.9998,4.9998 C10.6438,4.9998 11.2538,5.1318 11.8188,5.3538 C13.1138,5.8608 14.1398,6.8868 14.6468,8.1818 C14.8678,8.7458 14.9998,9.3568 14.9998,9.9998 C14.9998,10.6438 14.8678,11.2538 14.6468,11.8188 C14.1398,13.1128 13.1138,14.1398 11.8188,14.6468 C11.2538,14.8678 10.6438,14.9998 9.9998,14.9998 C9.3568,14.9998 8.7458,14.8678 8.1818,14.6468 C6.8868,14.1398 5.8608,13.1128 5.3538,11.8188 Z M15.4078,12.5808 C15.7828,11.7978 15.9998,10.9248 15.9998,9.9998 C15.9998,9.0748 15.7828,8.2028 15.4078,7.4198 L17.6108,5.2168 C18.4858,6.6048 18.9998,8.2418 18.9998,9.9998 C18.9998,11.7578 18.4858,13.3948 17.6108,14.7828 L15.4078,12.5808 Z M9.9998,-0.0002 C4.4768,-0.0002 -0.0002,4.4768 -0.0002,9.9998 C-0.0002,15.5228 4.4768,19.9998 9.9998,19.9998 C15.5238,19.9998 19.9998,15.5228 19.9998,9.9998 C19.9998,4.4768 15.5238,-0.0002 9.9998,-0.0002 Z" id="Fill-1" fill="#00B8C7"></path>
    </g>
</svg>