<?xml version="1.0" encoding="utf-8"?>
<!-- Generator: Adobe Illustrator 16.0.0, SVG Export Plug-In . SVG Version: 6.00 Build 0)  -->
<!DOCTYPE svg PUBLIC "-//W3C//DTD SVG 1.0//EN" "http://www.w3.org/TR/2001/REC-SVG-20010904/DTD/svg10.dtd">
<svg version="1.0" id="Layer_1" xmlns="http://www.w3.org/2000/svg" xmlns:xlink="http://www.w3.org/1999/xlink" x="0px" y="0px"
	 width="18px" height="18px" viewBox="0 0 18 18" enable-background="new 0 0 18 18" xml:space="preserve">
<g>
	<path fill="#00B8C7" d="M3.077,8.618c-0.103,0.244-0.103,0.52,0,0.764c0.051,0.123,0.124,0.233,0.217,0.325l4.999,5
		c0.391,0.391,1.023,0.391,1.414,0c0.391-0.391,0.391-1.023,0-1.414L6.414,10H14c0.552,0,1-0.448,1-1c0-0.553-0.447-1-1-1H6.415
		l3.292-3.293c0.391-0.391,0.391-1.023,0-1.414C9.511,3.098,9.255,3,9,3S8.488,3.098,8.293,3.293L3.294,8.292
		C3.201,8.385,3.128,8.495,3.077,8.618z"/>
</g>
</svg>
