<?xml version="1.0" encoding="utf-8"?>
<!-- Generator: Adobe Illustrator 16.0.0, SVG Export Plug-In . SVG Version: 6.00 Build 0)  -->
<!DOCTYPE svg PUBLIC "-//W3C//DTD SVG 1.0//EN" "http://www.w3.org/TR/2001/REC-SVG-20010904/DTD/svg10.dtd">
<svg version="1.0" id="Layer_1" xmlns="http://www.w3.org/2000/svg" xmlns:xlink="http://www.w3.org/1999/xlink" x="0px" y="0px"
	 width="24px" height="14px" viewBox="0 0 24 14" enable-background="new 0 0 24 14" xml:space="preserve">
<g>
	<path fill="#FFFFFF" d="M7,2c1.064,0,1.658,0.959,1.698,1.897l-0.66,2.908C8.007,6.892,7.98,6.952,7.962,6.992
		C7.9,6.997,7.805,7,7.654,7H6.346C6.195,7,6.099,6.997,6.038,6.992c-0.019-0.04-0.044-0.1-0.076-0.186L5.303,3.898
		C5.343,2.959,5.935,2,7,2 M7,1C5.393,1,4.301,2.394,4.301,4L5,7.086C5.295,7.923,5.541,8,6.346,8h1.308
		C8.458,8,8.704,7.923,9,7.086L9.7,4C9.7,2.394,8.605,1,7,1L7,1z"/>
	<path fill="#FFFFFF" d="M7,10c3.116,0,4.512,0.525,4.891,2H2.11C2.489,10.525,3.884,10,7,10 M7,9c-3,0-6,0.4-6,4h12
		C13,9.4,10,9,7,9L7,9z"/>
</g>
<polygon fill="#FFFFFF" points="23,6 19,6 19,2 17,2 17,6 13,6 13,8 17,8 17,12 19,12 19,8 23,8 "/>
</svg>
