<?xml version="1.0" encoding="utf-8"?>
<!-- Generator: Adobe Illustrator 16.0.0, SVG Export Plug-In . SVG Version: 6.00 Build 0)  -->
<!DOCTYPE svg PUBLIC "-//W3C//DTD SVG 1.0//EN" "http://www.w3.org/TR/2001/REC-SVG-20010904/DTD/svg10.dtd">
<svg version="1.0" id="Layer_1" xmlns="http://www.w3.org/2000/svg" xmlns:xlink="http://www.w3.org/1999/xlink" x="0px" y="0px"
	 width="14px" height="14px" viewBox="0 0 14 14" enable-background="new 0 0 14 14" xml:space="preserve">
<g>
	<path fill="#55555D" d="M12,1H2C1.447,1,1,1.448,1,2v10c0,0.553,0.447,1,1,1h10c0.553,0,1-0.447,1-1V2C13,1.448,12.553,1,12,1z
		 M12,6h-2v2h2v4H8v-2H6v2H2V8h2V6H2V2h4v2h2V2h4V6z"/>
	<rect x="6" y="6" fill="#55555D" width="2" height="2"/>
</g>
</svg>
