<?xml version="1.0" encoding="utf-8"?>
<!-- Generator: Adobe Illustrator 16.0.0, SVG Export Plug-In . SVG Version: 6.00 Build 0)  -->
<!DOCTYPE svg PUBLIC "-//W3C//DTD SVG 1.0//EN" "http://www.w3.org/TR/2001/REC-SVG-20010904/DTD/svg10.dtd">
<svg version="1.0" id="Layer_1" xmlns="http://www.w3.org/2000/svg" xmlns:xlink="http://www.w3.org/1999/xlink" x="0px" y="0px"
	 width="12px" height="12px" viewBox="0 0 12 12" enable-background="new 0 0 12 12" xml:space="preserve">
<g opacity="0.4">
	<path fill="#919191" d="M4,8h4c0.464,0,0.867,0.318,0.973,0.77C9.08,9.222,8.861,9.688,8.447,9.895l-2,1
		c-0.281,0.141-0.613,0.141-0.895,0l-2-1C3.138,9.688,2.92,9.222,3.027,8.77C3.133,8.318,3.536,8,4,8z"/>
</g>
<path opacity="0.4" fill="#919191" d="M8,4H4C3.536,4,3.133,3.681,3.027,3.23C2.92,2.778,3.138,2.313,3.553,2.105l2-1
	c0.281-0.141,0.613-0.141,0.895,0l2,1C8.861,2.313,9.08,2.778,8.973,3.23C8.867,3.681,8.464,4,8,4z"/>
<path fill="#00B4C3" d="M10,7H2C1.448,7,1,6.552,1,6s0.448-1,1-1h8c0.553,0,1,0.448,1,1S10.553,7,10,7z"/>
</svg>
