<?xml version="1.0" encoding="utf-8"?>
<!-- Generator: Adobe Illustrator 16.0.0, SVG Export Plug-In . SVG Version: 6.00 Build 0)  -->
<!DOCTYPE svg PUBLIC "-//W3C//DTD SVG 1.0//EN" "http://www.w3.org/TR/2001/REC-SVG-20010904/DTD/svg10.dtd">
<svg version="1.0" id="Layer_1" xmlns="http://www.w3.org/2000/svg" xmlns:xlink="http://www.w3.org/1999/xlink" x="0px" y="0px"
	 width="16px" height="16px" viewBox="0 0 16 16" enable-background="new 0 0 16 16" xml:space="preserve">
<g>
	<g>
		<path fill="#00B8C7" d="M4,5H2C1.45,5,1,4.55,1,4V2c0-0.55,0.45-1,1-1h2c0.55,0,1,0.45,1,1v2C5,4.55,4.55,5,4,5"/>
		<path fill="#00B8C7" d="M9,5H7C6.45,5,6,4.55,6,4V2c0-0.55,0.45-1,1-1h2c0.55,0,1,0.45,1,1v2C10,4.55,9.55,5,9,5"/>
		<path fill="#00B8C7" d="M14,5h-2c-0.55,0-1-0.45-1-1V2c0-0.55,0.45-1,1-1h2c0.55,0,1,0.45,1,1v2C15,4.55,14.55,5,14,5"/>
		<path fill="#00B8C7" d="M4,10H2c-0.55,0-1-0.45-1-1V7c0-0.55,0.45-1,1-1h2c0.55,0,1,0.45,1,1v2C5,9.55,4.55,10,4,10"/>
		<path fill="#00B8C7" d="M9,10H7c-0.55,0-1-0.45-1-1V7c0-0.55,0.45-1,1-1h2c0.55,0,1,0.45,1,1v2C10,9.55,9.55,10,9,10"/>
		<path fill="#00B8C7" d="M14,10h-2c-0.55,0-1-0.45-1-1V7c0-0.55,0.45-1,1-1h2c0.55,0,1,0.45,1,1v2C15,9.55,14.55,10,14,10"/>
		<path fill="#00B8C7" d="M4,15H2c-0.55,0-1-0.45-1-1v-2c0-0.55,0.45-1,1-1h2c0.55,0,1,0.45,1,1v2C5,14.55,4.55,15,4,15"/>
		<path fill="#00B8C7" d="M9,15H7c-0.55,0-1-0.45-1-1v-2c0-0.55,0.45-1,1-1h2c0.55,0,1,0.45,1,1v2C10,14.55,9.55,15,9,15"/>
		<path fill="#00B8C7" d="M14,15h-2c-0.55,0-1-0.45-1-1v-2c0-0.55,0.45-1,1-1h2c0.55,0,1,0.45,1,1v2C15,14.55,14.55,15,14,15"/>
	</g>
</g>
</svg>
