<?xml version="1.0" encoding="utf-8"?>
<!-- Generator: Adobe Illustrator 16.0.0, SVG Export Plug-In . SVG Version: 6.00 Build 0)  -->
<!DOCTYPE svg PUBLIC "-//W3C//DTD SVG 1.0//EN" "http://www.w3.org/TR/2001/REC-SVG-20010904/DTD/svg10.dtd">
<svg version="1.0" id="Layer_1" xmlns="http://www.w3.org/2000/svg" xmlns:xlink="http://www.w3.org/1999/xlink" x="0px" y="0px"
	 width="18px" height="18px" viewBox="0 0 18 18" enable-background="new 0 0 18 18" xml:space="preserve">
<g>
	<path fill="#00B8C7" d="M11,9c0,1.105-0.896,2-2,2c-1.105,0-2-0.895-2-2s0.895-2,2-2C10.104,7,11,7.895,11,9"/>
	<path fill="#00B8C7" d="M5,9c0,1.105-0.896,2-2,2c-1.105,0-2-0.895-2-2s0.895-2,2-2C4.104,7,5,7.895,5,9"/>
	<path fill="#00B8C7" d="M17,9c0,1.105-0.896,2-2,2c-1.105,0-2-0.895-2-2s0.895-2,2-2C16.104,7,17,7.895,17,9"/>
</g>
</svg>
