<?xml version="1.0" encoding="utf-8"?>
<!-- Generator: Adobe Illustrator 16.0.0, SVG Export Plug-In . SVG Version: 6.00 Build 0)  -->
<!DOCTYPE svg PUBLIC "-//W3C//DTD SVG 1.0//EN" "http://www.w3.org/TR/2001/REC-SVG-20010904/DTD/svg10.dtd">
<svg version="1.0" id="Layer_1" xmlns="http://www.w3.org/2000/svg" xmlns:xlink="http://www.w3.org/1999/xlink" x="0px" y="0px"
	 width="18px" height="18px" viewBox="0 0 18 18" enable-background="new 0 0 18 18" xml:space="preserve">
<g>
	<path fill="#00B8C7" d="M8.618,12.923c0.244,0.102,0.52,0.102,0.764,0c0.124-0.051,0.233-0.124,0.325-0.217l5-4.999
		c0.392-0.391,0.392-1.023,0-1.414c-0.391-0.391-1.023-0.391-1.414,0L10,9.586V2c0-0.553-0.447-1-1-1C8.448,1,8,1.447,8,2v7.586
		L4.707,6.293c-0.391-0.391-1.024-0.391-1.414,0C3.098,6.488,3,6.744,3,7s0.098,0.512,0.293,0.707l4.999,4.999
		C8.385,12.799,8.495,12.872,8.618,12.923"/>
	<path fill="#00B8C7" d="M3,16c0-0.553,0.448-1,1-1h10c0.552,0,1,0.447,1,1s-0.448,1-1,1H4C3.449,17,3,16.553,3,16"/>
</g>
</svg>
