<?xml version="1.0" encoding="utf-8"?>
<!-- Generator: Adobe Illustrator 19.0.0, SVG Export Plug-In . SVG Version: 6.00 Build 0)  -->
<svg version="1.0" id="Capa_1" xmlns="http://www.w3.org/2000/svg" xmlns:xlink="http://www.w3.org/1999/xlink" x="0px" y="0px"
	 viewBox="0 0 20 20" style="enable-background:new 0 0 20 20;" xml:space="preserve">
<style type="text/css">
	.st0{fill:#00D5E7;}
</style>
<path id="XMLID_2_" class="st0" d="M10.6,1v0.1c0,1.7,1.4,3.1,3.1,3.1c0.8,0,1.6-0.3,2.2-0.9L16,3.3L16.7,4l-0.1,0.1
	c-0.6,0.6-0.9,1.4-0.9,2.2c0,1.7,1.4,3.1,3.1,3.1l0.1,0v1.1h-0.1c-1.7,0-3.1,1.4-3.1,3.1c0,0.8,0.3,1.6,0.9,2.2l0.1,0.1L16,16.8
	l-0.1-0.1c-0.6-0.6-1.4-0.9-2.2-0.9c-1.7,0-3.1,1.4-3.1,3.1V19H9.4v-0.1c0-1.7-1.4-3.1-3.1-3.1c-0.8,0-1.6,0.3-2.2,0.9L4,16.8
	L3.3,16l0.1-0.1c0.6-0.6,0.9-1.4,0.9-2.2c0-1.7-1.4-3.1-3.1-3.1H1V9.4l0.1,0c1.7,0,3.1-1.4,3.1-3.1c0-0.8-0.3-1.6-0.9-2.2L3.3,4
	L4,3.3l0.1,0.1c0.6,0.6,1.4,0.9,2.2,0.9c1.7,0,3.1-1.4,3.1-3.1V1H10.6 M10,13c1.7,0,3-1.3,3-3s-1.3-3-3-3s-3,1.3-3,3S8.3,13,10,13
	 M11.6,0H8.4v1.1c0,1.2-0.9,2.1-2.1,2.1C5.7,3.3,5.2,3,4.8,2.6v0L4,1.8L1.8,4l0.8,0.8C3,5.2,3.3,5.7,3.3,6.3c0,1.2-1,2.1-2.1,2.1
	L0,8.4v3.1h1.1c1.2,0,2.1,0.9,2.1,2.1c0,0.6-0.2,1.1-0.6,1.5L1.8,16L4,18.2l0.8-0.8c0.4-0.4,0.9-0.6,1.5-0.6c1.2,0,2.1,1,2.1,2.1V20
	h3.1v-1.1c0-1.2,0.9-2.1,2.1-2.1c0.6,0,1.1,0.2,1.5,0.6l0.8,0.8l2.2-2.2l-0.8-0.8v0c-0.4-0.4-0.6-0.9-0.6-1.5c0-1.2,1-2.1,2.1-2.1
	H20V8.4h-1.1v0c-1.2,0-2.1-0.9-2.1-2.1c0-0.6,0.2-1.1,0.6-1.5L18.2,4L16,1.8l-0.8,0.8c-0.4,0.4-0.9,0.6-1.5,0.6
	c-1.2,0-2.1-1-2.1-2.1V0L11.6,0z M10,12c-1.1,0-2-0.9-2-2s0.9-2,2-2c1.1,0,2,0.9,2,2S11.1,12,10,12L10,12z"/>
</svg>
