<?xml version="1.0" encoding="utf-8"?>
<!-- Generator: Adobe Illustrator 16.0.0, SVG Export Plug-In . SVG Version: 6.00 Build 0)  -->
<!DOCTYPE svg PUBLIC "-//W3C//DTD SVG 1.0//EN" "http://www.w3.org/TR/2001/REC-SVG-20010904/DTD/svg10.dtd">
<svg version="1.0" id="Layer_1" xmlns="http://www.w3.org/2000/svg" xmlns:xlink="http://www.w3.org/1999/xlink" x="0px" y="0px"
	 width="18px" height="18px" viewBox="0 0 18 18" enable-background="new 0 0 18 18" xml:space="preserve">
<g>
	<g>
		<path fill="#00B8C7" d="M4,7.277V2c0-0.552-0.447-1-1-1S2,1.448,2,2v5.277C1.404,7.624,1,8.262,1,9s0.404,1.376,1,1.723V16
			c0,0.552,0.447,1,1,1s1-0.448,1-1v-5.277C4.596,10.376,5,9.738,5,9S4.596,7.624,4,7.277 M3,10c-0.551,0-1-0.449-1-1s0.449-1,1-1
			s1,0.449,1,1S3.551,10,3,10"/>
		<path fill="#00B8C7" d="M10,3.277V2c0-0.552-0.447-1-1-1S8,1.448,8,2v1.277C7.405,3.624,7,4.262,7,5s0.405,1.376,1,1.723V16
			c0,0.552,0.447,1,1,1s1-0.448,1-1V6.723C10.595,6.376,11,5.738,11,5S10.595,3.624,10,3.277 M9,6C8.449,6,8,5.551,8,5s0.449-1,1-1
			s1,0.449,1,1S9.551,6,9,6"/>
		<path fill="#00B8C7" d="M17,13c0-0.738-0.405-1.376-1-1.723V2c0-0.552-0.447-1-1-1s-1,0.448-1,1v9.277
			c-0.595,0.347-1,0.984-1,1.723s0.405,1.376,1,1.723V16c0,0.552,0.447,1,1,1s1-0.448,1-1v-1.277C16.595,14.376,17,13.738,17,13
			 M15,14c-0.551,0-1-0.449-1-1s0.449-1,1-1s1,0.449,1,1S15.551,14,15,14"/>
	</g>
</g>
</svg>
