<?xml version="1.0" encoding="utf-8"?>
<!-- Generator: Adobe Illustrator 16.0.0, SVG Export Plug-In . SVG Version: 6.00 Build 0)  -->
<!DOCTYPE svg PUBLIC "-//W3C//DTD SVG 1.1//EN" "http://www.w3.org/Graphics/SVG/1.1/DTD/svg11.dtd">
<svg version="1.1" id="Layer_1" xmlns="http://www.w3.org/2000/svg" xmlns:xlink="http://www.w3.org/1999/xlink" x="0px" y="0px"
	 width="40px" height="40px" viewBox="0 0 40 40" enable-background="new 0 0 40 40" xml:space="preserve">
<g>
	<path fill="#CCCCCC" d="M33.37,14.9l-8.277-8.276c-0.188-0.188-0.492-0.188-0.68,0L2.537,28.5
		c-0.064,0.064-0.109,0.146-0.129,0.234L0.012,39.408c-0.036,0.161,0.013,0.329,0.129,0.445c0.116,0.117,0.284,0.165,0.445,0.129
		l10.673-2.396c0.089-0.02,0.17-0.064,0.234-0.129L33.37,15.58C33.558,15.392,33.558,15.088,33.37,14.9z"/>
	<path fill="#CCCCCC" d="M39.063,5.38l-4.436-4.436c-1.25-1.25-3.283-1.249-4.532,0l-3.631,3.631c-0.188,0.188-0.188,0.492,0,0.68
		l8.289,8.289c0.188,0.188,0.492,0.188,0.679,0l3.631-3.631C40.312,8.663,40.312,6.629,39.063,5.38z"/>
</g>
</svg>
