<?xml version="1.0" encoding="utf-8"?>
<!-- Generator: Adobe Illustrator 16.0.0, SVG Export Plug-In . SVG Version: 6.00 Build 0)  -->
<!DOCTYPE svg PUBLIC "-//W3C//DTD SVG 1.0//EN" "http://www.w3.org/TR/2001/REC-SVG-20010904/DTD/svg10.dtd">
<svg version="1.0" id="Layer_1" xmlns="http://www.w3.org/2000/svg" xmlns:xlink="http://www.w3.org/1999/xlink" x="0px" y="0px"
	 width="18px" height="18px" viewBox="0 0 18 18" enable-background="new 0 0 18 18" xml:space="preserve">
<g>
	<path fill="#00B8C7" d="M9,2.5c3.584,0,6.5,2.916,6.5,6.5s-2.916,6.5-6.5,6.5S2.5,12.584,2.5,9S5.416,2.5,9,2.5 M9,1
		C4.582,1,1,4.582,1,9c0,4.418,3.582,8,8,8s8-3.582,8-8C17,4.582,13.418,1,9,1L9,1z"/>
	<path fill="#00B8C7" d="M12.098,9.634L10,8.422V5c0-0.552-0.447-1-1-1S8,4.448,8,5v4c0,0.331,0.17,0.609,0.417,0.791
		C8.442,9.817,8.462,9.845,8.5,9.866l2.598,1.5c0.157,0.091,0.329,0.134,0.499,0.134c0.346,0,0.682-0.18,0.867-0.5
		C12.74,10.521,12.576,9.91,12.098,9.634z"/>
</g>
</svg>
