<?xml version="1.0" encoding="utf-8"?>
<!-- Generator: Adobe Illustrator 16.0.0, SVG Export Plug-In . SVG Version: 6.00 Build 0)  -->
<!DOCTYPE svg PUBLIC "-//W3C//DTD SVG 1.0//EN" "http://www.w3.org/TR/2001/REC-SVG-20010904/DTD/svg10.dtd">
<svg version="1.0" id="Layer_1" xmlns="http://www.w3.org/2000/svg" xmlns:xlink="http://www.w3.org/1999/xlink" x="0px" y="0px"
	 width="18px" height="18px" viewBox="0 0 18 18" enable-background="new 0 0 18 18" xml:space="preserve">
<g>
	<path fill="#27272E" d="M4,1C3.447,1,3,1.448,3,2v1h2V2C5,1.448,4.553,1,4,1z"/>
	<path fill="#27272E" d="M14,1c-0.553,0-1,0.448-1,1v1h2V2C15,1.448,14.553,1,14,1z"/>
</g>
<path fill="#27272E" d="M16,3h-1v1c0,0.552-0.447,1-1,1s-1-0.448-1-1V3H5v1c0,0.552-0.447,1-1,1S3,4.552,3,4V3H2
	C1.447,3,1,3.448,1,4v12c0,0.553,0.447,1,1,1h14c0.553,0,1-0.447,1-1V4C17,3.448,16.553,3,16,3z M15,15H3V8h12V15z"/>
<rect x="4" y="10" fill="#27272E" width="2" height="1"/>
<rect x="12" y="13" fill="#27272E" width="2" height="1"/>
</svg>
