<?xml version="1.0" encoding="utf-8"?>
<!-- Generator: Adobe Illustrator 19.0.0, SVG Export Plug-In . SVG Version: 6.00 Build 0)  -->
<svg version="1.0" id="Capa_1" xmlns="http://www.w3.org/2000/svg" xmlns:xlink="http://www.w3.org/1999/xlink" x="0px" y="0px"
	 viewBox="0 0 20 20" style="enable-background:new 0 0 20 20;" xml:space="preserve">
<style type="text/css">
	.st0{fill:#00D5E7;}
</style>
<path class="st0" d="M10,0C4.5,0,0,4.5,0,10s4.5,10,10,10s10-4.5,10-10S15.5,0,10,0z M16,9.5c0-1.1-0.1-2.2-0.3-3.2
	c0.8-0.2,1.4-0.5,2.1-0.8c0.7,1.2,1.1,2.5,1.2,4H16z M19,10.5c-0.1,1.4-0.5,2.8-1.2,4c-0.6-0.3-1.3-0.5-2.1-0.8
	c0.2-1,0.3-2.1,0.3-3.2H19z M17.2,4.7c-0.5,0.2-1.1,0.4-1.7,0.6c-0.2-1.1-0.6-2.1-0.9-3C15.6,2.9,16.5,3.7,17.2,4.7z M13.5,17.8
	c-0.9-0.4-1.9-0.7-3-0.8v-3c1.3,0,2.7,0.2,4,0.5C14.2,15.7,13.9,16.8,13.5,17.8C13.5,17.8,13.5,17.8,13.5,17.8z M10.5,13v-2.5H15
	c0,1-0.1,2-0.3,3C13.4,13.2,12,13,10.5,13z M10.5,9.5V7c1.5,0,2.9-0.2,4.2-0.5c0.2,1,0.3,2,0.3,3H10.5z M14.5,5.5
	c-1.3,0.3-2.7,0.4-4,0.5V3c1.1-0.1,2.1-0.3,3-0.8c0,0,0,0,0,0C13.9,3.2,14.2,4.3,14.5,5.5z M12.7,1.4C11.9,1.8,11,2,10,2
	C9,2,8.1,1.8,7.3,1.4C8.1,1.1,9.1,1,10,1C10.9,1,11.9,1.1,12.7,1.4z M5.5,14.5c1.3-0.3,2.7-0.4,4-0.5v3c-1.1,0.1-2.1,0.3-3,0.8
	c0,0,0,0,0,0C6.1,16.8,5.8,15.7,5.5,14.5z M5.3,13.5c-0.2-1-0.3-2-0.3-3h4.5V13C8,13,6.6,13.2,5.3,13.5z M5,9.5c0-1,0.1-2,0.3-3
	C6.6,6.8,8,7,9.5,7v2.5H5z M5.5,5.5c0.3-1.2,0.6-2.3,1.1-3.3c0,0,0,0,0,0c0.9,0.4,1.9,0.7,3,0.8v3C8.2,5.9,6.8,5.8,5.5,5.5z
	 M5.4,2.3C5,3.2,4.7,4.2,4.5,5.3C3.9,5.1,3.3,4.9,2.8,4.7C3.5,3.7,4.4,2.9,5.4,2.3z M4,9.5H1c0.1-1.4,0.5-2.8,1.2-4
	c0.6,0.3,1.3,0.5,2.1,0.8C4.1,7.3,4,8.4,4,9.5z M4.3,13.7c-0.8,0.2-1.4,0.5-2.1,0.8c-0.7-1.2-1.1-2.5-1.2-4h3
	C4,11.6,4.1,12.7,4.3,13.7z M2.8,15.3c0.5-0.2,1.1-0.4,1.7-0.6c0.2,1.1,0.6,2.1,0.9,3C4.4,17.1,3.5,16.3,2.8,15.3z M7.3,18.6
	C8.1,18.2,9,18,10,18s1.9,0.2,2.7,0.6C11.9,18.9,10.9,19,10,19C9.1,19,8.1,18.9,7.3,18.6z M14.6,17.7c0.4-0.9,0.7-1.9,0.9-3
	c0.6,0.2,1.2,0.4,1.7,0.6C16.5,16.3,15.6,17.1,14.6,17.7z"/>
</svg>
