<?xml version="1.0" encoding="utf-8"?>
<!-- Generator: Adobe Illustrator 16.0.0, SVG Export Plug-In . SVG Version: 6.00 Build 0)  -->
<!DOCTYPE svg PUBLIC "-//W3C//DTD SVG 1.1//EN" "http://www.w3.org/Graphics/SVG/1.1/DTD/svg11.dtd">
<svg version="1.1" id="Layer_1" xmlns="http://www.w3.org/2000/svg" xmlns:xlink="http://www.w3.org/1999/xlink" x="0px" y="0px"
	 width="18px" height="18px" viewBox="-1 -1 18 18" enable-background="new -1 -1 18 18" xml:space="preserve">
<path fill="#00B8C7" enable-background="new    " d="M8,0C3.582,0,0,3.582,0,8s3.582,8,8,8s8-3.582,8-8S12.418,0,8,0z M8,2.5
	c0.829,0,1.5,0.672,1.5,1.5S8.829,5.5,8,5.5S6.5,4.828,6.5,4S7.171,2.5,8,2.5z M10,13H9H7H6v-1h1V8H6V7h1h2v1v4h1V13z"/>
</svg>
