<?xml version="1.0" encoding="utf-8"?>
<!-- Generator: Adobe Illustrator 16.0.0, SVG Export Plug-In . SVG Version: 6.00 Build 0)  -->
<!DOCTYPE svg PUBLIC "-//W3C//DTD SVG 1.0//EN" "http://www.w3.org/TR/2001/REC-SVG-20010904/DTD/svg10.dtd">
<svg version="1.0" id="Layer_1" xmlns="http://www.w3.org/2000/svg" xmlns:xlink="http://www.w3.org/1999/xlink" x="0px" y="0px"
	 width="18px" height="18px" viewBox="0 0 18 18" enable-background="new 0 0 18 18" xml:space="preserve">
<g>
	<path fill="#00B8C7" d="M12.923,9.382c0.102-0.244,0.102-0.52,0-0.764c-0.051-0.123-0.124-0.233-0.217-0.325l-4.999-5
		c-0.391-0.391-1.023-0.391-1.414,0s-0.391,1.023,0,1.414L9.586,8H2C1.447,8,1,8.448,1,9c0,0.553,0.447,1,1,1h7.586l-3.293,3.293
		c-0.391,0.391-0.391,1.023,0,1.414C6.488,14.902,6.744,15,7,15s0.512-0.098,0.707-0.293l4.999-4.999
		C12.799,9.615,12.872,9.505,12.923,9.382z"/>
	<path fill="#00B8C7" d="M16,15c-0.553,0-1-0.448-1-1V4c0-0.553,0.447-1,1-1s1,0.447,1,1v10C17,14.552,16.553,15,16,15z"/>
</g>
</svg>
