<?xml version="1.0" encoding="utf-8"?>
<!-- Generator: Adobe Illustrator 16.0.0, SVG Export Plug-In . SVG Version: 6.00 Build 0)  -->
<!DOCTYPE svg PUBLIC "-//W3C//DTD SVG 1.1//EN" "http://www.w3.org/Graphics/SVG/1.1/DTD/svg11.dtd">
<svg version="1.1" id="Layer_1" xmlns="http://www.w3.org/2000/svg" xmlns:xlink="http://www.w3.org/1999/xlink" x="0px" y="0px"
	 width="17.973px" height="27.827px" viewBox="0 0 17.973 27.827" enable-background="new 0 0 17.973 27.827" xml:space="preserve">
<g>
	<path opacity="0.5" fill="#00B8C7" d="M10.4,6l4.293-4.293c0.391-0.391,0.391-1.023,0-1.414s-1.023-0.391-1.414,0L8.986,4.586
		L4.693,0.293c-0.391-0.391-1.023-0.391-1.414,0s-0.391,1.023,0,1.414L7.572,6l-4.293,4.293c-0.391,0.391-0.391,1.023,0,1.414
		C3.475,11.902,3.73,12,3.986,12s0.512-0.098,0.707-0.293l4.293-4.293l4.293,4.293C13.475,11.902,13.73,12,13.986,12
		s0.512-0.098,0.707-0.293c0.391-0.391,0.391-1.023,0-1.414L10.4,6z"/>
	<g>
		<path fill="#A3B3BA" d="M0,19.816h0.996v7.867H0V19.816z"/>
		<path fill="#A3B3BA" d="M3.061,21.854h0.815l0.084,0.84h0.036c0.552-0.552,1.151-0.983,1.955-0.983
			c1.224,0,1.774,0.791,1.774,2.278v3.694H6.742v-3.562c0-1.091-0.335-1.559-1.103-1.559c-0.601,0-1.008,0.312-1.596,0.899v4.222
			H3.061V21.854z"/>
		<path fill="#A3B3BA" d="M12.25,19.948c-0.215-0.097-0.443-0.145-0.66-0.145c-0.551,0-0.814,0.384-0.814,1.128v0.923h1.234v0.804
			h-1.234v5.025H9.791v-5.025H9v-0.743l0.791-0.061v-0.923c0-1.188,0.541-1.932,1.703-1.932c0.359,0,0.709,0.084,0.973,0.192
			L12.25,19.948z"/>
		<path fill="#A3B3BA" d="M15.273,21.711c1.428,0,2.699,1.115,2.699,3.07c0,1.931-1.271,3.046-2.699,3.046
			c-1.426,0-2.697-1.115-2.697-3.046C12.576,22.826,13.848,21.711,15.273,21.711z M15.273,27.012c1.008,0,1.68-0.899,1.68-2.23
			c0-1.344-0.672-2.255-1.68-2.255c-0.994,0-1.678,0.911-1.678,2.255C13.596,26.112,14.279,27.012,15.273,27.012z"/>
	</g>
</g>
</svg>
