<?xml version="1.0" encoding="utf-8"?>
<!-- Generator: Adobe Illustrator 16.0.0, SVG Export Plug-In . SVG Version: 6.00 Build 0)  -->
<!DOCTYPE svg PUBLIC "-//W3C//DTD SVG 1.0//EN" "http://www.w3.org/TR/2001/REC-SVG-20010904/DTD/svg10.dtd">
<svg version="1.0" id="Layer_1" xmlns="http://www.w3.org/2000/svg" xmlns:xlink="http://www.w3.org/1999/xlink" x="0px" y="0px"
	 width="10px" height="10px" viewBox="0 0 10 10" enable-background="new 0 0 10 10" xml:space="preserve">
<g>
	<path fill="#00B8C7" d="M5,0C2.237,0,0,2.239,0,5c0,2.762,2.237,5,5,5c2.761,0,5-2.238,5-5C10,2.239,7.761,0,5,0 M5.67,8H4.328
		V6.684H5.67V8z M7.021,4.076C6.949,4.253,6.861,4.404,6.756,4.529C6.65,4.655,6.533,4.762,6.405,4.85S6.156,5.025,6.042,5.115
		C5.928,5.203,5.826,5.305,5.738,5.418C5.649,5.533,5.595,5.676,5.571,5.846V6H4.416V5.787C4.435,5.541,4.481,5.336,4.559,5.17
		c0.077-0.164,0.167-0.306,0.27-0.423c0.103-0.116,0.21-0.218,0.324-0.303c0.114-0.086,0.22-0.172,0.316-0.257
		c0.097-0.086,0.176-0.179,0.235-0.282S5.792,3.674,5.785,3.52c0-0.262-0.064-0.456-0.192-0.581
		C5.465,2.813,5.286,2.751,5.059,2.751c-0.154,0-0.286,0.03-0.396,0.089C4.549,2.9,4.459,2.98,4.388,3.08S4.264,3.297,4.229,3.43
		C4.195,3.564,4.178,3.708,4.178,3.862H2.92c0.007-0.307,0.06-0.59,0.16-0.847c0.099-0.256,0.238-0.478,0.418-0.666
		c0.18-0.189,0.396-0.335,0.65-0.44C4.401,1.803,4.686,1.75,5,1.75c0.403,0,0.741,0.056,1.012,0.167
		c0.271,0.111,0.489,0.249,0.655,0.415c0.164,0.165,0.282,0.343,0.354,0.534S7.128,3.235,7.128,3.4
		C7.128,3.674,7.092,3.899,7.021,4.076"/>
</g>
</svg>
