<?xml version="1.0" encoding="utf-8"?>
<!-- Generator: Adobe Illustrator 16.0.0, SVG Export Plug-In . SVG Version: 6.00 Build 0)  -->
<!DOCTYPE svg PUBLIC "-//W3C//DTD SVG 1.1//EN" "http://www.w3.org/Graphics/SVG/1.1/DTD/svg11.dtd">
<svg version="1.1" id="Layer_1" xmlns="http://www.w3.org/2000/svg" xmlns:xlink="http://www.w3.org/1999/xlink" x="0px" y="0px"
	 width="26px" height="26px" viewBox="0 0 26 26" enable-background="new 0 0 26 26" xml:space="preserve">
<g>
	<g>
		<g>
			<path fill="#CCCCCC" d="M13,24C6.935,24,2,19.064,2,13C2,6.933,6.935,2,13,2c6.064,0,11,4.933,11,11C24,19.064,19.064,24,13,24z"
				/>
		</g>
	</g>
	<g>
		<path fill="#FFFFFF" d="M13.089,15.698c0.015,0,0.028,0,0.043-0.001c0.399-0.021,0.71-0.314,0.793-0.688
			c0.007-0.019,0.026-0.025,0.03-0.046L15.9,4.774c0.035-0.178-0.075-0.352-0.252-0.395c-0.027-0.007-0.059-0.011-0.086-0.011
			c-0.146,0-0.278,0.099-0.32,0.244l-2.989,9.92c-0.004,0.013,0.008,0.024,0.004,0.036c-0.027,0.097-0.048,0.193-0.043,0.298
			C12.238,15.336,12.625,15.698,13.089,15.698z"/>
		<g>
			<path fill="#FFFFFF" d="M17.561,6.179l-0.263,1.377c1.562,1.258,2.562,3.183,2.562,5.339c0,1.375-0.403,2.703-1.168,3.833
				l1.045,0.707c0.906-1.343,1.387-2.912,1.387-4.541C21.122,10.106,19.708,7.642,17.561,6.179z"/>
			<path fill="#FFFFFF" d="M12.834,6.043l0.379-1.26C13.142,4.781,13.071,4.772,13,4.772c-4.479,0-8.122,3.644-8.122,8.122
				c0,1.491,0.408,2.949,1.18,4.217l1.077-0.656c-0.65-1.069-0.994-2.301-0.994-3.561C6.141,9.167,9.128,6.132,12.834,6.043z"/>
		</g>
	</g>
</g>
</svg>
