<?xml version="1.0" encoding="utf-8"?>
<!-- Generator: Adobe Illustrator 19.0.0, SVG Export Plug-In . SVG Version: 6.00 Build 0)  -->
<svg version="1.0" id="Capa_1" xmlns="http://www.w3.org/2000/svg" xmlns:xlink="http://www.w3.org/1999/xlink" x="0px" y="0px"
	 viewBox="0 0 20 20" style="enable-background:new 0 0 20 20;" xml:space="preserve">
<style type="text/css">
	.st0{fill:#FFFFFF;}
</style>
<g id="XMLID_16_">
	<path id="XMLID_8_" class="st0" d="M10,1c0.3,0,0.5,0.2,0.5,0.5v0.2v0.8l0.7,0.2c2.1,0.6,3.6,2.6,3.9,5.1l0.8,5.4
		c0.2,1.2,0.8,2.2,1.7,2.8H2.4c0.9-0.6,1.5-1.6,1.7-2.8l0.8-5.4c0.2-2.5,1.8-4.5,3.9-5.1l0.7-0.2V1.7V1.5C9.5,1.2,9.7,1,10,1 M10,0
		C9.2,0,8.5,0.7,8.5,1.5v0.2C5.9,2.4,4.1,4.8,3.8,7.7l-0.8,5.4c-0.2,1.3-1,2.4-2.3,2.4c-0.4,0-0.8,0.3-0.8,0.8C0,16.7,0.3,17,0.8,17
		h18.5c0.4,0,0.8-0.3,0.8-0.8c0-0.4-0.3-0.8-0.8-0.8c-1.3,0-2.2-1.1-2.3-2.4l-0.8-5.4c-0.3-2.9-2-5.3-4.6-5.9V1.5
		C11.5,0.7,10.8,0,10,0L10,0z"/>
	<path id="XMLID_9_" class="st0" d="M12,18H8v0.5C8,19.3,8.7,20,9.5,20h0.9c0.8,0,1.5-0.7,1.5-1.5V18L12,18z"/>
</g>
</svg>
