<?xml version="1.0" encoding="utf-8"?>
<!-- Generator: Adobe Illustrator 16.0.0, SVG Export Plug-In . SVG Version: 6.00 Build 0)  -->
<!DOCTYPE svg PUBLIC "-//W3C//DTD SVG 1.0//EN" "http://www.w3.org/TR/2001/REC-SVG-20010904/DTD/svg10.dtd">
<svg version="1.0" id="Layer_1" xmlns="http://www.w3.org/2000/svg" xmlns:xlink="http://www.w3.org/1999/xlink" x="0px" y="0px"
	 width="14px" height="14px" viewBox="0 0 14 14" enable-background="new 0 0 14 14" xml:space="preserve">
<g>
	<g>
		<path fill="#00B8C7" d="M7,0.999c-2.209,0-4.209,0.896-5.657,2.342L2.76,4.757C3.846,3.671,5.346,2.999,7,2.999
			c1.654,0,3.154,0.672,4.24,1.758l1.417-1.416C11.209,1.895,9.209,0.999,7,0.999"/>
		<path fill="#00818C" d="M7,4.999c-2.209,0-4,1.791-4,3.999V9c0,2.209,1.791,4,4,4s4-1.791,4-4V8.998C11,6.79,9.209,4.999,7,4.999
			 M6.999,11c-1.105,0-2.001-0.896-2.001-2.002c0-1.104,0.896-2.001,2.001-2.001C8.104,6.997,9,7.894,9,8.998
			C9,10.104,8.104,11,6.999,11"/>
		<path fill="#1A5A6E" d="M7,12.998c2.209,0,4-1.79,4-4c0-2.209-1.791-3.999-4-3.999s-4,1.79-4,3.999
			C3,11.208,4.791,12.998,7,12.998 M7.001,6.997c1.105,0,2.001,0.896,2.001,2.001C9.002,10.104,8.106,11,7.001,11
			C5.895,11,5,10.104,5,8.998C5,7.894,5.895,6.997,7.001,6.997"/>
	</g>
</g>
</svg>
