<?xml version="1.0" encoding="utf-8"?>
<!-- Generator: Adobe Illustrator 16.0.0, SVG Export Plug-In . SVG Version: 6.00 Build 0)  -->
<!DOCTYPE svg PUBLIC "-//W3C//DTD SVG 1.0//EN" "http://www.w3.org/TR/2001/REC-SVG-20010904/DTD/svg10.dtd">
<svg version="1.0" id="Layer_1" xmlns="http://www.w3.org/2000/svg" xmlns:xlink="http://www.w3.org/1999/xlink" x="0px" y="0px"
	 width="26px" height="26px" viewBox="0 0 26 26" enable-background="new 0 0 26 26" xml:space="preserve">
<g>
	<g>
		<path fill="#003146" d="M8,5C7.447,5,7,5.448,7,6v0.999h2V6C9,5.448,8.553,5,8,5"/>
		<path fill="#003146" d="M18,5c-0.553,0-1,0.448-1,1v0.999h2V6C19,5.448,18.553,5,18,5"/>
		<path fill="#003146" d="M20,7h-1v1c0,0.552-0.447,1-1,1s-1-0.448-1-1V7H9v1c0,0.552-0.447,1-1,1S7,8.552,7,8V7H6
			C5.447,7,5,7.448,5,8v12c0,0.552,0.447,1,1,1h14c0.553,0,1-0.448,1-1V8C21,7.448,20.553,7,20,7 M19,19H7v-7h12V19z"/>
	</g>
	<path fill="#829AA4" d="M13,18H9c-0.55,0-1-0.45-1-1v-3c0-0.55,0.45-1,1-1h4c0.55,0,1,0.45,1,1v3C14,17.55,13.55,18,13,18"/>
	<path fill="#829AA4" d="M16,18h1c0.55,0,1-0.45,1-1v-3c0-0.55-0.45-1-1-1h-1c-0.55,0-1,0.45-1,1v3C15,17.55,15.45,18,16,18"/>
</g>
</svg>
