<?xml version="1.0" encoding="utf-8"?>
<!-- Generator: Adobe Illustrator 16.0.0, SVG Export Plug-In . SVG Version: 6.00 Build 0)  -->
<!DOCTYPE svg PUBLIC "-//W3C//DTD SVG 1.1//EN" "http://www.w3.org/Graphics/SVG/1.1/DTD/svg11.dtd">
<svg version="1.1" id="Layer_1" xmlns="http://www.w3.org/2000/svg" xmlns:xlink="http://www.w3.org/1999/xlink" x="0px" y="0px"
	 width="20px" height="20px" viewBox="0 0 20 20" enable-background="new 0 0 20 20" xml:space="preserve">
<g id="CZzdYT.tif">
	<g>
		<path fill="#FF3300" d="M13.998,20C11.332,20,8.666,20,6,20c-0.905-0.388-1.296-1.057-1.381-2.058
			C4.384,15.157,4.051,12.38,3.763,9.6C3.618,8.199,3.486,6.796,3.347,5.383c4.474,0,8.88,0,13.289,0
			c0,0.133,0.008,0.222-0.001,0.31c-0.425,4.082-0.88,8.161-1.257,12.248C15.285,18.943,14.895,19.605,13.998,20z M9.333,12.336
			c0,1.577,0.007,3.154-0.004,4.731c-0.003,0.474,0.104,0.895,0.636,0.913c0.577,0.02,0.705-0.412,0.704-0.915
			c-0.005-3.154-0.005-6.309,0-9.463C10.669,7.1,10.537,6.672,9.961,6.69C9.42,6.708,9.326,7.135,9.329,7.604
			C9.338,9.182,9.333,10.759,9.333,12.336z M6.328,12.25c0.003,0,0.005,0,0.008,0c0.021,0.377,0.04,0.754,0.064,1.13
			c0.087,1.306,0.145,2.616,0.294,3.916c0.029,0.254,0.389,0.625,0.641,0.666c0.422,0.067,0.663-0.278,0.66-0.727
			c-0.001-0.133-0.011-0.266-0.02-0.399c-0.212-3.1-0.43-6.199-0.633-9.299c-0.031-0.48-0.176-0.871-0.71-0.846
			C6.096,6.715,5.974,7.12,6.008,7.6C6.12,9.15,6.222,10.7,6.328,12.25z M13.975,7.704c0.073-0.479-0.006-0.928-0.571-1.01
			c-0.486-0.07-0.71,0.255-0.742,0.729c-0.217,3.233-0.438,6.466-0.66,9.699c-0.032,0.463,0.131,0.827,0.616,0.86
			c0.484,0.033,0.686-0.298,0.717-0.768C13.543,14.047,13.76,10.881,13.975,7.704z"/>
		<path fill-rule="evenodd" clip-rule="evenodd" fill="#FF3300" d="M17.33,4.006c-0.336,0.506-0.797,0.68-1.411,0.677
			C11.965,4.662,8.011,4.672,4.057,4.672c-0.111,0-0.223,0.005-0.333-0.002c-0.607-0.043-1.049-0.46-1.052-0.99
			C2.667,3.148,3.098,2.701,3.713,2.683c0.952-0.027,1.906-0.007,2.954-0.007c0-0.469-0.009-0.904,0.002-1.338
			c0.023-0.904,0.412-1.315,1.303-1.326c1.377-0.017,2.755-0.016,4.132,0c0.869,0.01,1.198,0.351,1.224,1.224
			c0.013,0.443,0.002,0.887,0.002,1.438c0.875,0,1.731,0.027,2.585-0.009c0.612-0.026,1.078,0.166,1.414,0.675
			C17.33,3.562,17.33,3.784,17.33,4.006z M11.955,2.64c0-0.446,0-0.851,0-1.252c-1.337,0-2.631,0-3.924,0c0,0.438,0,0.83,0,1.252
			C9.338,2.64,10.616,2.64,11.955,2.64z"/>
	</g>
</g>
</svg>
