<?xml version="1.0" encoding="utf-8"?>
<!-- Generator: Adobe Illustrator 16.0.0, SVG Export Plug-In . SVG Version: 6.00 Build 0)  -->
<!DOCTYPE svg PUBLIC "-//W3C//DTD SVG 1.0//EN" "http://www.w3.org/TR/2001/REC-SVG-20010904/DTD/svg10.dtd">
<svg version="1.0" id="Layer_1" xmlns="http://www.w3.org/2000/svg" xmlns:xlink="http://www.w3.org/1999/xlink" x="0px" y="0px"
	 width="18px" height="18px" viewBox="0 0 18 18" enable-background="new 0 0 18 18" xml:space="preserve">
<path fill="#FFFFFF" d="M16.707,15.293l-4.82-4.82C12.585,9.492,13,8.295,13,7c0-3.313-2.687-6-6-6S1,3.687,1,7s2.687,6,6,6
	c1.295,0,2.492-0.415,3.473-1.113l4.82,4.82L16.707,15.293z M3,7c0-2.206,1.795-4,4-4s4,1.794,4,4c0,2.205-1.795,4-4,4S3,9.205,3,7z
	"/>
</svg>
