<?xml version="1.0" encoding="utf-8"?>
<!-- Generator: Adobe Illustrator 16.0.0, SVG Export Plug-In . SVG Version: 6.00 Build 0)  -->
<!DOCTYPE svg PUBLIC "-//W3C//DTD SVG 1.0//EN" "http://www.w3.org/TR/2001/REC-SVG-20010904/DTD/svg10.dtd">
<svg version="1.0" id="Layer_1" xmlns="http://www.w3.org/2000/svg" xmlns:xlink="http://www.w3.org/1999/xlink" x="0px" y="0px"
	 width="18px" height="18px" viewBox="0 0 18 18" enable-background="new 0 0 18 18" xml:space="preserve">
<g>
	<g>
		<path fill="#FFFFFF" d="M10.5,13h-7C3.224,13,3,12.776,3,12.5S3.224,12,3.5,12h7c0.275,0,0.5,0.224,0.5,0.5S10.775,13,10.5,13"/>
		<path fill="#FFFFFF" d="M10.5,11h-7C3.224,11,3,10.776,3,10.5S3.224,10,3.5,10h7c0.275,0,0.5,0.224,0.5,0.5S10.775,11,10.5,11"/>
		<path fill="#FFFFFF" d="M10.5,15h-7C3.224,15,3,14.776,3,14.5S3.224,14,3.5,14h7c0.275,0,0.5,0.224,0.5,0.5S10.775,15,10.5,15"/>
		<path fill="#FFFFFF" d="M9.998,1C7.007,1,4.398,2.611,3,5c1.398,2.389,4.007,4,6.998,4C12.992,9,15.6,7.389,17,5
			C15.6,2.611,12.992,1,9.998,1 M10,8C8.344,8,7,6.657,7,5s1.344-3,3-3s3,1.343,3,3S11.656,8,10,8"/>
		<path fill="#FFFFFF" d="M10,4C9.448,4,9,4.449,9,5s0.448,1,1,1s1-0.449,1-1S10.552,4,10,4"/>
		<path fill="#FFFFFF" d="M12,9.76v6.239H2v-11C2,4.825,2.046,4.65,2.137,4.494c0.102-0.173,0.224-0.33,0.336-0.495H2
			c-0.55,0-1,0.45-1,1v11c0,0.551,0.45,1,1,1h10c0.55,0,1-0.449,1-1V9.471C12.673,9.585,12.34,9.683,12,9.76"/>
		<path fill="#FFFFFF" d="M4.318,8H3.5C3.224,8,3,8.224,3,8.5S3.224,9,3.5,9h2.392C5.335,8.719,4.807,8.388,4.318,8"/>
	</g>
</g>
</svg>
