<?xml version="1.0" encoding="utf-8"?>
<!-- Generator: Adobe Illustrator 19.0.0, SVG Export Plug-In . SVG Version: 6.00 Build 0)  -->
<svg version="1.0" id="Capa_1" xmlns="http://www.w3.org/2000/svg" xmlns:xlink="http://www.w3.org/1999/xlink" x="0px" y="0px"
	 viewBox="0 0 32 32" style="enable-background:new 0 0 32 32;" xml:space="preserve">
<style type="text/css">
	.st0{fill:#00D5E7;}
</style>
<g id="XMLID_1_">
	<path id="XMLID_7_" class="st0" d="M16,6c-2.7,0-4.5,2.3-4.5,5l1.2,4.7c0.5,1.4,0.9,2.3,2.2,2.3h2.2c1.3,0,1.7-0.9,2.2-2.3l1.2-4.7
		C20.5,8.3,18.7,6,16,6z M18.4,15.4c-0.5,1.5-0.7,1.6-1.3,1.6h-2.2c-0.5,0-0.8-0.1-1.3-1.6l-1.1-4.6C12.5,9,13.8,7,16,7
		c2.2,0,3.5,2,3.5,3.9L18.4,15.4z"/>
	<path id="XMLID_16_" class="st0" d="M16,0C7.2,0,0,7.2,0,16c0,8.8,7.2,16,16,16s16-7.2,16-16C32,7.2,24.8,0,16,0z M25,28
		c-2.5,1.9-5.6,3-9,3c-3.4,0-6.5-1.1-9-3l0-1.6c0-4,1.8-5.7,6.1-6.2C14,20.7,15,21,16,21c1,0,2-0.3,2.9-0.9c4.3,0.5,6.1,2.2,6.1,5.9
		V28z M26,27.1V26h0c0-5-3.1-6.5-7.4-6.9C17.9,19.7,17,20,16,20c-1,0-1.9-0.3-2.6-0.9C9.1,19.5,6,21,6,26h0v1.1
		C2.9,24.4,1,20.4,1,16C1,7.7,7.7,1,16,1c8.3,0,15,6.7,15,15C31,20.4,29.1,24.4,26,27.1z"/>
</g>
</svg>
