<?xml version="1.0" encoding="utf-8"?>
<!-- Generator: Adobe Illustrator 16.0.0, SVG Export Plug-In . SVG Version: 6.00 Build 0)  -->
<!DOCTYPE svg PUBLIC "-//W3C//DTD SVG 1.0//EN" "http://www.w3.org/TR/2001/REC-SVG-20010904/DTD/svg10.dtd">
<svg version="1.0" id="Layer_1" xmlns="http://www.w3.org/2000/svg" xmlns:xlink="http://www.w3.org/1999/xlink" x="0px" y="0px"
	 width="16px" height="16px" viewBox="0 0 16 16" enable-background="new 0 0 16 16" xml:space="preserve">
<g>
	<g>
		<circle fill="#A6C2DB" cx="5" cy="8" r="5"/>
		<path fill="#5389BA" d="M5,4c2.206,0,3.999,1.794,3.999,4c0,2.205-1.793,4-3.999,4c-2.206,0-4-1.795-4-4C1,5.794,2.794,4,5,4 M5,3
			C2.239,3,0,5.239,0,8c0,2.762,2.239,5,5,5c2.761,0,4.999-2.238,4.999-5C9.999,5.239,7.761,3,5,3L5,3z"/>
	</g>
	<g>
		<circle fill="#A6C2DB" cx="13.5" cy="10.5" r="2.5"/>
		<path fill="#5389BA" d="M13.5,9c0.826,0,1.5,0.673,1.5,1.5S14.326,12,13.5,12c-0.828,0-1.502-0.673-1.502-1.5S12.672,9,13.5,9
			 M13.5,8c-1.383,0-2.501,1.119-2.501,2.5S12.117,13,13.5,13c1.379,0,2.5-1.119,2.5-2.5S14.879,8,13.5,8L13.5,8z"/>
	</g>
</g>
</svg>
