<?xml version="1.0" encoding="utf-8"?>
<!-- Generator: Adobe Illustrator 16.0.0, SVG Export Plug-In . SVG Version: 6.00 Build 0)  -->
<!DOCTYPE svg PUBLIC "-//W3C//DTD SVG 1.0//EN" "http://www.w3.org/TR/2001/REC-SVG-20010904/DTD/svg10.dtd">
<svg version="1.0" id="Layer_1" xmlns="http://www.w3.org/2000/svg" xmlns:xlink="http://www.w3.org/1999/xlink" x="0px" y="0px"
	 width="24px" height="24px" viewBox="0 0 24 24" enable-background="new 0 0 24 24" xml:space="preserve">
<g>
	<path fill="#55555D" d="M17,6H7C6.447,6,6,6.448,6,7v10c0,0.553,0.447,1,1,1h10c0.553,0,1-0.447,1-1V7C18,6.448,17.553,6,17,6z
		 M17,11h-2v2h2v4h-4v-2h-2v2H7v-4h2v-2H7V7h4v2h2V7h4V11z"/>
	<rect x="11" y="11" fill="#55555D" width="2" height="2"/>
</g>
</svg>
