<?xml version="1.0" encoding="utf-8"?>
<!-- Generator: Adobe Illustrator 16.0.0, SVG Export Plug-In . SVG Version: 6.00 Build 0)  -->
<!DOCTYPE svg PUBLIC "-//W3C//DTD SVG 1.0//EN" "http://www.w3.org/TR/2001/REC-SVG-20010904/DTD/svg10.dtd">
<svg version="1.0" id="Layer_1" xmlns="http://www.w3.org/2000/svg" xmlns:xlink="http://www.w3.org/1999/xlink" x="0px" y="0px"
	 width="16px" height="16px" viewBox="0 0 16 16" enable-background="new 0 0 16 16" xml:space="preserve">
<path fill="#FFFFFF" d="M11,5L11,5L11,5V3.278C11.596,3.625,12,4.262,12,5v2.999h-1V5z M4,5c0-0.739,0.405-1.377,1.001-1.723v1.718
	C5.001,4.997,5,4.998,5,5v2.999H4V5z M6,12c0,0.553-0.447,1-1,1H3c-0.553,0-1-0.447-1-1v-2c0-0.553,0.447-1,1-1h2
	c0.553,0,1,0.447,1,1V12z M9.001,11h-2v-1h2V11z M9,5H7C6.447,5,6,4.552,6,4V2c0-0.552,0.447-1,1-1h2c0.553,0,1,0.448,1,1v2
	C10,4.552,9.553,5,9,5z M14,12c0,0.553-0.447,1-1,1h-2c-0.553,0-1-0.447-1-1v-2c0-0.553,0.447-1,1-1h2c0.553,0,1,0.447,1,1V12z"/>
</svg>
