<?xml version="1.0" encoding="utf-8"?>
<!-- Generator: Adobe Illustrator 16.0.0, SVG Export Plug-In . SVG Version: 6.00 Build 0)  -->
<!DOCTYPE svg PUBLIC "-//W3C//DTD SVG 1.0//EN" "http://www.w3.org/TR/2001/REC-SVG-20010904/DTD/svg10.dtd">
<svg version="1.0" id="Layer_1" xmlns="http://www.w3.org/2000/svg" xmlns:xlink="http://www.w3.org/1999/xlink" x="0px" y="0px"
	 width="16px" height="16px" viewBox="0 0 16 16" enable-background="new 0 0 16 16" xml:space="preserve">
<path fill="#00475D" d="M12.242,2.758C11.157,1.672,9.657,1,8,1C6.344,1,4.844,1.672,3.756,2.758C2.671,3.843,2,5.343,2,7
	s0.671,3.157,1.756,4.242C6.298,13.984,8,16,8,16s1.701-2.016,4.242-4.758C13.328,10.157,14,8.657,14,7S13.328,3.843,12.242,2.758
	 M8,9C6.895,9,6,8.105,6,7s0.895-2,2-2s2,0.895,2,2S9.105,9,8,9"/>
</svg>
