<?xml version="1.0" encoding="utf-8"?>
<!-- Generator: Adobe Illustrator 16.0.0, SVG Export Plug-In . SVG Version: 6.00 Build 0)  -->
<!DOCTYPE svg PUBLIC "-//W3C//DTD SVG 1.0//EN" "http://www.w3.org/TR/2001/REC-SVG-20010904/DTD/svg10.dtd">
<svg version="1.0" id="Layer_1" xmlns="http://www.w3.org/2000/svg" xmlns:xlink="http://www.w3.org/1999/xlink" x="0px" y="0px"
	 width="18px" height="18px" viewBox="0 0 18 18" enable-background="new 0 0 18 18" xml:space="preserve">
<circle fill="#CCCCCE" cx="9" cy="9" r="5.5"/>
<g>
	<path fill="#003146" d="M9,3C5.687,3,3,5.686,3,9c0,3.313,2.687,6,6,6c3.314,0,6-2.687,6-6C15,5.686,12.314,3,9,3 M4,9
		c0-1.116,0.38-2.137,1-2.969V8c0,0,0,1,1,1s1,1,1,1c1,0,1,1,1,1v1c0,0,0,1,1,1v1C6.243,14,4,11.757,4,9 M10.171,13.847
		C10.307,13.403,10.551,13,11,13c0,0,1,0,1-1v-1c0,0-1,0-1-1H9c-1,0-1-1-1-1C7,9,7,8,7,8V7h1c0,0,1,0,1-1s1-1,1-1V4.101
		C12.279,4.566,14,6.585,14,9C14,11.352,12.361,13.317,10.171,13.847"/>
</g>
</svg>
