<?xml version="1.0" encoding="utf-8"?>
<!-- Generator: Adobe Illustrator 16.0.0, SVG Export Plug-In . SVG Version: 6.00 Build 0)  -->
<!DOCTYPE svg PUBLIC "-//W3C//DTD SVG 1.0//EN" "http://www.w3.org/TR/2001/REC-SVG-20010904/DTD/svg10.dtd">
<svg version="1.0" id="Layer_1" xmlns="http://www.w3.org/2000/svg" xmlns:xlink="http://www.w3.org/1999/xlink" x="0px" y="0px"
	 width="18px" height="18px" viewBox="0 0 18 18" enable-background="new 0 0 18 18" xml:space="preserve">
<g>
	<polygon fill="#00B8C7" points="15,9 15,10 16,10 16,12 15,12 15,13 16,13 16,15 15,15 15,17 17,17 17,13 17,12 17,9 	"/>
	<g>
		<polygon fill="#00B8C7" points="3,15 2,15 2,13 3,13 3,12 2,12 2,10 3,10 3,9 2,9 2,7.781 3,7.531 3,6.5 1,7 1,17 3,17 		"/>
		<path fill="#00B8C7" d="M9,1L4,3c0,4.667,0,9.333,0,14h10c0-4.667,0-9.333,0-14L9,1z M7,15H5v-2h2V15z M7,12H5v-2h2V12z M7,9H5V7
			h2V9z M7,6H5V4h2V6z M10,15H8v-2h2V15z M10,12H8v-2h2V12z M10,9H8V7h2V9z M10,6H8V4h2V6z M13,15h-2v-2h2V15z M13,12h-2v-2h2V12z
			 M13,9h-2V7h2V9z M13,6h-2V4h2V6z"/>
	</g>
</g>
</svg>
