<?xml version="1.0" encoding="utf-8"?>
<!-- Generator: Adobe Illustrator 16.0.0, SVG Export Plug-In . SVG Version: 6.00 Build 0)  -->
<!DOCTYPE svg PUBLIC "-//W3C//DTD SVG 1.1//EN" "http://www.w3.org/Graphics/SVG/1.1/DTD/svg11.dtd">
<svg version="1.1" id="Layer_1" xmlns="http://www.w3.org/2000/svg" xmlns:xlink="http://www.w3.org/1999/xlink" x="0px" y="0px"
	 width="26px" height="26px" viewBox="0 0 26 26" enable-background="new 0 0 26 26" xml:space="preserve">
<circle fill="#00B8B7" cx="13" cy="13" r="11"/>
<g>
	<g>
		<path fill="#FFFFFF" d="M11.715,14.297c0.714,0.719,1.876,0.719,2.59,0c0.715-0.713,0.715-1.873,0-2.588
			c-0.713-0.715-1.876-0.715-2.59,0C11,12.424,11,13.584,11.715,14.297L11.715,14.297z"/>
	</g>
	<path fill="#FFFFFF" d="M10.204,15.808c-0.75-0.746-1.162-1.742-1.162-2.802s0.413-2.057,1.162-2.807
		c0.115-0.115,0.181-0.268,0.181-0.429c0-0.164-0.064-0.317-0.181-0.432c-0.115-0.114-0.267-0.178-0.431-0.178
		c-0.162,0-0.314,0.064-0.43,0.178c-0.979,0.979-1.519,2.281-1.519,3.668c0,1.381,0.54,2.686,1.519,3.663
		c0.229,0.234,0.631,0.234,0.862,0C10.442,16.434,10.442,16.045,10.204,15.808z"/>
	<path fill="#FFFFFF" d="M8.812,18.734c0-0.161-0.064-0.314-0.179-0.431c-1.416-1.412-2.197-3.296-2.197-5.3
		c0-2.001,0.781-3.885,2.195-5.301c0.115-0.116,0.181-0.269,0.181-0.43S8.748,6.955,8.631,6.84C8.518,6.726,8.366,6.663,8.204,6.663
		c-0.164,0-0.316,0.063-0.432,0.177c-1.647,1.647-2.553,3.836-2.553,6.163c0,2.328,0.906,4.516,2.553,6.165
		c0.229,0.229,0.629,0.229,0.859,0C8.749,19.051,8.812,18.896,8.812,18.734z"/>
	<path fill="#FFFFFF" d="M15.796,10.194c0.747,0.748,1.161,1.743,1.161,2.804c0,1.057-0.414,2.055-1.163,2.804
		c-0.115,0.116-0.18,0.268-0.18,0.432c0,0.162,0.063,0.314,0.18,0.43c0.116,0.115,0.271,0.178,0.431,0.178
		c0.164,0,0.314-0.062,0.432-0.178c0.979-0.979,1.521-2.281,1.521-3.667c0-1.385-0.543-2.686-1.521-3.666
		c-0.229-0.232-0.631-0.232-0.862,0C15.558,9.568,15.558,9.956,15.796,10.194z"/>
	<path fill="#FFFFFF" d="M17.187,7.266c0,0.163,0.063,0.316,0.179,0.43c1.419,1.415,2.197,3.298,2.197,5.301
		c0,2.002-0.778,3.887-2.197,5.3c-0.115,0.115-0.179,0.268-0.179,0.429c0,0.164,0.064,0.318,0.18,0.432
		c0.115,0.116,0.267,0.18,0.431,0.18c0.162,0,0.313-0.063,0.43-0.181c1.644-1.643,2.554-3.833,2.554-6.16
		c0-2.328-0.908-4.518-2.554-6.164c-0.23-0.23-0.632-0.23-0.862,0C17.25,6.951,17.187,7.103,17.187,7.266z"/>
</g>
</svg>
