<?xml version="1.0" encoding="utf-8"?>
<!-- Generator: Adobe Illustrator 16.0.0, SVG Export Plug-In . SVG Version: 6.00 Build 0)  -->
<!DOCTYPE svg PUBLIC "-//W3C//DTD SVG 1.0//EN" "http://www.w3.org/TR/2001/REC-SVG-20010904/DTD/svg10.dtd">
<svg version="1.0" id="Layer_1" xmlns="http://www.w3.org/2000/svg" xmlns:xlink="http://www.w3.org/1999/xlink" x="0px" y="0px"
	 width="22px" height="22px" viewBox="0 0 22 22" enable-background="new 0 0 22 22" xml:space="preserve">
<g>
	<path fill="#00B8C7" d="M12.816,10C12.928,10.314,13,10.647,13,11c0,1.654-1.346,3-3,3H6c-1.654,0-3-1.346-3-3
		c0-1.541,1.172-2.8,2.669-2.967C6.027,7.271,6.515,6.582,7.11,6H6c-2.761,0-5,2.238-5,5s2.239,5,5,5h4c2.762,0,5-2.238,5-5
		c0-0.343-0.035-0.677-0.101-1H12.816z"/>
	<path fill="#00B8C7" d="M9.184,12C9.072,11.686,9,11.353,9,11c0-1.654,1.346-3,3-3h4c1.654,0,3,1.346,3,3
		c0,1.541-1.172,2.8-2.669,2.967c-0.358,0.762-0.847,1.451-1.441,2.033H16c2.762,0,5-2.238,5-5s-2.238-5-5-5h-4
		c-2.761,0-5,2.238-5,5c0,0.343,0.035,0.677,0.101,1H9.184z"/>
</g>
</svg>
