<?xml version="1.0" encoding="utf-8"?>
<!-- Generator: Adobe Illustrator 16.0.0, SVG Export Plug-In . SVG Version: 6.00 Build 0)  -->
<!DOCTYPE svg PUBLIC "-//W3C//DTD SVG 1.0//EN" "http://www.w3.org/TR/2001/REC-SVG-20010904/DTD/svg10.dtd">
<svg version="1.0" id="Layer_1" xmlns="http://www.w3.org/2000/svg" xmlns:xlink="http://www.w3.org/1999/xlink" x="0px" y="0px"
	 width="14px" height="14px" viewBox="0 0 14 14" enable-background="new 0 0 14 14" xml:space="preserve">
<g>
	<path fill="#27272E" d="M6,10.5c-0.017,0-0.034-0.001-0.052-0.003c-0.185-0.019-0.344-0.139-0.413-0.312L3.817,5.89L2.354,7.354
		C2.26,7.447,2.133,7.5,2,7.5H1.5C1.224,7.5,1,7.276,1,7s0.224-0.5,0.5-0.5h0.293l1.854-1.854C3.765,4.527,3.934,4.476,4.101,4.51
		c0.165,0.034,0.301,0.148,0.364,0.304l1.647,4.117l1.473-2.209c0.153-0.23,0.466-0.291,0.693-0.139
		c0.229,0.153,0.292,0.463,0.139,0.693l-2,3C6.323,10.417,6.166,10.5,6,10.5z"/>
	<path fill="#27272E" d="M10,7c0,0.551-0.225,1.051-0.586,1.414l0.707,0.707C10.664,8.578,11,7.828,11,7s-0.336-1.578-0.879-2.121
		L9.414,5.586C9.775,5.949,10,6.449,10,7z"/>
	<path fill="#27272E" d="M12,7c0,1.103-0.448,2.103-1.173,2.827l0.708,0.708C12.44,9.631,13,8.381,13,7
		c0-1.38-0.56-2.63-1.464-3.535l-0.709,0.708C11.552,4.897,12,5.897,12,7z"/>
</g>
<circle fill="#27272E" cx="8" cy="7" r="1"/>
</svg>
