<?xml version="1.0" encoding="utf-8"?>
<!-- Generator: Adobe Illustrator 16.0.0, SVG Export Plug-In . SVG Version: 6.00 Build 0)  -->
<!DOCTYPE svg PUBLIC "-//W3C//DTD SVG 1.0//EN" "http://www.w3.org/TR/2001/REC-SVG-20010904/DTD/svg10.dtd">
<svg version="1.0" id="Layer_1" xmlns="http://www.w3.org/2000/svg" xmlns:xlink="http://www.w3.org/1999/xlink" x="0px" y="0px"
	 width="50px" height="50px" viewBox="0 0 50 50" enable-background="new 0 0 50 50" xml:space="preserve">
<g>
	
		<linearGradient id="SVGID_1_" gradientUnits="userSpaceOnUse" x1="297.4385" y1="-366.5464" x2="329.4724" y2="-338.6258" gradientTransform="matrix(1 0 0 -1 -281 -320)">
		<stop  offset="0" style="stop-color:#2E2014"/>
		<stop  offset="1" style="stop-color:#2E2014;stop-opacity:0"/>
	</linearGradient>
	<path fill="url(#SVGID_1_)" d="M35.419,23.501c-9.209,0-15.986,4.128-17.419,8.999c-0.715,2.436,0.752,4.249,1.918,7.082
		c0,0,4.466,9.161,4.612,9.497C24.734,49.547,25,49.5,25,49.5c0.65,0,1.023-0.309,1.023-0.309c3.336-2.67,14.143-9.803,14.143-9.803
		c3.938-2.89,7.457-4.738,8.452-7.222C50.607,27.202,44.628,23.501,35.419,23.501z"/>
</g>
<g>
	<path fill="#00475D" d="M25,1.5C16.309,1.5,9.5,8.309,9.5,17c0,3.35,1.492,6.075,3.38,9.523c0.616,1.127,1.254,2.291,1.901,3.586
		c0.062,0.104,7.651,13.221,9.812,18.119C24.615,48.275,24.733,48.5,25,48.5c0.286,0,0.404-0.261,0.405-0.264
		c2.164-4.906,9.752-18.021,9.83-18.153c0.633-1.269,1.271-2.433,1.887-3.56c1.889-3.449,3.38-6.173,3.38-9.523
		C40.5,8.309,33.691,1.5,25,1.5z"/>
	<path fill="#FFFFFF" d="M25,3c7.852,0,14,6.149,14,14c0,2.966-1.341,5.415-3.195,8.805c-0.613,1.122-1.25,2.282-1.9,3.58
		c-0.53,0.918-6.1,10.562-8.902,16.203c-2.793-5.62-8.374-15.283-8.906-16.203c-0.65-1.298-1.285-2.458-1.899-3.58
		C12.34,22.415,11,19.966,11,17C11,9.149,17.149,3,25,3 M25,1C16.162,1,9,7.834,9,17c0,4.584,2.668,8,5.334,13.334
		c0,0,7.627,13.166,9.803,18.098c0,0,0.238,0.568,0.863,0.568s0.865-0.568,0.865-0.568c2.174-4.932,9.801-18.098,9.801-18.098
		C38.332,25,41,21.584,41,17C41,7.834,33.838,1,25,1L25,1z"/>
</g>
<circle fill="#003146" cx="25" cy="17" r="4"/>
<circle fill="#FFFFFF" cx="25" cy="17" r="3"/>
</svg>
