<?xml version="1.0" encoding="utf-8"?>
<!-- Generator: Adobe Illustrator 16.0.0, SVG Export Plug-In . SVG Version: 6.00 Build 0)  -->
<!DOCTYPE svg PUBLIC "-//W3C//DTD SVG 1.0//EN" "http://www.w3.org/TR/2001/REC-SVG-20010904/DTD/svg10.dtd">
<svg version="1.0" id="Layer_1" xmlns="http://www.w3.org/2000/svg" xmlns:xlink="http://www.w3.org/1999/xlink" x="0px" y="0px"
	 width="50px" height="50px" viewBox="0 0 50 50" enable-background="new 0 0 50 50" xml:space="preserve">
<g>
	<linearGradient id="SVGID_1_" gradientUnits="userSpaceOnUse" x1="16.4385" y1="46.5459" x2="48.4714" y2="18.6262">
		<stop  offset="0" style="stop-color:#2E2014;stop-opacity:0.6"/>
		<stop  offset="1" style="stop-color:#2E2014;stop-opacity:0"/>
	</linearGradient>
	<path fill="url(#SVGID_1_)" d="M35.419,23.501c-9.209,0-15.986,4.128-17.419,8.999c-0.715,2.435,0.752,4.249,1.918,7.082
		c0,0,4.466,9.161,4.612,9.497C24.734,49.547,25,49.5,25,49.5c0.65,0,1.024-0.309,1.024-0.309c3.336-2.67,14.142-9.803,14.142-9.803
		c3.937-2.889,7.457-4.738,8.452-7.221C50.607,27.202,44.628,23.501,35.419,23.501z"/>
</g>
<g>
	<path fill="#00475D" d="M25,1.5C16.309,1.5,9.5,8.309,9.5,17c0,3.35,1.492,6.075,3.38,9.524c0.616,1.126,1.254,2.291,1.901,3.586
		c0.062,0.104,7.651,13.22,9.813,18.119C24.615,48.275,24.733,48.5,25,48.5c0.286,0,0.404-0.261,0.405-0.263
		c2.163-4.907,9.752-18.022,9.829-18.154c0.633-1.268,1.271-2.433,1.887-3.559c1.889-3.45,3.38-6.174,3.38-9.524
		C40.5,8.309,33.691,1.5,25,1.5z"/>
	<path fill="#FFFFFF" d="M25,3c7.851,0,14,6.149,14,14c0,2.966-1.341,5.415-3.195,8.804c-0.614,1.123-1.25,2.283-1.9,3.581
		c-0.531,0.918-6.1,10.562-8.903,16.203c-2.793-5.62-8.374-15.284-8.906-16.203c-0.65-1.298-1.285-2.458-1.899-3.581
		C12.34,22.415,11,19.966,11,17C11,9.149,17.149,3,25,3 M25,1C16.162,1,9,7.834,9,17c0,4.584,2.668,8,5.334,13.334
		c0,0,7.627,13.166,9.803,18.098c0,0,0.238,0.568,0.863,0.568s0.865-0.568,0.865-0.568c2.174-4.932,9.801-18.098,9.801-18.098
		C38.332,25,41,21.584,41,17C41,7.834,33.838,1,25,1L25,1z"/>
</g>
<path fill="#003146" d="M29.293,23.414l-2.734-2.734C26.067,20.891,25.54,21,25,21c-2.206,0-4-1.794-4-4s1.794-4,4-4s4,1.794,4,4
	c0,0.54-0.109,1.067-0.32,1.559l2.734,2.734L29.293,23.414z"/>
<path fill="#FFFFFF" d="M30,21.293l-2.56-2.56C27.79,18.243,28,17.647,28,17c0-1.656-1.344-3-3-3s-3,1.344-3,3s1.344,3,3,3
	c0.647,0,1.243-0.21,1.733-0.56l2.56,2.56L30,21.293z M23,17c0-1.103,0.897-2,2-2s2,0.897,2,2s-0.897,2-2,2S23,18.103,23,17z"/>
</svg>
