<?xml version="1.0" encoding="utf-8"?>
<!-- Generator: Adobe Illustrator 16.0.0, SVG Export Plug-In . SVG Version: 6.00 Build 0)  -->
<!DOCTYPE svg PUBLIC "-//W3C//DTD SVG 1.1//EN" "http://www.w3.org/Graphics/SVG/1.1/DTD/svg11.dtd">
<svg version="1.1" id="Capa_1" xmlns="http://www.w3.org/2000/svg" xmlns:xlink="http://www.w3.org/1999/xlink" x="0px" y="0px"
	 width="60px" height="60px" viewBox="0 0 60 60" enable-background="new 0 0 60 60" xml:space="preserve">
<g>
	<g>
		<rect x="8.917" y="13.235" fill="#B7B7B7" width="6" height="22.875"/>
	</g>
	<g>
		<g>
			<polygon fill="#B7B7B7" points="3.84,33.746 11.916,47.734 19.994,33.746 			"/>
		</g>
	</g>
</g>
<g>
	<path fill="#B7B7B7" d="M56.59,41.961c0-1.027-0.832-1.859-1.857-1.859H25.201c-1.026,0-1.858,0.832-1.858,1.859v3.809
		c0,1.025,0.832,1.857,1.858,1.857h29.532c1.025,0,1.857-0.832,1.857-1.857V41.961z"/>
</g>
<g>
	<path fill="#B7B7B7" d="M48.278,28.548c0-1.026-0.832-1.859-1.858-1.859H25.201c-1.026,0-1.858,0.833-1.858,1.859v3.81
		c0,1.025,0.832,1.857,1.858,1.857H46.42c1.026,0,1.858-0.832,1.858-1.857V28.548z"/>
</g>
<g>
	<path fill="#B7B7B7" d="M39.967,15.135c0-1.026-0.833-1.858-1.859-1.858H25.201c-1.026,0-1.858,0.832-1.858,1.858v3.809
		c0,1.026,0.832,1.858,1.858,1.858h12.907c1.026,0,1.859-0.832,1.859-1.858V15.135z"/>
</g>
</svg>
