<?xml version="1.0" encoding="utf-8"?>
<!-- Generator: Adobe Illustrator 16.0.0, SVG Export Plug-In . SVG Version: 6.00 Build 0)  -->
<!DOCTYPE svg PUBLIC "-//W3C//DTD SVG 1.1//EN" "http://www.w3.org/Graphics/SVG/1.1/DTD/svg11.dtd">
<svg version="1.1" id="Layer_1" xmlns="http://www.w3.org/2000/svg" xmlns:xlink="http://www.w3.org/1999/xlink" x="0px" y="0px"
	 width="60px" height="60px" viewBox="0 0 60 60" enable-background="new 0 0 60 60" xml:space="preserve">
<g>
	<path fill="#ccccce" d="M36.428,30.003L58.673,7.737c1.77-1.775,1.77-4.649,0-6.425c-1.778-1.778-4.655-1.778-6.428,0L30,23.569
		L7.754,1.312c-1.77-1.778-4.644-1.778-6.419,0c-1.778,1.775-1.778,4.649,0,6.425l22.24,22.266L1.329,52.261
		c-1.772,1.775-1.772,4.655,0,6.425c0.891,0.891,2.051,1.336,3.214,1.336c1.16,0,2.32-0.445,3.211-1.336L30,36.428l22.245,22.258
		c0.888,0.891,2.054,1.336,3.214,1.336s2.323-0.445,3.214-1.336c1.77-1.77,1.77-4.649,0-6.425L36.428,30.003z"/>
</g>
</svg>
