<?xml version="1.0" encoding="utf-8"?>
<!-- Generator: Adobe Illustrator 16.0.0, SVG Export Plug-In . SVG Version: 6.00 Build 0)  -->
<!DOCTYPE svg PUBLIC "-//W3C//DTD SVG 1.1//EN" "http://www.w3.org/Graphics/SVG/1.1/DTD/svg11.dtd">
<svg version="1.1" id="Layer_1" xmlns="http://www.w3.org/2000/svg" xmlns:xlink="http://www.w3.org/1999/xlink" x="0px" y="0px"
	 width="60px" height="60px" viewBox="0 0 60 60" enable-background="new 0 0 60 60" xml:space="preserve">
<g>
	<g>
		<g>
			<path fill="#CECECE" d="M52.5,22.5h-45V30h45V22.5z M52.5,33.75h-45v7.501h45V33.75z M18.75,45H7.5v7.501h11.25V45z M56.25,3.751
				H52.5V0H45v3.751H15V0H7.5v3.751H3.75C1.678,3.751,0,5.432,0,7.5v48.75C0,58.323,1.678,60,3.75,60h52.5
				c2.072,0,3.75-1.677,3.75-3.75V7.5C60,5.432,58.322,3.751,56.25,3.751z M45,7.5h7.5v3.75H45V7.5z M7.5,7.5H15v3.75H7.5V7.5z
				 M56.25,56.25H3.75V18.754h52.5V56.25z"/>
		</g>
	</g>
</g>
</svg>
