<?xml version="1.0" encoding="utf-8"?>
<!-- Generator: Adobe Illustrator 16.0.0, SVG Export Plug-In . SVG Version: 6.00 Build 0)  -->
<!DOCTYPE svg PUBLIC "-//W3C//DTD SVG 1.0//EN" "http://www.w3.org/TR/2001/REC-SVG-20010904/DTD/svg10.dtd">
<svg version="1.0" id="Layer_1" xmlns="http://www.w3.org/2000/svg" xmlns:xlink="http://www.w3.org/1999/xlink" x="0px" y="0px"
	 width="64px" height="32px" viewBox="0 0 64 32" enable-background="new 0 0 64 32" xml:space="preserve">
<g>
	<g>
		<g>
			<g opacity="0.2">
				<g>
					<defs>
						<rect id="SVGID_1_" x="39.009" y="3.665" width="24.325" height="24.326"/>
					</defs>
					<clipPath id="SVGID_2_">
						<use xlink:href="#SVGID_1_"  overflow="visible"/>
					</clipPath>
					<path clip-path="url(#SVGID_2_)" fill="#808086" d="M63.334,15.828c0,6.716-5.445,12.163-12.162,12.163
						c-6.718,0-12.163-5.446-12.163-12.163S44.454,3.665,51.172,3.665C57.889,3.665,63.334,9.109,63.334,15.828"/>
				</g>
			</g>
			<path fill="#808086" d="M51.171,20.147c2.295,0,4.156-1.859,4.156-4.157c0-2.295-1.861-4.155-4.156-4.155
				c-2.294,0-4.155,1.86-4.155,4.155C47.016,18.288,48.877,20.147,51.171,20.147 M38.385,20h2.165v-6.059h2.344V12h-6.841v1.943
				h2.332V20 M27.165,15.841v-1.932h1.428c0.714,0,1.171,0.321,1.171,0.96v0.023c0,0.582-0.434,0.948-1.16,0.948H27.165z M25,20
				h2.165v-2.423h0.959L29.698,20h2.485l-1.863-2.788c0.972-0.423,1.609-1.233,1.609-2.469v-0.022c0-0.789-0.236-1.394-0.693-1.863
				C30.712,12.32,29.887,12,28.693,12H25V20z M15.52,16.835l0.882-2.263l0.869,2.263H15.52 M12.062,20h2.264l0.558-1.44h3.024
				L18.465,20h2.32l-3.323-8.059h-2.087L12.062,20z M4.902,20.16c1.719,0,2.71-0.767,3.447-1.807L6.72,17.165
				c-0.468,0.584-0.948,0.973-1.763,0.973c-1.092,0-1.862-0.938-1.862-2.138v-0.021c0-1.166,0.77-2.127,1.862-2.127
				c0.749,0,1.261,0.379,1.707,0.938l1.629-1.292c-0.69-0.972-1.718-1.657-3.313-1.657c-2.365,0-4.105,1.829-4.105,4.16v0.023
				C0.875,18.411,2.671,20.16,4.902,20.16"/>
		</g>
	</g>
</g>
</svg>
