<?xml version="1.0" encoding="utf-8"?>
<!-- Generator: Adobe Illustrator 16.0.0, SVG Export Plug-In . SVG Version: 6.00 Build 0)  -->
<!DOCTYPE svg PUBLIC "-//W3C//DTD SVG 1.0//EN" "http://www.w3.org/TR/2001/REC-SVG-20010904/DTD/svg10.dtd">
<svg version="1.0" id="Layer_1" xmlns="http://www.w3.org/2000/svg" xmlns:xlink="http://www.w3.org/1999/xlink" x="0px" y="0px"
	 width="23px" height="26px" viewBox="0 0 23 26" enable-background="new 0 0 23 26" xml:space="preserve">
<g>
	<g>
		<path fill="#82B600" d="M22.001,13c0,4.418-3.582,8-8.001,8H9.001C4.582,21,1,17.418,1,13c0-4.419,3.582-8,8.001-8H14
			C18.419,5,22.001,8.581,22.001,13"/>
		<path fill="#FFFFFF" d="M13.438,16.743C12.911,16.906,12.139,17,11.496,17c-2.328,0-4.117-1.742-4.117-4.023
			C7.379,10.685,9.11,9,11.461,9c0.55,0,1.193,0.07,1.602,0.175c0.339,0.094,0.515,0.176,0.937,0.41l-0.364,0.796
			c-0.187-0.106-0.315-0.164-0.409-0.211c-0.445-0.187-1.052-0.304-1.673-0.304c-1.088,0-1.788,0.292-2.386,0.982
			c-0.479,0.561-0.76,1.299-0.76,2.059c0,1.86,1.427,3.228,3.357,3.228c0.386,0,0.656-0.035,1.275-0.164v-2.573H14v3.158
			C13.754,16.648,13.566,16.708,13.438,16.743"/>
	</g>
</g>
</svg>
