<?xml version="1.0" encoding="utf-8"?>
<!-- Generator: Adobe Illustrator 16.0.0, SVG Export Plug-In . SVG Version: 6.00 Build 0)  -->
<!DOCTYPE svg PUBLIC "-//W3C//DTD SVG 1.0//EN" "http://www.w3.org/TR/2001/REC-SVG-20010904/DTD/svg10.dtd">
<svg version="1.0" id="Layer_1" xmlns="http://www.w3.org/2000/svg" xmlns:xlink="http://www.w3.org/1999/xlink" x="0px" y="0px"
	 width="64px" height="26px" viewBox="0 0 64 26" enable-background="new 0 0 64 26" xml:space="preserve">
<g>
	<g>
		<g opacity="0.2">
			<g>
				<path fill-rule="evenodd" clip-rule="evenodd" fill="#00475D" d="M63.334,12.828c0,6.716-5.445,12.163-12.162,12.163
					c-6.718,0-12.163-5.446-12.163-12.163c0-6.717,5.445-12.163,12.163-12.163C57.889,0.665,63.334,6.11,63.334,12.828"/>
			</g>
		</g>
		<path fill-rule="evenodd" clip-rule="evenodd" fill="#00475D" d="M51.171,17.147c2.295,0,4.156-1.859,4.156-4.157
			c0-2.294-1.861-4.155-4.156-4.155c-2.294,0-4.155,1.861-4.155,4.155C47.016,15.288,48.877,17.147,51.171,17.147 M38.385,17h2.165
			v-6.058h2.344V9h-6.841v1.943h2.332V17z M27.165,12.841v-1.932h1.428c0.714,0,1.171,0.321,1.171,0.96v0.023
			c0,0.583-0.434,0.949-1.16,0.949H27.165z M25,17h2.165v-2.423h0.959L29.698,17h2.486l-1.863-2.788
			c0.971-0.423,1.608-1.234,1.608-2.469v-0.022c0-0.789-0.235-1.394-0.693-1.864C30.712,9.321,29.887,9,28.693,9H25V17z
			 M15.52,13.835l0.882-2.263l0.869,2.263H15.52z M12.062,17h2.264l0.558-1.44h3.024L18.465,17h2.32l-3.323-8.058h-2.087L12.062,17z
			 M4.902,17.16c1.719,0,2.71-0.766,3.447-1.806L6.72,14.165c-0.468,0.584-0.948,0.973-1.763,0.973
			c-1.092,0-1.862-0.938-1.862-2.138v-0.022c0-1.166,0.77-2.126,1.862-2.126c0.749,0,1.261,0.378,1.707,0.937l1.629-1.292
			C7.603,9.525,6.575,8.84,4.98,8.84c-2.365,0-4.105,1.829-4.105,4.16v0.023C0.875,15.411,2.671,17.16,4.902,17.16"/>
	</g>
</g>
</svg>
