<?xml version="1.0" encoding="utf-8"?>
<!-- Generator: Adobe Illustrator 16.0.0, SVG Export Plug-In . SVG Version: 6.00 Build 0)  -->
<!DOCTYPE svg PUBLIC "-//W3C//DTD SVG 1.0//EN" "http://www.w3.org/TR/2001/REC-SVG-20010904/DTD/svg10.dtd">
<svg version="1.0" id="Layer_1" xmlns="http://www.w3.org/2000/svg" xmlns:xlink="http://www.w3.org/1999/xlink" x="0px" y="0px"
	 width="38px" height="26px" viewBox="0 0 38 26" enable-background="new 0 0 38 26" xml:space="preserve">
<g>
	<path fill="#00475D" d="M21,9c-0.732,0-1.41,0.212-2,0.555V5h-2v12c0,2.209,1.791,4,4,4s4-1.791,4-4v-4C25,10.792,23.209,9,21,9
		 M23,17.001c0,1.103-0.898,2-2,2s-2-0.897-2-2v-4c0-1.103,0.898-2,2-2s2,0.898,2,2V17.001z"/>
	<path fill="#00475D" d="M7,9v8c0,1.103-0.897,2-2,2s-2-0.897-2-2V9.001L0.999,9L1,17c0,2.209,1.791,4,4,4s4-1.791,4-4V9.001L7,9z"
		/>
	<path fill="#00475D" d="M13,21.001v-8c0-1.103,0.896-2,2-2v-2c-2.209,0-4,1.791-4,4v8H13z"/>
	<path fill="#00B8C7" d="M31,5c-2.209,0-4.209,0.896-5.657,2.343l1.417,1.416C27.846,7.673,29.346,7,31,7
		c1.654,0,3.154,0.673,4.24,1.759l1.417-1.416C35.209,5.896,33.209,5,31,5"/>
	<path fill="#00475D" d="M31,9c-2.209,0-4,1.791-4,4v0.001c0,2.209,1.791,4,4,4s4-1.791,4-4v-0.001C35,10.792,33.209,9,31,9
		 M30.999,15.002c-1.105,0-2.001-0.896-2.001-2.001c0-1.105,0.896-2.001,2.001-2.001C32.104,11,33,11.896,33,13.001
		C33,14.105,32.104,15.002,30.999,15.002"/>
</g>
</svg>
