<?xml version="1.0" encoding="utf-8"?>
<!-- Generator: Adobe Illustrator 16.0.0, SVG Export Plug-In . SVG Version: 6.00 Build 0)  -->
<!DOCTYPE svg PUBLIC "-//W3C//DTD SVG 1.0//EN" "http://www.w3.org/TR/2001/REC-SVG-20010904/DTD/svg10.dtd">
<svg version="1.0" id="Layer_1" xmlns="http://www.w3.org/2000/svg" xmlns:xlink="http://www.w3.org/1999/xlink" x="0px" y="0px"
	 width="108px" height="32px" viewBox="0 0 108 32" enable-background="new 0 0 108 32" xml:space="preserve">
<g>
	<g>
		<g opacity="0.2">
			<g>
				<path fill="#808086" d="M96.939,6H23.582c3.255,2.151,5.408,5.828,5.41,10c0,4.171-2.153,7.849-5.408,10h73.356
					c5.559,0,10.062-4.477,10.062-10C106.998,10.477,102.496,6,96.939,6"/>
			</g>
		</g>
		<path fill="#82B600" d="M16.931,6h-5.872C5.502,6,1,10.477,1,16c0,5.523,4.503,10,10.059,10h5.872c5.559,0,10.061-4.477,10.061-10
			C26.99,10.477,22.488,6,16.931,6"/>
		<path fill="#FFFFFF" d="M16.481,20.678C15.819,20.883,14.847,21,14.041,21c-2.928,0-5.177-2.178-5.177-5.029
			C8.864,13.104,11.041,11,13.996,11c0.691,0,1.5,0.088,2.013,0.22c0.428,0.116,0.649,0.219,1.18,0.512l-0.457,0.994
			c-0.236-0.133-0.396-0.206-0.516-0.264c-0.558-0.234-1.321-0.381-2.102-0.381c-1.368,0-2.249,0.365-3,1.229
			c-0.602,0.701-0.955,1.623-0.955,2.573c0,2.324,1.794,4.035,4.22,4.035c0.486,0,0.825-0.043,1.603-0.203v-3.217h1.207v3.947
			C16.877,20.561,16.642,20.635,16.481,20.678"/>
		<path fill="#808086" d="M39.519,19h-0.881l-0.209-0.924c-0.366,0.418-0.733,0.708-1.099,0.869
			c-0.368,0.161-0.789,0.241-1.265,0.241c-0.587,0-1.113-0.107-1.579-0.324c-0.466-0.216-0.86-0.512-1.183-0.886
			c-0.322-0.374-0.57-0.81-0.742-1.309s-0.259-1.03-0.259-1.595c0-0.557,0.087-1.086,0.259-1.584
			c0.172-0.499,0.42-0.935,0.742-1.309c0.323-0.374,0.717-0.671,1.183-0.891c0.466-0.22,0.992-0.33,1.579-0.33
			c0.425,0,0.83,0.057,1.215,0.171c0.385,0.113,0.727,0.282,1.028,0.506c0.301,0.223,0.551,0.504,0.748,0.841
			c0.198,0.337,0.323,0.726,0.374,1.166h-1.342c-0.036-0.256-0.115-0.482-0.236-0.676c-0.121-0.195-0.273-0.358-0.456-0.49
			c-0.184-0.132-0.39-0.231-0.616-0.297c-0.228-0.066-0.466-0.099-0.715-0.099c-0.418,0-0.779,0.084-1.084,0.253
			c-0.305,0.169-0.552,0.395-0.742,0.677c-0.192,0.282-0.332,0.603-0.424,0.962c-0.092,0.359-0.138,0.726-0.138,1.1
			c0,0.374,0.046,0.74,0.138,1.1c0.092,0.359,0.232,0.681,0.424,0.963c0.19,0.282,0.437,0.508,0.742,0.676
			c0.305,0.169,0.666,0.254,1.084,0.254c0.351,0.007,0.663-0.039,0.934-0.138c0.272-0.1,0.501-0.242,0.688-0.43
			c0.187-0.187,0.328-0.416,0.424-0.688c0.095-0.271,0.146-0.571,0.153-0.901h-2.09v-1.045h3.345V19z"/>
		<path fill="#808086" d="M41.816,16.481c0,0.22,0.031,0.433,0.094,0.638c0.062,0.205,0.156,0.385,0.28,0.539
			c0.125,0.153,0.282,0.276,0.474,0.368c0.19,0.092,0.418,0.138,0.682,0.138c0.366,0,0.662-0.079,0.885-0.237
			c0.224-0.157,0.391-0.394,0.5-0.709h1.189c-0.067,0.309-0.18,0.583-0.341,0.825c-0.162,0.242-0.357,0.445-0.583,0.61
			c-0.228,0.165-0.482,0.29-0.765,0.374c-0.282,0.084-0.578,0.127-0.885,0.127c-0.448,0-0.844-0.073-1.188-0.221
			c-0.346-0.146-0.637-0.352-0.875-0.615c-0.238-0.266-0.418-0.579-0.539-0.946c-0.121-0.366-0.182-0.771-0.182-1.21
			c0-0.403,0.065-0.786,0.193-1.15c0.129-0.363,0.311-0.682,0.55-0.957c0.238-0.275,0.526-0.493,0.864-0.654
			c0.337-0.161,0.719-0.242,1.143-0.242c0.448,0,0.849,0.094,1.205,0.28c0.356,0.188,0.651,0.435,0.885,0.742
			c0.236,0.309,0.405,0.663,0.512,1.062c0.106,0.4,0.134,0.812,0.083,1.238H41.816z M44.743,15.656
			c-0.016-0.198-0.058-0.389-0.127-0.572c-0.069-0.184-0.165-0.343-0.286-0.479c-0.121-0.136-0.268-0.245-0.44-0.33
			c-0.172-0.084-0.365-0.126-0.578-0.126c-0.219,0-0.42,0.038-0.599,0.115c-0.18,0.078-0.333,0.184-0.462,0.32
			c-0.128,0.135-0.231,0.295-0.308,0.477c-0.077,0.184-0.119,0.382-0.127,0.595H44.743z"/>
		<path fill="#808086" d="M49.561,19.154c-0.454,0-0.859-0.075-1.215-0.226c-0.356-0.15-0.656-0.357-0.902-0.622
			c-0.246-0.264-0.433-0.579-0.561-0.945c-0.129-0.367-0.192-0.771-0.192-1.21c0-0.432,0.063-0.833,0.192-1.199
			c0.128-0.367,0.315-0.683,0.561-0.946c0.246-0.264,0.546-0.471,0.902-0.621c0.356-0.151,0.761-0.226,1.215-0.226
			c0.455,0,0.86,0.075,1.216,0.226c0.355,0.15,0.656,0.357,0.902,0.621c0.245,0.263,0.433,0.579,0.561,0.946
			c0.128,0.366,0.192,0.767,0.192,1.199c0,0.439-0.064,0.843-0.192,1.21c-0.128,0.366-0.316,0.682-0.561,0.945
			c-0.246,0.265-0.547,0.472-0.902,0.622C50.42,19.079,50.016,19.154,49.561,19.154 M49.561,18.164c0.279,0,0.521-0.059,0.727-0.176
			c0.205-0.117,0.374-0.271,0.505-0.462c0.132-0.191,0.23-0.405,0.291-0.644c0.063-0.238,0.094-0.482,0.094-0.731
			c0-0.242-0.031-0.484-0.094-0.726c-0.061-0.242-0.159-0.456-0.291-0.644c-0.131-0.186-0.3-0.339-0.505-0.456
			c-0.206-0.117-0.448-0.176-0.727-0.176c-0.278,0-0.521,0.059-0.726,0.176c-0.205,0.117-0.374,0.27-0.505,0.456
			c-0.132,0.188-0.23,0.402-0.292,0.644c-0.063,0.242-0.093,0.484-0.093,0.726c0,0.249,0.03,0.493,0.093,0.731
			c0.062,0.238,0.16,0.452,0.292,0.644c0.131,0.19,0.3,0.345,0.505,0.462S49.283,18.164,49.561,18.164"/>
		<path fill="#808086" d="M58.734,18.703c0,0.857-0.24,1.498-0.72,1.919c-0.481,0.422-1.172,0.633-2.074,0.633
			c-0.286,0-0.574-0.029-0.863-0.088c-0.29-0.059-0.554-0.158-0.792-0.297c-0.238-0.14-0.438-0.323-0.6-0.55
			c-0.161-0.228-0.256-0.506-0.286-0.836h1.254c0.037,0.176,0.099,0.318,0.188,0.429c0.088,0.11,0.192,0.196,0.313,0.259
			c0.121,0.062,0.254,0.103,0.401,0.121c0.146,0.018,0.301,0.027,0.462,0.027c0.506,0,0.876-0.125,1.11-0.373
			c0.235-0.25,0.353-0.61,0.353-1.079v-0.869h-0.022c-0.176,0.315-0.416,0.561-0.72,0.737C56.434,18.912,56.105,19,55.753,19
			c-0.454,0-0.841-0.079-1.16-0.236c-0.319-0.158-0.583-0.374-0.792-0.649c-0.209-0.274-0.362-0.592-0.456-0.951
			c-0.096-0.359-0.144-0.744-0.144-1.155c0-0.381,0.059-0.744,0.176-1.089c0.117-0.345,0.286-0.647,0.507-0.907
			c0.219-0.261,0.489-0.468,0.808-0.622c0.318-0.153,0.68-0.231,1.083-0.231c0.359,0,0.689,0.076,0.99,0.226
			s0.531,0.387,0.692,0.709h0.022v-0.78h1.254V18.703z M55.951,18.01c0.279,0,0.516-0.057,0.71-0.17
			c0.194-0.114,0.353-0.265,0.473-0.451c0.121-0.188,0.209-0.399,0.264-0.638c0.056-0.238,0.083-0.479,0.083-0.72
			c0-0.244-0.029-0.478-0.088-0.706c-0.059-0.227-0.148-0.428-0.27-0.605c-0.121-0.176-0.279-0.315-0.473-0.418
			c-0.195-0.103-0.428-0.153-0.699-0.153c-0.278,0-0.513,0.058-0.704,0.175c-0.19,0.118-0.345,0.27-0.462,0.456
			c-0.117,0.188-0.201,0.401-0.253,0.639c-0.051,0.238-0.077,0.475-0.077,0.709c0,0.235,0.029,0.464,0.088,0.688
			s0.149,0.424,0.27,0.6c0.121,0.176,0.275,0.319,0.463,0.429C55.462,17.955,55.688,18.01,55.951,18.01"/>
		<path fill="#808086" d="M60,13.313h1.177v1.1h0.022c0.036-0.155,0.107-0.305,0.214-0.452c0.106-0.146,0.235-0.28,0.386-0.401
			c0.149-0.121,0.316-0.218,0.5-0.292c0.184-0.073,0.37-0.109,0.561-0.109c0.147,0,0.248,0.004,0.303,0.01
			c0.056,0.008,0.112,0.015,0.171,0.023v1.21c-0.088-0.015-0.178-0.028-0.27-0.039c-0.092-0.011-0.182-0.017-0.27-0.017
			c-0.213,0-0.413,0.043-0.6,0.127s-0.351,0.209-0.489,0.374c-0.14,0.165-0.25,0.368-0.33,0.611
			c-0.081,0.242-0.121,0.52-0.121,0.835v2.707H60V13.313z"/>
		<path fill="#808086" d="M68.635,17.735c0,0.153,0.021,0.264,0.061,0.33c0.04,0.065,0.119,0.099,0.236,0.099h0.132
			c0.052,0,0.11-0.007,0.177-0.022v0.869c-0.044,0.015-0.102,0.031-0.171,0.05s-0.142,0.035-0.215,0.05s-0.146,0.025-0.22,0.032
			c-0.073,0.008-0.136,0.012-0.187,0.012c-0.257,0-0.47-0.052-0.639-0.154c-0.168-0.103-0.278-0.282-0.33-0.539
			c-0.249,0.242-0.555,0.419-0.918,0.528s-0.714,0.165-1.051,0.165c-0.257,0-0.502-0.035-0.737-0.104
			c-0.234-0.07-0.441-0.173-0.621-0.309s-0.322-0.308-0.429-0.517s-0.16-0.453-0.16-0.731c0-0.353,0.064-0.638,0.193-0.858
			c0.128-0.22,0.297-0.392,0.506-0.517s0.443-0.215,0.704-0.27c0.26-0.054,0.522-0.097,0.786-0.127
			c0.228-0.044,0.443-0.075,0.649-0.092c0.205-0.019,0.387-0.05,0.544-0.094c0.158-0.044,0.282-0.113,0.374-0.204
			c0.092-0.091,0.138-0.229,0.138-0.412c0-0.162-0.039-0.293-0.115-0.396c-0.077-0.103-0.173-0.182-0.286-0.237
			c-0.113-0.055-0.24-0.091-0.38-0.11c-0.14-0.018-0.271-0.027-0.396-0.027c-0.353,0-0.643,0.073-0.869,0.22
			c-0.228,0.146-0.356,0.374-0.385,0.681h-1.255c0.022-0.366,0.11-0.67,0.265-0.913c0.153-0.241,0.35-0.435,0.588-0.583
			c0.238-0.146,0.508-0.249,0.809-0.307c0.302-0.059,0.609-0.088,0.926-0.088c0.277,0,0.552,0.029,0.823,0.088
			c0.271,0.058,0.516,0.154,0.731,0.286c0.217,0.132,0.391,0.303,0.522,0.512c0.133,0.209,0.198,0.463,0.198,0.763V17.735z
			 M67.381,16.151c-0.19,0.124-0.426,0.199-0.704,0.226c-0.278,0.025-0.558,0.063-0.836,0.115c-0.132,0.021-0.261,0.053-0.385,0.094
			c-0.125,0.04-0.235,0.095-0.33,0.165c-0.096,0.069-0.171,0.161-0.225,0.274c-0.056,0.114-0.083,0.251-0.083,0.413
			c0,0.139,0.041,0.256,0.12,0.352c0.081,0.096,0.178,0.171,0.292,0.226c0.113,0.055,0.238,0.094,0.374,0.115
			c0.136,0.022,0.259,0.033,0.368,0.033c0.14,0,0.29-0.019,0.451-0.055c0.161-0.037,0.313-0.1,0.457-0.187
			c0.143-0.089,0.262-0.2,0.357-0.336c0.095-0.136,0.143-0.303,0.143-0.501V16.151z"/>
		<path fill="#808086" d="M70.021,13.313h1.188v0.77h0.022c0.176-0.33,0.421-0.567,0.736-0.71s0.656-0.214,1.023-0.214
			c0.447,0,0.838,0.079,1.172,0.236c0.333,0.159,0.61,0.374,0.83,0.65c0.219,0.274,0.385,0.596,0.495,0.962
			c0.109,0.367,0.165,0.759,0.165,1.175c0,0.383-0.05,0.753-0.149,1.112c-0.099,0.359-0.25,0.677-0.45,0.951
			c-0.202,0.275-0.457,0.495-0.765,0.66s-0.671,0.248-1.089,0.248c-0.184,0-0.367-0.017-0.55-0.05
			c-0.184-0.033-0.359-0.086-0.528-0.159s-0.324-0.167-0.468-0.281c-0.143-0.113-0.262-0.247-0.358-0.401h-0.021v2.838h-1.254
			V13.313z M74.398,16.162c0-0.257-0.033-0.506-0.1-0.748c-0.065-0.242-0.165-0.457-0.297-0.644
			c-0.132-0.186-0.297-0.337-0.495-0.451c-0.197-0.113-0.425-0.17-0.682-0.17c-0.528,0-0.926,0.183-1.193,0.55
			c-0.268,0.366-0.401,0.855-0.401,1.463c0,0.286,0.034,0.552,0.104,0.798c0.069,0.245,0.174,0.456,0.313,0.632
			c0.139,0.176,0.306,0.315,0.5,0.418s0.42,0.154,0.677,0.154c0.286,0,0.528-0.059,0.726-0.176c0.198-0.117,0.361-0.27,0.49-0.457
			c0.128-0.187,0.22-0.399,0.274-0.638C74.371,16.655,74.398,16.411,74.398,16.162"/>
		<path fill="#808086" d="M76.709,11.146h1.254v2.914h0.021c0.154-0.256,0.384-0.471,0.688-0.643
			c0.305-0.172,0.644-0.258,1.018-0.258c0.624,0,1.115,0.161,1.475,0.483c0.359,0.323,0.539,0.808,0.539,1.452v3.906h-1.254v-3.577
			c-0.016-0.447-0.11-0.771-0.286-0.973c-0.176-0.201-0.451-0.302-0.825-0.302c-0.213,0-0.403,0.038-0.572,0.115
			c-0.169,0.077-0.312,0.184-0.429,0.32c-0.117,0.135-0.209,0.294-0.275,0.477c-0.065,0.184-0.099,0.378-0.099,0.583v3.356h-1.254
			V11.146z"/>
		<path fill="#808086" d="M83.056,11.146h1.254v1.187h-1.254V11.146z M83.056,13.313h1.254V19h-1.254V13.313z"/>
		<path fill="#808086" d="M89.513,15.216c-0.052-0.352-0.192-0.617-0.424-0.797c-0.23-0.18-0.522-0.269-0.874-0.269
			c-0.161,0-0.334,0.027-0.518,0.082c-0.183,0.054-0.352,0.158-0.506,0.307c-0.153,0.151-0.282,0.36-0.385,0.627
			c-0.103,0.269-0.154,0.618-0.154,1.051c0,0.235,0.027,0.47,0.083,0.704c0.055,0.235,0.143,0.444,0.264,0.627
			c0.121,0.184,0.277,0.332,0.468,0.445c0.19,0.114,0.422,0.171,0.693,0.171c0.366,0,0.669-0.113,0.907-0.341
			s0.387-0.547,0.445-0.957h1.254c-0.117,0.74-0.397,1.307-0.842,1.699c-0.443,0.393-1.032,0.588-1.765,0.588
			c-0.448,0-0.842-0.074-1.183-0.225c-0.342-0.15-0.629-0.355-0.864-0.616c-0.234-0.26-0.412-0.57-0.533-0.93
			s-0.182-0.748-0.182-1.166c0-0.425,0.059-0.825,0.176-1.199c0.117-0.374,0.294-0.698,0.528-0.973s0.526-0.491,0.875-0.649
			c0.347-0.158,0.757-0.237,1.227-0.237c0.33,0,0.644,0.042,0.94,0.126c0.297,0.085,0.561,0.211,0.792,0.38
			c0.23,0.169,0.419,0.382,0.566,0.638c0.146,0.257,0.234,0.561,0.264,0.913H89.513z"/>
		<path fill="#808086" d="M96.552,17.735c0,0.153,0.021,0.264,0.061,0.33c0.04,0.065,0.119,0.099,0.236,0.099h0.132
			c0.052,0,0.11-0.007,0.177-0.022v0.869c-0.044,0.015-0.102,0.031-0.171,0.05s-0.142,0.035-0.215,0.05s-0.146,0.025-0.22,0.032
			c-0.073,0.008-0.136,0.012-0.187,0.012c-0.256,0-0.47-0.052-0.639-0.154c-0.168-0.103-0.278-0.282-0.33-0.539
			c-0.249,0.242-0.555,0.419-0.918,0.528s-0.714,0.165-1.051,0.165c-0.257,0-0.502-0.035-0.737-0.104
			c-0.234-0.07-0.441-0.173-0.621-0.309s-0.322-0.308-0.429-0.517s-0.16-0.453-0.16-0.731c0-0.353,0.064-0.638,0.193-0.858
			c0.128-0.22,0.297-0.392,0.506-0.517s0.443-0.215,0.704-0.27c0.26-0.054,0.522-0.097,0.786-0.127
			c0.228-0.044,0.443-0.075,0.649-0.092c0.205-0.019,0.387-0.05,0.544-0.094c0.158-0.044,0.282-0.113,0.374-0.204
			c0.092-0.091,0.138-0.229,0.138-0.412c0-0.162-0.039-0.293-0.115-0.396c-0.077-0.103-0.173-0.182-0.286-0.237
			c-0.113-0.055-0.239-0.091-0.38-0.11c-0.14-0.018-0.271-0.027-0.396-0.027c-0.353,0-0.643,0.073-0.869,0.22
			c-0.228,0.146-0.356,0.374-0.385,0.681h-1.255c0.022-0.366,0.11-0.67,0.265-0.913c0.153-0.241,0.35-0.435,0.588-0.583
			c0.238-0.146,0.508-0.249,0.809-0.307c0.302-0.059,0.609-0.088,0.926-0.088c0.277,0,0.552,0.029,0.823,0.088
			c0.271,0.058,0.516,0.154,0.731,0.286c0.217,0.132,0.391,0.303,0.522,0.512c0.133,0.209,0.198,0.463,0.198,0.763V17.735z
			 M95.298,16.151c-0.19,0.124-0.426,0.199-0.704,0.226c-0.278,0.025-0.558,0.063-0.836,0.115c-0.132,0.021-0.261,0.053-0.385,0.094
			c-0.125,0.04-0.235,0.095-0.33,0.165c-0.096,0.069-0.171,0.161-0.225,0.274c-0.056,0.114-0.083,0.251-0.083,0.413
			c0,0.139,0.041,0.256,0.12,0.352c0.081,0.096,0.178,0.171,0.292,0.226c0.113,0.055,0.238,0.094,0.374,0.115
			c0.136,0.022,0.259,0.033,0.368,0.033c0.14,0,0.29-0.019,0.451-0.055c0.161-0.037,0.313-0.1,0.457-0.187
			c0.143-0.089,0.262-0.2,0.357-0.336c0.095-0.136,0.143-0.303,0.143-0.501V16.151z"/>
	</g>
</g>
</svg>
