<?xml version="1.0" encoding="utf-8"?>
<!-- Generator: Adobe Illustrator 16.0.0, SVG Export Plug-In . SVG Version: 6.00 Build 0)  -->
<!DOCTYPE svg PUBLIC "-//W3C//DTD SVG 1.1//EN" "http://www.w3.org/Graphics/SVG/1.1/DTD/svg11.dtd">
<svg version="1.1" id="Layer_1" xmlns="http://www.w3.org/2000/svg" xmlns:xlink="http://www.w3.org/1999/xlink" x="0px" y="0px"
	 width="60px" height="60px" viewBox="0 0 60 60" enable-background="new 0 0 60 60" xml:space="preserve">
<g>
	<g>
		<path fill="#00B8C7" d="M57.691,46.386c-3.817,0-6.454-3.334-6.923-7.154l-2.306-16.154C47.612,14.464,42.334,7.3,34.614,5.235
			V4.613C34.614,2.066,32.55,0,29.999,0c-2.549,0-4.613,2.066-4.613,4.613v0.622c-7.72,2.064-12.998,9.229-13.849,17.842
			L9.231,39.231c-0.469,3.82-3.105,7.154-6.923,7.154C1.031,46.386,0,47.417,0,48.695C0,49.969,1.031,51,2.309,51h55.383
			C58.969,51,60,49.969,60,48.695C60,47.417,58.969,46.386,57.691,46.386z M23.999,55.385c0,2.549,2.066,4.615,4.615,4.615h2.771
			c2.549,0,4.613-2.066,4.613-4.615V54h-12V55.385z"/>
	</g>
</g>
</svg>
