<?xml version="1.0" encoding="utf-8"?>
<!-- Generator: Adobe Illustrator 16.0.0, SVG Export Plug-In . SVG Version: 6.00 Build 0)  -->
<!DOCTYPE svg PUBLIC "-//W3C//DTD SVG 1.1//EN" "http://www.w3.org/Graphics/SVG/1.1/DTD/svg11.dtd">
<svg version="1.1" id="Layer_1" xmlns="http://www.w3.org/2000/svg" xmlns:xlink="http://www.w3.org/1999/xlink" x="0px" y="0px"
	 width="60px" height="60px" viewBox="0 0 60 60" enable-background="new 0 0 60 60" xml:space="preserve">
<g>
	<path fill="#00B8C7" d="M36.082,10.288H15.257v39.424h29.485V18.949L36.082,10.288z M42.771,47.74H17.229V12.26h17.99v7.552h7.553
		V47.74z"/>
	<g>
		<path fill="#00B8C7" d="M20.313,28.587h2.863c1.696,0,3.068,0.626,3.068,2.527c0,1.84-1.408,2.658-3.068,2.658h-1.095v2.659
			h-1.769V28.587z M23.068,32.365c0.975,0,1.444-0.434,1.444-1.251c0-0.819-0.505-1.119-1.444-1.119h-0.986v2.37H23.068z"/>
		<path fill="#00B8C7" d="M27.601,28.587h2.214c2.394,0,3.933,1.191,3.933,3.886c0,2.695-1.539,3.959-3.837,3.959h-2.31V28.587z
			 M29.707,35c1.335,0,2.226-0.65,2.226-2.527s-0.891-2.454-2.226-2.454H29.37V35H29.707z"/>
		<path fill="#00B8C7" d="M35.238,28.587h4.945v1.492h-3.177v1.816h2.718v1.492h-2.718v3.044h-1.769V28.587z"/>
	</g>
</g>
<g>
	<g>
		<path fill="#00B8C7" d="M30,2c15.439,0,28,12.561,28,28S45.439,58,30,58C14.561,58,2,45.439,2,30S14.561,2,30,2 M30,0
			C13.432,0,0,13.432,0,30s13.432,30,30,30c16.568,0,30-13.432,30-30S46.568,0,30,0L30,0z"/>
	</g>
</g>
</svg>
