<?xml version="1.0" encoding="utf-8"?>
<!-- Generator: Adobe Illustrator 16.0.0, SVG Export Plug-In . SVG Version: 6.00 Build 0)  -->
<!DOCTYPE svg PUBLIC "-//W3C//DTD SVG 1.1//EN" "http://www.w3.org/Graphics/SVG/1.1/DTD/svg11.dtd">
<svg version="1.1" id="Layer_1" xmlns="http://www.w3.org/2000/svg" xmlns:xlink="http://www.w3.org/1999/xlink" x="0px" y="0px"
	 width="60px" height="60px" viewBox="0 0 60 60" enable-background="new 0 0 60 60" xml:space="preserve">
<g>
	<path fill="#00B8C7" d="M39.257,0H7.563v60h44.874V13.182L39.257,0z M49.438,56.999H10.563V3.001h27.379v11.493h11.495V56.999z"/>
	<g>
		<path fill="#00B8C7" d="M15.258,27.85h4.358c2.582,0,4.669,0.952,4.669,3.847c0,2.8-2.143,4.045-4.669,4.045H17.95v4.047h-2.692
			V27.85z M19.451,33.6c1.483,0,2.197-0.66,2.197-1.903c0-1.247-0.769-1.704-2.197-1.704H17.95V33.6H19.451z"/>
		<path fill="#00B8C7" d="M26.349,27.85h3.369c3.644,0,5.986,1.813,5.986,5.914c0,4.102-2.342,6.024-5.839,6.024h-3.516V27.85z
			 M29.554,37.609c2.032,0,3.388-0.989,3.388-3.846c0-2.857-1.355-3.735-3.388-3.735h-0.513v7.581H29.554z"/>
		<path fill="#00B8C7" d="M37.973,27.85h7.526v2.271h-4.835v2.765H44.8v2.271h-4.136v4.632h-2.691V27.85z"/>
	</g>
</g>
</svg>
