<?xml version="1.0" encoding="utf-8"?>
<!-- Generator: Adobe Illustrator 16.0.0, SVG Export Plug-In . SVG Version: 6.00 Build 0)  -->
<!DOCTYPE svg PUBLIC "-//W3C//DTD SVG 1.1//EN" "http://www.w3.org/Graphics/SVG/1.1/DTD/svg11.dtd">
<svg version="1.1" id="Layer_1" xmlns="http://www.w3.org/2000/svg" xmlns:xlink="http://www.w3.org/1999/xlink" x="0px" y="0px"
	 width="60px" height="60px" viewBox="0 0 60 60" enable-background="new 0 0 60 60" xml:space="preserve">
<path fill="#00B8C7" d="M30,0C13.43,0,0,13.433,0,30s13.43,30,30,30s30-13.433,30-30S46.57,0,30,0z M46.225,37.743
	C47.35,35.394,48,32.774,48,30s-0.65-5.394-1.775-7.743l6.606-6.604C55.456,19.813,57,24.724,57,30s-1.544,10.187-4.169,14.347
	L46.225,37.743z M16.061,35.455L16.061,35.455C15.396,33.762,15,31.931,15,30s0.396-3.762,1.061-5.455l0,0
	c1.521-3.885,4.6-6.964,8.484-8.484l0,0C26.238,15.396,28.069,15,30,15s3.762,0.396,5.455,1.061l0,0
	c3.885,1.521,6.964,4.6,8.484,8.484l0,0C44.604,26.238,45,28.069,45,30s-0.396,3.762-1.061,5.455l0,0
	c-1.521,3.885-4.6,6.964-8.484,8.484l0,0C33.762,44.604,31.931,45,30,45s-3.762-0.396-5.455-1.061l0,0
	C20.66,42.419,17.581,39.34,16.061,35.455z M44.347,7.169l-6.606,6.604C35.394,12.647,32.774,12,30,12s-5.394,0.647-7.74,1.772
	l-6.606-6.604C19.816,4.544,24.727,3,30,3S40.184,4.544,44.347,7.169z M7.169,15.653l6.606,6.604C12.65,24.606,12,27.226,12,30
	s0.65,5.394,1.775,7.743l-6.606,6.604C4.544,40.187,3,35.276,3,30S4.544,19.813,7.169,15.653z M15.653,52.831l6.606-6.604
	C24.606,47.353,27.226,48,30,48s5.394-0.647,7.74-1.772l6.606,6.604C40.184,55.456,35.273,57,30,57S19.816,55.456,15.653,52.831z"/>
</svg>
