<?xml version="1.0" encoding="utf-8"?>
<!-- Generator: Adobe Illustrator 16.0.0, SVG Export Plug-In . SVG Version: 6.00 Build 0)  -->
<!DOCTYPE svg PUBLIC "-//W3C//DTD SVG 1.1//EN" "http://www.w3.org/Graphics/SVG/1.1/DTD/svg11.dtd">
<svg version="1.1" id="Layer_1" xmlns="http://www.w3.org/2000/svg" xmlns:xlink="http://www.w3.org/1999/xlink" x="0px" y="0px"
	 width="60px" height="60px" viewBox="0 0 60 60" enable-background="new 0 0 60 60" xml:space="preserve">
<g>
	<g>
		<path fill="#00B8C7" d="M26.725,36h6.551c4.017,0,5.247-2.634,6.721-6.817L43.503,15C43.503,6.97,38.03,0,30,0
			c-8.033,0-13.497,6.97-13.497,15l3.501,14.183C21.475,33.366,22.705,36,26.725,36z M30,3c6.686,0,10.356,5.938,10.5,11.651
			l-3.381,13.67C35.54,32.771,34.89,33,33.275,33h-6.551c-1.617,0-2.268-0.229-3.844-4.679l-3.375-13.67C19.649,8.938,23.317,3,30,3
			z M30,39C13.433,39,0,41.997,0,60h60C60,41.997,46.567,39,30,39z M30,42c18.103,0,25.746,4.128,26.856,15H3.144
			C4.254,46.128,11.897,42,30,42z"/>
	</g>
</g>
</svg>
