<?xml version="1.0" encoding="utf-8"?>
<!-- Generator: Adobe Illustrator 16.0.0, SVG Export Plug-In . SVG Version: 6.00 Build 0)  -->
<!DOCTYPE svg PUBLIC "-//W3C//DTD SVG 1.0//EN" "http://www.w3.org/TR/2001/REC-SVG-20010904/DTD/svg10.dtd">
<svg version="1.0" id="Layer_1" xmlns="http://www.w3.org/2000/svg" xmlns:xlink="http://www.w3.org/1999/xlink" x="0px" y="0px"
	 width="102px" height="30px" viewBox="0 0 102 30" enable-background="new 0 0 102 30" xml:space="preserve">
<g>
	<path fill="#FFFFFF" d="M29.918,15.005c-0.042,0.06-0.089,0.115-0.131,0.173c-0.967,1.313-2.15,2.525-3.345,3.238
		c-0.682,0.406-1.365,0.656-2.013,0.656c-0.777,0.024-1.121-0.405-1.107-1.271c0-0.517,0.128-1.247,0.233-1.615
		c0.172-0.084,0.345-0.169,0.517-0.256c1.561-0.781,3.129-1.688,4.545-3.098c0.591-0.611,1.03-1.227,1.274-1.852
		c0.118-0.301,0.205-0.603,0.214-0.909c0.016-0.886-0.562-1.338-1.702-1.354C27.277,8.703,26,9.21,24.89,9.949
		c-0.523,0.349-1.016,0.745-1.43,1.172c-1.602,1.686-2.842,4.03-3.007,6.178c-0.01,0.127-0.03,0.257-0.032,0.383v0.001v0.001
		c-0.02,1.591,0.765,2.856,2.887,2.781h0.001c1.615-0.042,3.204-0.913,4.405-1.852c0.486-0.38,0.915-0.771,1.246-1.123
		c-0.047,0.18-0.078,0.348-0.113,0.518c-0.064,0.325-0.113,0.636-0.113,0.902c0,0.253,0.031,0.489,0.077,0.715
		c0.215,1.036,0.906,1.779,2.089,2.129l0.286-0.13c-0.128-0.382-0.161-0.784-0.128-1.229c0.066-0.924,0.356-1.94,0.783-3.117
		c0.209-0.576,0.44-1.18,0.715-1.852c1.388-3.373,3.327-7.173,4.472-9.813c0.162-0.377,0.311-0.731,0.438-1.057l-2.124,0.391
		l-0.297,0.054c-0.06,0.012-0.11,0.037-0.163,0.059c-0.03,0.012-0.063,0.019-0.093,0.033c-0.231,0.123-0.391,0.328-0.484,0.525
		c-1.168,2.399-2.368,4.953-3.862,8.282C30.266,14.258,30.106,14.634,29.918,15.005 M27.649,9.868c0.378,0,0.507,0.25,0.507,0.567
		c0,0.71-0.439,1.514-1.15,2.312c-0.794,0.892-1.929,1.774-3.221,2.516C24.399,12.938,26.134,9.847,27.649,9.868 M69.28,17.447
		c-0.034,0.121-0.065,0.234-0.095,0.349c-0.099,0.4-0.159,0.761-0.159,1.032c0,0.533,0.175,0.963,0.518,1.256
		c0.342,0.293,0.851,0.448,1.519,0.43c1.385-0.025,2.796-0.818,3.96-1.901c0.226,1.146,1.08,1.979,2.83,1.919h0.001
		c0.762-0.026,1.506-0.242,2.205-0.568c0.978-0.454,1.864-1.13,2.569-1.875v0.369c0,1.183,0.629,2.067,2.029,2.067
		c0.939,0,1.972-0.43,2.945-1.209c0.584-0.469,1.148-1.062,1.661-1.767l0.046,0.021c-0.127,0.444-0.273,1.203-0.294,1.706
		c-0.022,1.422,0.848,2.237,2.062,2.475l0.295-0.115c0,0,0-0.001-0.001-0.002h0.001c-0.111-0.257-0.155-0.609-0.156-1.008
		c0-0.035,0.005-0.073,0.005-0.108c0.004-0.167,0.01-0.338,0.025-0.516c0.006-0.072,0.018-0.146,0.025-0.218
		c0.113-1.018,0.383-2.094,0.533-2.59c0.604-1.875,1.441-3.921,2.182-5.574c0.366-0.821,0.712-1.553,0.985-2.105V9.514
		c-0.377-0.311-1.262-0.523-2.209-0.564c-3.13-0.11-6.279,1.136-8.578,5.063c-0.028,0.049-0.059,0.109-0.089,0.16
		c-0.37,0.646-0.763,1.372-1.059,2.142c-0.327,0.42-0.667,0.795-0.812,0.93c-0.83,0.772-2.011,1.764-3.211,1.776
		c-0.169,0.003-0.318-0.023-0.45-0.076c-0.395-0.163-0.604-0.578-0.593-1.195c0.012-2.551,1.908-6.18,3.665-7.458
		c0.406-0.295,0.806-0.465,1.17-0.467c0.534,0,0.766,0.227,0.766,0.667c0,0.521-0.37,1.241-0.897,1.703l0.229,0.203
		c0.981-0.364,1.912-0.95,2.316-1.616c0.136-0.222,0.213-0.453,0.215-0.687c0-1.065-1.273-1.265-2.405-1.256
		c-1.331,0.019-2.948,0.569-4.352,1.782c-0.201,0.173-0.396,0.36-0.587,0.56c-1.905,2.01-2.889,4.42-3.083,6.137
		c-0.869,0.981-1.844,1.646-2.491,1.655c-0.056,0.002-0.104-0.009-0.153-0.016c-0.281-0.042-0.477-0.218-0.479-0.533
		c0-0.326,0.195-0.994,0.53-1.859c0.194-0.468,0.413-0.969,0.646-1.488c0.586-1.308,1.298-2.79,2.104-4.426
		c0.263-0.533,0.524-1.066,0.809-1.633c0,0-0.265,0.043-0.614,0.102c-0.481,0.08-1.124,0.189-1.562,0.271
		c-0.197,0.037-0.361,0.069-0.429,0.088c-0.145,0.034-0.265,0.105-0.376,0.183c-0.1,0.066-0.174,0.153-0.246,0.246
		c-0.046,0.06-0.106,0.107-0.142,0.176c0,0-0.001,0.001-0.001,0.002c-0.975,1.994-2.135,4.299-2.854,6.02
		C69.556,16.577,69.401,17.028,69.28,17.447 M85.697,16.796c0.694-2.351,2.674-5.656,4.663-6.557
		c0.729-0.333,1.336-0.352,1.847-0.252c-0.193,0.388-1.071,2.094-1.751,3.63c-0.135,0.301-0.278,0.602-0.429,0.898
		c-1.057,2.081-2.464,3.979-3.775,4.28c-0.518,0.146-0.822-0.069-0.815-0.568C85.445,17.829,85.537,17.338,85.697,16.796
		 M33.977,17.366c-0.006,0.105-0.023,0.214-0.024,0.318v0.001v0.001c-0.018,1.558,0.834,2.856,3.008,2.781h0.001
		c1.093-0.027,2.138-0.337,3.13-0.841c1.126-0.571,2.187-1.394,3.16-2.382c-0.036,0.093-0.068,0.178-0.104,0.269
		c-0.415,1.076-0.771,1.994-0.99,2.506c-0.684,1.643-1.184,2.974-2.229,3.742l0.113,0.199h0.001
		c3.075,0.173,4.224-1.913,5.489-5.312c1.263-3.407,2.334-6.365,3.167-8.418c1.283,0,3.063,0.039,4.15-0.157
		c0.056-0.01,0.115-0.017,0.166-0.028c-2.601,1.114-4.831,4.922-4.891,7.724c0,0.014-0.002,0.026-0.002,0.039
		c-0.003,0.188,0.004,0.37,0.021,0.547c0.123,1.25,0.897,2.112,2.548,2.112c0.875,0,1.71-0.279,2.484-0.726
		c1.55-0.893,2.854-2.469,3.72-3.945c0.284-0.483,0.523-0.957,0.708-1.389c0.588-1.379,0.979-2.557,1.041-3.742
		c0.764-0.128,1.486-0.255,1.854-0.307c0.623-0.084,0.58,0.505,0.406,1.035c-0.021,0.062-0.041,0.123-0.064,0.182
		c-0.513,1.382-1.172,3.007-1.785,4.479c-0.949,2.28-1.789,4.191-1.796,4.238h2.5c1.081-2.173,1.751-3.562,2.612-5.041
		c0.258-0.432,0.595-0.932,0.969-1.439c1.137-1.543,2.623-3.167,3.318-3.174c0.327,0,0.412,0.203,0.33,0.509
		c-0.08,0.594-0.878,2.033-1.645,3.6c-0.757,1.547-1.482,3.218-1.459,4.326c0.029,1.457,0.825,2.34,2.214,2.674l0.053-0.029
		l0.238-0.13c-0.176-0.315-0.199-0.713-0.203-1.18c-0.025-1.487,1.229-4.094,1.712-5.106c0.262-0.534,0.59-1.155,0.907-1.788
		c0.476-0.943,0.915-1.913,1.08-2.697c0.011-0.055,0.031-0.116,0.04-0.168c0.021-0.124,0.019-0.232,0.021-0.344
		c0.002-0.058,0.015-0.124,0.011-0.178v-0.001c-0.046-0.623-0.526-1.175-1.632-1.184c-1.018-0.005-2.031,0.47-3.005,1.266
		c-0.975,0.796-1.906,1.913-2.758,3.192l-0.042-0.01c0.681-1.49,1.211-2.87,1.195-3.542C63.7,9.232,63.336,8.99,62.573,8.99
		c-0.532,0.015-1.267,0.214-1.986,0.401c-1.006,0.25-2.062,0.516-3.228,0.751c-0.534,0.068-0.809,0.157-0.901,0.302
		c-0.032,0.048-0.045,0.103-0.039,0.166c0.072,1.955-0.579,4.082-1.479,5.721c-0.899,1.64-2.049,2.793-2.968,2.801
		c-0.789,0-0.968-0.557-0.968-1.327c-0.008-2.704,2.296-7.246,4.545-7.965c0.134-0.037,0.261-0.067,0.373-0.096
		c0.05-0.012,0.104-0.025,0.145-0.037l0.282-0.727l0.001-0.003c-0.477,0.097-1.609,0.112-2.209,0.128h-4.938
		c0.47-1.081,1.01-2.018,1.631-2.788c1.104-1.369,2.469-2.198,4.186-2.271c1.661-0.053,2.786,0.553,2.884,1.472
		c0.039,0.439-0.026,0.83-0.194,1.205c-0.133,0.294-0.323,0.579-0.608,0.864c0,0,0,0.001-0.001,0.001l0.185,0.176h0.001
		c0.003-0.001,0.006-0.003,0.009-0.004c0.785-0.357,1.432-0.852,1.87-1.352c0.379-0.432,0.604-0.869,0.607-1.228
		c0.023-1.205-1.48-1.945-3.88-1.921c-2.669,0.015-5.877,0.527-8.395,4.171c-0.359,0.521-0.705,1.105-1.032,1.761
		c-0.589,0.087-1.138,0.271-1.624,0.616c-0.162,0.115-0.316,0.248-0.466,0.401l0.105,0.231c0.421-0.142,0.917-0.167,1.473-0.168
		c0.011,0,0.021-0.001,0.031-0.001c-0.365,0.859-1.095,2.728-1.821,4.646c-1.25,1.597-2.5,2.703-3.648,3.376
		c-0.88,0.516-1.7,0.784-2.404,0.784c-0.891,0.024-1.246-0.445-1.255-1.271c-0.011-0.517,0.122-1.237,0.23-1.614
		c0.164-0.08,0.327-0.161,0.491-0.243c1.572-0.785,3.14-1.693,4.572-3.11c0.62-0.651,1.099-1.307,1.331-1.974
		c0.092-0.26,0.153-0.522,0.16-0.787c0.012-0.886-0.552-1.338-1.711-1.354c-1.324-0.017-2.861,0.689-4.091,1.655
		c-0.303,0.237-0.592,0.486-0.849,0.75C35.371,12.827,34.116,15.201,33.977,17.366 M39.568,10.82
		c0.522-0.584,1.074-0.959,1.602-0.952c0.377,0,0.531,0.25,0.531,0.567c-0.006,0.579-0.298,1.22-0.789,1.87
		c-0.784,1.037-2.086,2.096-3.604,2.958C37.715,13.747,38.59,11.913,39.568,10.82 M76.014,7.186
		c0.347-0.004,0.694-0.164,0.975-0.414c0.279-0.249,0.491-0.589,0.565-0.957c0.173-0.763-0.282-1.348-0.984-1.33
		c-0.518,0.001-1.035,0.346-1.331,0.84c-0.098,0.161-0.169,0.337-0.21,0.523c0,0.004-0.003,0.007-0.004,0.011
		C74.875,6.602,75.306,7.201,76.014,7.186 M10.142,11.259L10.142,11.259l0.162-0.133c-0.197-0.312-0.283-0.826-0.295-1.208
		c-0.002-0.059-0.007-0.123-0.005-0.174c0.037-1.392,0.724-2.52,1.938-3.349c1.562-1.065,4.002-1.636,7.059-1.636h3.008
		c-0.874,0.493-1.677,1.064-2.402,1.82c-0.725,0.756-1.372,1.695-1.937,2.923c-0.337,0.736-1.559,3.725-2.585,6.332
		c-0.445,1.13-0.854,2.189-1.138,2.961c-0.192,0.5-0.37,0.939-0.542,1.353c-0.613,1.472-1.119,2.435-1.631,3.017
		c-0.22,0.248-0.439,0.429-0.672,0.556v0.001v0.001l0.158,0.273c2.475,0.146,3.992-1.018,4.998-3.168
		c0.054-0.115,0.112-0.22,0.163-0.34c0.953-2.242,2.215-5.816,2.83-7.404c0.176-0.446,0.34-0.864,0.499-1.268
		c1.546-3.911,2.398-5.814,3.684-6.84c0.002-0.001,0.004-0.002,0.005-0.004c0.032-0.025,0.065-0.047,0.099-0.071
		c0.063-0.048,0.128-0.097,0.193-0.142c1.386-0.008,2.737-0.011,3.562-0.012h0.711h0.096h0.001c0.062-0.001,0.113-0.007,0.174-0.01
		c2.261-0.084,3.257-0.647,3.986-1.517h-0.001c0.001-0.001,0.001-0.001,0.002-0.002l-0.171-0.206
		c-0.599,0.312-1.897,0.374-2.996,0.376H18.298c-4.935,0-8.324,1.272-9.744,3.289C8.226,7.141,8.003,7.646,7.89,8.184
		C7.591,9.573,8.391,11.075,10.142,11.259 M81.191,28.803c-8.843-0.088-19.552-0.141-30.195-0.141
		c-10.722,0-21.51,0.054-30.391,0.143c-11.413,0.114-19.67,0.287-20.531,0.482C0.025,29.298,0,29.309,0,29.321
		c0,0.354,25.702,0.668,50.996,0.668c22.137,0,44.577-0.239,49.842-0.537c0.752-0.042,1.153-0.086,1.153-0.131
		C101.991,29.111,93.362,28.923,81.191,28.803"/>
</g>
</svg>
