<?xml version="1.0" encoding="utf-8"?>
<!-- Generator: Adobe Illustrator 16.0.0, SVG Export Plug-In . SVG Version: 6.00 Build 0)  -->
<!DOCTYPE svg PUBLIC "-//W3C//DTD SVG 1.0//EN" "http://www.w3.org/TR/2001/REC-SVG-20010904/DTD/svg10.dtd">
<svg version="1.0" id="Layer_1" xmlns="http://www.w3.org/2000/svg" xmlns:xlink="http://www.w3.org/1999/xlink" x="0px" y="0px"
	 width="60px" height="30px" viewBox="0 0 60 30" enable-background="new 0 0 60 30" xml:space="preserve">
<g>
	<g>
		<path fill="#FFFFFF" d="M33,9c-1.094,0-2.117,0.298-3,0.81V3h-3v18c0,3.312,2.688,6,6,6c3.312,0,6-2.688,6-6v-6
			C39,11.688,36.312,9,33,9 M36,21c0,1.656-1.348,3-3,3s-3-1.346-3-3v-6c0-1.654,1.348-3,3-3s3,1.346,3,3V21z M12,21
			c0,1.656-1.344,3-3,3s-3-1.346-3-3V10H3v11c0,3.312,2.688,6,6,6s6-2.688,6-6V10h-3V21z M18,15v11h3V15c0-1.654,1.344-3,3-3V9
			C20.688,9,18,11.688,18,15 M48,9c-3.312,0-6,2.688-6,6c0,3.312,2.688,6,6,6s6-2.688,6-6C54,11.688,51.312,9,48,9 M48,18.002
			c-1.658,0-3.004-1.344-3.004-3.002s1.346-3.002,3.004-3.002s3,1.344,3,3.002S49.658,18.002,48,18.002"/>
		<path fill="#00B8C7" d="M48,3c-3.312,0-6.312,1.344-8.484,3.516l2.125,2.125C43.27,7.01,45.52,6,48,6s4.73,1.01,6.359,2.641
			l2.125-2.125C54.312,4.344,51.312,3,48,3"/>
	</g>
</g>
</svg>
