<?xml version="1.0" encoding="utf-8"?>
<!-- Generator: Adobe Illustrator 16.0.0, SVG Export Plug-In . SVG Version: 6.00 Build 0)  -->
<!DOCTYPE svg PUBLIC "-//W3C//DTD SVG 1.1//EN" "http://www.w3.org/Graphics/SVG/1.1/DTD/svg11.dtd">
<svg version="1.1" id="Layer_1" xmlns="http://www.w3.org/2000/svg" xmlns:xlink="http://www.w3.org/1999/xlink" x="0px" y="0px"
	 width="201.988px" height="28.826px" viewBox="0 0 201.988 28.826" enable-background="new 0 0 201.988 28.826"
	 xml:space="preserve">
<g>
	<g>
		<g>
			<path fill="#FFFFFF" d="M129.915,13.842c-0.042,0.059-0.089,0.115-0.131,0.173c-0.967,1.313-2.15,2.525-3.345,3.238
				c-0.681,0.406-1.365,0.656-2.012,0.656c-0.778,0.025-1.121-0.405-1.108-1.271c0-0.517,0.128-1.247,0.234-1.615
				c0.172-0.084,0.344-0.169,0.516-0.256c1.561-0.782,3.129-1.688,4.545-3.098c0.591-0.611,1.031-1.227,1.275-1.852
				c0.118-0.301,0.205-0.603,0.214-0.909c0.015-0.886-0.562-1.338-1.703-1.354c-1.126-0.014-2.403,0.493-3.513,1.232
				c-0.524,0.349-1.016,0.745-1.43,1.172c-1.602,1.686-2.842,4.03-3.007,6.178c-0.01,0.127-0.03,0.257-0.032,0.383c0,0,0,0,0,0.001
				s0,0,0,0.001c-0.02,1.59,0.765,2.856,2.887,2.781h0.001c1.615-0.042,3.204-0.913,4.405-1.852c0.486-0.38,0.915-0.771,1.246-1.123
				c-0.047,0.18-0.078,0.348-0.113,0.518c-0.065,0.325-0.114,0.636-0.114,0.902c0,0.253,0.032,0.489,0.078,0.715
				c0.214,1.036,0.906,1.779,2.088,2.129l0.287-0.13c-0.128-0.382-0.162-0.784-0.128-1.229c0.066-0.924,0.356-1.941,0.783-3.118
				c0.209-0.576,0.44-1.179,0.715-1.851c1.387-3.373,3.327-7.173,4.471-9.813c0.163-0.377,0.311-0.731,0.438-1.057l-2.124,0.391
				l-0.297,0.054c-0.06,0.012-0.11,0.037-0.163,0.059c-0.03,0.012-0.064,0.019-0.093,0.033c-0.231,0.123-0.39,0.328-0.484,0.525
				c-1.168,2.399-2.368,4.953-3.863,8.282C130.263,13.095,130.104,13.471,129.915,13.842z M127.646,8.705
				c0.378,0,0.507,0.25,0.507,0.567c0,0.71-0.439,1.514-1.15,2.312c-0.794,0.891-1.929,1.775-3.221,2.516
				C124.396,11.774,126.131,8.684,127.646,8.705z M169.277,16.284c-0.034,0.121-0.065,0.235-0.094,0.349
				c-0.099,0.4-0.16,0.761-0.16,1.032v0v0c0,0.533,0.175,0.963,0.518,1.256c0.342,0.293,0.851,0.448,1.519,0.43
				c1.384-0.026,2.795-0.819,3.96-1.902c0.225,1.146,1.08,1.98,2.83,1.919h0.001c0.761-0.026,1.505-0.242,2.205-0.568
				c0.977-0.454,1.864-1.13,2.569-1.875v0.369c0,1.183,0.629,2.067,2.029,2.067c0.94,0,1.972-0.429,2.946-1.209
				c0.584-0.468,1.148-1.062,1.661-1.766l0.046,0.021c-0.127,0.445-0.274,1.203-0.294,1.706c-0.023,1.422,0.847,2.238,2.062,2.475
				l0.295-0.115c0,0,0-0.001-0.001-0.002h0.001c-0.111-0.257-0.155-0.61-0.156-1.008c0-0.035,0.005-0.073,0.005-0.108
				c0.004-0.167,0.01-0.338,0.025-0.516c0.006-0.072,0.018-0.146,0.026-0.218c0.113-1.017,0.382-2.094,0.533-2.59
				c0.603-1.875,1.441-3.92,2.181-5.574c0.367-0.821,0.712-1.553,0.986-2.105c0,0,0,0,0-0.001c-0.377-0.311-1.262-0.523-2.209-0.564
				c-3.13-0.11-6.28,1.136-8.578,5.063c-0.029,0.05-0.059,0.11-0.089,0.161c-0.37,0.646-0.763,1.372-1.059,2.141
				c-0.327,0.42-0.667,0.795-0.812,0.93c-0.83,0.773-2.011,1.764-3.211,1.776c-0.169,0.003-0.319-0.023-0.45-0.076
				c-0.395-0.163-0.605-0.578-0.593-1.195c0.011-2.551,1.908-6.18,3.665-7.458c0.406-0.295,0.805-0.465,1.17-0.467
				c0.534,0,0.765,0.227,0.765,0.667c0,0.521-0.37,1.241-0.897,1.704l0.229,0.202c0.982-0.364,1.912-0.95,2.317-1.616
				c0.136-0.222,0.213-0.453,0.215-0.687c0-1.065-1.274-1.265-2.406-1.256c-1.331,0.019-2.948,0.569-4.351,1.782
				c-0.201,0.173-0.396,0.36-0.587,0.56c-1.905,2.01-2.889,4.421-3.083,6.137c-0.869,0.982-1.844,1.647-2.491,1.656
				c-0.056,0.002-0.104-0.009-0.154-0.016c-0.281-0.042-0.476-0.218-0.479-0.533c0-0.326,0.195-0.994,0.53-1.86
				c0.194-0.467,0.413-0.968,0.646-1.488c0.586-1.307,1.297-2.79,2.103-4.426c0.263-0.533,0.525-1.066,0.809-1.633
				c0,0-0.265,0.043-0.615,0.102c-0.481,0.08-1.124,0.189-1.562,0.271c-0.197,0.037-0.361,0.069-0.429,0.088
				c-0.144,0.034-0.264,0.105-0.376,0.183c-0.099,0.066-0.174,0.153-0.246,0.246c-0.046,0.06-0.106,0.107-0.141,0.176
				c0,0-0.001,0.001-0.001,0.002c-0.975,1.994-2.135,4.299-2.854,6.019C169.553,15.414,169.398,15.865,169.277,16.284z
				 M185.694,15.633c0.695-2.351,2.674-5.656,4.663-6.557c0.729-0.333,1.336-0.352,1.847-0.252c-0.193,0.388-1.071,2.094-1.751,3.63
				c-0.135,0.301-0.278,0.602-0.429,0.898c-1.056,2.082-2.463,3.979-3.775,4.281c-0.518,0.145-0.822-0.069-0.815-0.568
				C185.442,16.666,185.534,16.175,185.694,15.633z M133.974,16.203c-0.006,0.106-0.024,0.214-0.025,0.319c0,0,0,0,0,0.001
				s0,0,0,0.001c-0.017,1.557,0.834,2.856,3.008,2.781h0.001c1.093-0.028,2.138-0.337,3.13-0.841
				c1.126-0.571,2.186-1.394,3.16-2.382c-0.036,0.093-0.068,0.178-0.104,0.269c-0.415,1.076-0.771,1.994-0.991,2.506
				c-0.683,1.642-1.183,2.973-2.229,3.742l0.113,0.199h0.001c3.075,0.173,4.224-1.913,5.489-5.312
				c1.263-3.407,2.334-6.365,3.167-8.418c1.284,0,3.064,0.039,4.151-0.157c0.055-0.01,0.115-0.017,0.166-0.028
				c-2.601,1.114-4.831,4.922-4.891,7.724c0,0.013-0.002,0.026-0.002,0.039c-0.003,0.187,0.004,0.37,0.021,0.546
				c0.123,1.25,0.897,2.113,2.548,2.113c0.875,0,1.709-0.28,2.484-0.726c1.55-0.892,2.853-2.469,3.72-3.945
				c0.284-0.484,0.523-0.957,0.708-1.389c0.588-1.379,0.978-2.557,1.041-3.742c0.763-0.128,1.486-0.255,1.853-0.307
				c0.623-0.084,0.58,0.505,0.406,1.035c-0.021,0.062-0.041,0.123-0.064,0.182c-0.513,1.382-1.172,3.007-1.785,4.479
				c-0.949,2.28-1.789,4.191-1.796,4.238h2.5c1.081-2.173,1.751-3.563,2.612-5.041c0.258-0.431,0.595-0.931,0.969-1.439
				c1.137-1.544,2.623-3.168,3.318-3.175c0.327,0,0.412,0.203,0.33,0.509c-0.08,0.594-0.878,2.033-1.644,3.6
				c-0.757,1.547-1.483,3.218-1.459,4.326v0v0c0.029,1.457,0.825,2.34,2.214,2.674l0.052-0.029l0.239-0.13
				c-0.176-0.316-0.199-0.713-0.203-1.18c-0.026-1.487,1.229-4.094,1.712-5.106c0.261-0.535,0.589-1.155,0.907-1.788
				c0.475-0.944,0.915-1.913,1.08-2.697c0.011-0.055,0.031-0.116,0.04-0.168c0.021-0.124,0.018-0.232,0.021-0.344
				c0.002-0.058,0.015-0.124,0.011-0.178v0c0,0,0,0,0-0.001c-0.046-0.623-0.526-1.175-1.632-1.184
				c-1.017-0.005-2.031,0.47-3.005,1.266s-1.906,1.913-2.757,3.192l-0.042-0.009c0.68-1.49,1.211-2.87,1.195-3.543
				c-0.015-0.616-0.379-0.858-1.142-0.858c-0.532,0.015-1.266,0.214-1.986,0.401c-1.006,0.25-2.063,0.516-3.228,0.751
				c-0.534,0.068-0.808,0.157-0.901,0.302c-0.032,0.048-0.045,0.103-0.039,0.166c0.072,1.955-0.579,4.082-1.479,5.721
				c-0.9,1.64-2.049,2.793-2.968,2.801c-0.789,0-0.968-0.557-0.968-1.327c-0.008-2.704,2.296-7.246,4.545-7.965
				c0.134-0.037,0.261-0.067,0.373-0.096c0.05-0.012,0.104-0.025,0.144-0.037l0.283-0.727l0.001-0.003
				c-0.477,0.097-1.61,0.112-2.209,0.128H149.2c0.47-1.081,1.01-2.018,1.631-2.788c1.104-1.369,2.469-2.198,4.186-2.271
				c1.661-0.053,2.786,0.553,2.883,1.472c0.039,0.439-0.026,0.83-0.194,1.205c-0.133,0.294-0.323,0.579-0.608,0.864
				c0,0,0,0.001-0.001,0.001l0.184,0.176l0.001,0c0.003-0.001,0.006-0.003,0.009-0.004c0.785-0.357,1.432-0.852,1.87-1.352
				c0.379-0.432,0.604-0.869,0.608-1.228c0.023-1.205-1.481-1.945-3.88-1.921c-2.669,0.015-5.877,0.527-8.395,4.171
				c-0.359,0.521-0.705,1.105-1.032,1.761c-0.589,0.087-1.138,0.271-1.624,0.616c-0.162,0.115-0.317,0.248-0.466,0.401l0.106,0.231
				c0.42-0.142,0.917-0.167,1.472-0.168c0.011,0,0.021-0.001,0.031-0.001c-0.365,0.859-1.094,2.728-1.821,4.646
				c-1.25,1.597-2.5,2.703-3.648,3.376c-0.88,0.516-1.7,0.784-2.405,0.784c-0.89,0.025-1.246-0.445-1.254-1.271
				c-0.011-0.517,0.122-1.238,0.23-1.615c0.164-0.08,0.327-0.161,0.491-0.243c1.572-0.785,3.14-1.693,4.572-3.11
				c0.621-0.651,1.099-1.307,1.332-1.974c0.091-0.26,0.153-0.522,0.16-0.787c0.011-0.886-0.552-1.338-1.711-1.354
				c-1.324-0.017-2.862,0.689-4.091,1.655c-0.303,0.237-0.592,0.486-0.849,0.75C135.368,11.664,134.113,14.038,133.974,16.203z
				 M139.565,9.657c0.523-0.584,1.075-0.959,1.602-0.952c0.377,0,0.531,0.25,0.531,0.567c-0.006,0.579-0.298,1.22-0.789,1.87
				c-0.784,1.037-2.086,2.095-3.604,2.958C137.712,12.584,138.587,10.75,139.565,9.657z M176.011,6.023
				c0.346-0.004,0.694-0.164,0.974-0.414c0.28-0.249,0.492-0.589,0.566-0.957c0.173-0.763-0.282-1.348-0.985-1.33
				c-0.517,0.001-1.035,0.346-1.331,0.84c0,0,0,0,0,0c-0.097,0.161-0.169,0.337-0.21,0.523c0,0.004-0.003,0.007-0.004,0.011
				C174.872,5.439,175.303,6.038,176.011,6.023z M110.138,10.096L110.138,10.096l0.163-0.133c-0.197-0.312-0.284-0.826-0.295-1.208
				c-0.002-0.059-0.007-0.123-0.005-0.174c0.037-1.392,0.724-2.52,1.939-3.349c1.562-1.065,4.001-1.636,7.058-1.636h3.008
				c-0.874,0.493-1.677,1.064-2.402,1.82s-1.373,1.695-1.937,2.923c-0.337,0.736-1.559,3.724-2.585,6.332
				c-0.445,1.13-0.854,2.189-1.138,2.961c-0.192,0.5-0.37,0.939-0.542,1.352c-0.613,1.472-1.119,2.435-1.631,3.017
				c-0.219,0.248-0.439,0.429-0.671,0.556v0.001c0,0,0,0-0.001,0.001l0.159,0.273c2.474,0.147,3.992-1.017,4.998-3.168
				c0.054-0.115,0.112-0.22,0.163-0.34c0.953-2.242,2.215-5.816,2.83-7.404c0.176-0.447,0.34-0.864,0.499-1.268
				c1.546-3.911,2.398-5.814,3.684-6.84c0.002-0.001,0.004-0.002,0.005-0.004c0.032-0.025,0.065-0.047,0.098-0.071
				c0.064-0.048,0.128-0.097,0.194-0.142c1.385-0.008,2.737-0.011,3.562-0.012c0.335,0,0.584,0,0.711,0c0.062,0,0.096,0,0.096,0
				h0.001c0.062-0.001,0.113-0.007,0.173-0.01c2.261-0.084,3.257-0.647,3.987-1.517l-0.001,0c0.001-0.001,0.001-0.001,0.002-0.002
				l-0.171-0.206c-0.599,0.312-1.898,0.374-2.996,0.376h-10.798c-4.935,0-8.324,1.272-9.744,3.289
				c-0.328,0.465-0.551,0.97-0.664,1.508C107.588,8.41,108.388,9.912,110.138,10.096z M181.188,27.64
				c-8.842-0.088-19.551-0.141-30.195-0.141c-10.722,0-21.51,0.054-30.39,0.143c-11.414,0.114-19.671,0.287-20.531,0.482
				c-0.05,0.011-0.075,0.022-0.075,0.034c0,0.355,25.702,0.668,50.996,0.668c22.137,0,44.577-0.239,49.842-0.537
				c0.752-0.042,1.153-0.086,1.153-0.131C201.988,27.948,193.359,27.76,181.188,27.64z M30,7.837c-1.094,0-2.116,0.298-3,0.81v-6.81
				h-3v18c0,3.312,2.688,6,6,6s6-2.688,6-6v-6C36,10.525,33.312,7.837,30,7.837z M33,19.837c0,1.656-1.348,3-3,3s-3-1.346-3-3v-6
				c0-1.654,1.348-3,3-3s3,1.346,3,3V19.837z M9,19.837c0,1.656-1.344,3-3,3s-3-1.346-3-3v-11H0v11c0,3.312,2.688,6,6,6s6-2.688,6-6
				v-11H9V19.837z M15,13.837v11h3v-11c0-1.654,1.344-3,3-3v-3C17.688,7.837,15,10.525,15,13.837z M45,7.837c-3.312,0-6,2.688-6,6
				s2.688,6,6,6s6-2.688,6-6S48.312,7.837,45,7.837z M45,16.839c-1.658,0-3.004-1.344-3.004-3.002s1.346-3.002,3.004-3.002
				s3,1.344,3,3.002S46.658,16.839,45,16.839z"/>
		</g>
	</g>
	<path fill="#00B8C7" d="M45,1.837c-3.312,0-6.312,1.344-8.484,3.516l2.125,2.125C40.27,5.847,42.52,4.837,45,4.837
		s4.73,1.01,6.359,2.641l2.125-2.125C51.312,3.181,48.312,1.837,45,1.837z"/>
	<path fill="#00B8C7" d="M40.506,6.052C41.83,5.285,43.363,4.837,45,4.837s3.17,0.447,4.494,1.215l1.5-2.6
		C49.23,2.431,47.186,1.837,45,1.837s-4.23,0.594-5.994,1.615L40.506,6.052z"/>
	<g>
		<rect x="82.984" fill="#FFFFFF" width="1" height="27"/>
	</g>
</g>
</svg>
