<?xml version="1.0" encoding="utf-8"?>
<!-- Generator: Adobe Illustrator 19.0.0, SVG Export Plug-In . SVG Version: 6.00 Build 0)  -->
<svg version="1.1" id="Layer_1" xmlns:x="&ns_extend;" xmlns:i="&ns_ai;" xmlns:graph="&ns_graphs;"
	 xmlns="http://www.w3.org/2000/svg" xmlns:xlink="http://www.w3.org/1999/xlink" x="0px" y="0px" width="202px" height="28.8px"
	 viewBox="83 4.2 202 28.8" style="enable-background:new 83 4.2 202 28.8;" xml:space="preserve">
<style type="text/css">
	.st0{fill:#FFFFFF;}
	.st1{fill:#00B8C7;}
</style>
<metadata>
	<sfw  xmlns="&ns_sfw;">
		<slices></slices>
		<sliceSourceBounds  height="27" width="189" bottomLeftOrigin="true" y="0" x="11"></sliceSourceBounds>
	</sfw>
</metadata>
<g>
	<g>
		<g>
			<path class="st0" d="M210.9,18c0,0.1-0.1,0.1-0.1,0.2c-1,1.3-2.1,2.5-3.3,3.2c-0.7,0.4-1.4,0.7-2,0.7c-0.8,0-1.1-0.4-1.1-1.3
				c0-0.5,0.1-1.2,0.2-1.6c0.2-0.1,0.3-0.2,0.5-0.3c1.6-0.8,3.1-1.7,4.5-3.1c0.6-0.6,1-1.2,1.3-1.9c0.1-0.3,0.2-0.6,0.2-0.9
				c0-0.9-0.6-1.3-1.7-1.4c-1.1,0-2.4,0.5-3.5,1.2c-0.5,0.3-1,0.7-1.4,1.2c-1.6,1.7-2.8,4-3,6.2c0,0.1,0,0.3,0,0.4c0,0,0,0,0,0
				s0,0,0,0c0,1.6,0.8,2.9,2.9,2.8h0c1.6,0,3.2-0.9,4.4-1.9c0.5-0.4,0.9-0.8,1.2-1.1c0,0.2-0.1,0.3-0.1,0.5
				c-0.1,0.3-0.1,0.6-0.1,0.9c0,0.3,0,0.5,0.1,0.7c0.2,1,0.9,1.8,2.1,2.1l0.3-0.1c-0.1-0.4-0.2-0.8-0.1-1.2c0.1-0.9,0.4-1.9,0.8-3.1
				c0.2-0.6,0.4-1.2,0.7-1.9c1.4-3.4,3.3-7.2,4.5-9.8c0.2-0.4,0.3-0.7,0.4-1.1L216.3,8L216,8c-0.1,0-0.1,0-0.2,0.1c0,0-0.1,0-0.1,0
				c-0.2,0.1-0.4,0.3-0.5,0.5c-1.2,2.4-2.4,5-3.9,8.3C211.3,17.3,211.1,17.6,210.9,18z M208.6,12.9c0.4,0,0.5,0.2,0.5,0.6
				c0,0.7-0.4,1.5-1.2,2.3c-0.8,0.9-1.9,1.8-3.2,2.5C205.4,15.9,207.1,12.9,208.6,12.9z M250.3,20.5c0,0.1-0.1,0.2-0.1,0.3
				c-0.1,0.4-0.2,0.8-0.2,1l0,0l0,0c0,0.5,0.2,1,0.5,1.3c0.3,0.3,0.9,0.4,1.5,0.4c1.4,0,2.8-0.8,4-1.9c0.2,1.1,1.1,2,2.8,1.9h0
				c0.8,0,1.5-0.2,2.2-0.6c1-0.5,1.9-1.1,2.6-1.9v0.4c0,1.2,0.6,2.1,2,2.1c0.9,0,2-0.4,2.9-1.2c0.6-0.5,1.1-1.1,1.7-1.8l0,0
				c-0.1,0.4-0.3,1.2-0.3,1.7c0,1.4,0.8,2.2,2.1,2.5l0.3-0.1c0,0,0,0,0,0h0c-0.1-0.3-0.2-0.6-0.2-1c0,0,0-0.1,0-0.1
				c0-0.2,0-0.3,0-0.5c0-0.1,0-0.1,0-0.2c0.1-1,0.4-2.1,0.5-2.6c0.6-1.9,1.4-3.9,2.2-5.6c0.4-0.8,0.7-1.6,1-2.1c0,0,0,0,0,0
				c-0.4-0.3-1.3-0.5-2.2-0.6c-3.1-0.1-6.3,1.1-8.6,5.1c0,0-0.1,0.1-0.1,0.2c-0.4,0.6-0.8,1.4-1.1,2.1c-0.3,0.4-0.7,0.8-0.8,0.9
				c-0.8,0.8-2,1.8-3.2,1.8c-0.2,0-0.3,0-0.4-0.1c-0.4-0.2-0.6-0.6-0.6-1.2c0-2.6,1.9-6.2,3.7-7.5c0.4-0.3,0.8-0.5,1.2-0.5
				c0.5,0,0.8,0.2,0.8,0.7c0,0.5-0.4,1.2-0.9,1.7l0.2,0.2c1-0.4,1.9-0.9,2.3-1.6c0.1-0.2,0.2-0.5,0.2-0.7c0-1.1-1.3-1.3-2.4-1.3
				c-1.3,0-2.9,0.6-4.4,1.8c-0.2,0.2-0.4,0.4-0.6,0.6c-1.9,2-2.9,4.4-3.1,6.1c-0.9,1-1.8,1.6-2.5,1.7c-0.1,0-0.1,0-0.2,0
				c-0.3,0-0.5-0.2-0.5-0.5c0-0.3,0.2-1,0.5-1.9c0.2-0.5,0.4-1,0.6-1.5c0.6-1.3,1.3-2.8,2.1-4.4c0.3-0.5,0.5-1.1,0.8-1.6
				c0,0-0.3,0-0.6,0.1c-0.5,0.1-1.1,0.2-1.6,0.3c-0.2,0-0.4,0.1-0.4,0.1c-0.1,0-0.3,0.1-0.4,0.2c-0.1,0.1-0.2,0.2-0.2,0.2
				c0,0.1-0.1,0.1-0.1,0.2c0,0,0,0,0,0c-1,2-2.1,4.3-2.9,6C250.6,19.6,250.4,20,250.3,20.5z M266.7,19.8c0.7-2.4,2.7-5.7,4.7-6.6
				c0.7-0.3,1.3-0.4,1.8-0.3c-0.2,0.4-1.1,2.1-1.8,3.6c-0.1,0.3-0.3,0.6-0.4,0.9c-1.1,2.1-2.5,4-3.8,4.3c-0.5,0.1-0.8-0.1-0.8-0.6
				C266.4,20.8,266.5,20.3,266.7,19.8z M215,20.4c0,0.1,0,0.2,0,0.3c0,0,0,0,0,0s0,0,0,0c0,1.6,0.8,2.9,3,2.8h0
				c1.1,0,2.1-0.3,3.1-0.8c1.1-0.6,2.2-1.4,3.2-2.4c0,0.1-0.1,0.2-0.1,0.3c-0.4,1.1-0.8,2-1,2.5c-0.7,1.6-1.2,3-2.2,3.7L221,27h0
				c3.1,0.2,4.2-1.9,5.5-5.3c1.3-3.4,2.3-6.4,3.2-8.4c1.3,0,3.1,0,4.2-0.2c0.1,0,0.1,0,0.2,0c-2.6,1.1-4.8,4.9-4.9,7.7c0,0,0,0,0,0
				c0,0.2,0,0.4,0,0.5c0.1,1.2,0.9,2.1,2.5,2.1c0.9,0,1.7-0.3,2.5-0.7c1.6-0.9,2.9-2.5,3.7-3.9c0.3-0.5,0.5-1,0.7-1.4
				c0.6-1.4,1-2.6,1-3.7c0.8-0.1,1.5-0.3,1.9-0.3c0.6-0.1,0.6,0.5,0.4,1c0,0.1,0,0.1-0.1,0.2c-0.5,1.4-1.2,3-1.8,4.5
				c-0.9,2.3-1.8,4.2-1.8,4.2h2.5c1.1-2.2,1.8-3.6,2.6-5c0.3-0.4,0.6-0.9,1-1.4c1.1-1.5,2.6-3.2,3.3-3.2c0.3,0,0.4,0.2,0.3,0.5
				c-0.1,0.6-0.9,2-1.6,3.6c-0.8,1.5-1.5,3.2-1.5,4.3l0,0l0,0c0,1.5,0.8,2.3,2.2,2.7l0.1,0l0.2-0.1c-0.2-0.3-0.2-0.7-0.2-1.2
				c0-1.5,1.2-4.1,1.7-5.1c0.3-0.5,0.6-1.2,0.9-1.8c0.5-0.9,0.9-1.9,1.1-2.7c0-0.1,0-0.1,0-0.2c0-0.1,0-0.2,0-0.3c0-0.1,0-0.1,0-0.2
				l0,0c0,0,0,0,0,0c0-0.6-0.5-1.2-1.6-1.2c-1,0-2,0.5-3,1.3s-1.9,1.9-2.8,3.2l0,0c0.7-1.5,1.2-2.9,1.2-3.5c0-0.6-0.4-0.9-1.1-0.9
				c-0.5,0-1.3,0.2-2,0.4c-1,0.2-2.1,0.5-3.2,0.8c-0.5,0.1-0.8,0.2-0.9,0.3c0,0,0,0.1,0,0.2c0.1,2-0.6,4.1-1.5,5.7
				c-0.9,1.6-2,2.8-3,2.8c-0.8,0-1-0.6-1-1.3c0-2.7,2.3-7.2,4.5-8c0.1,0,0.3-0.1,0.4-0.1c0.1,0,0.1,0,0.1,0l0.3-0.7l0,0
				c-0.5,0.1-1.6,0.1-2.2,0.1h-4.9c0.5-1.1,1-2,1.6-2.8c1.1-1.4,2.5-2.2,4.2-2.3c1.7-0.1,2.8,0.6,2.9,1.5c0,0.4,0,0.8-0.2,1.2
				c-0.1,0.3-0.3,0.6-0.6,0.9c0,0,0,0,0,0l0.2,0.2h0c0,0,0,0,0,0c0.8-0.4,1.4-0.9,1.9-1.4c0.4-0.4,0.6-0.9,0.6-1.2
				c0-1.2-1.5-1.9-3.9-1.9c-2.7,0-5.9,0.5-8.4,4.2c-0.4,0.5-0.7,1.1-1,1.8c-0.6,0.1-1.1,0.3-1.6,0.6c-0.2,0.1-0.3,0.2-0.5,0.4
				l0.1,0.2c0.4-0.1,0.9-0.2,1.5-0.2c0,0,0,0,0,0c-0.4,0.9-1.1,2.7-1.8,4.6c-1.2,1.6-2.5,2.7-3.6,3.4c-0.9,0.5-1.7,0.8-2.4,0.8
				c-0.9,0-1.2-0.4-1.3-1.3c0-0.5,0.1-1.2,0.2-1.6c0.2-0.1,0.3-0.2,0.5-0.2c1.6-0.8,3.1-1.7,4.6-3.1c0.6-0.7,1.1-1.3,1.3-2
				c0.1-0.3,0.2-0.5,0.2-0.8c0-0.9-0.6-1.3-1.7-1.4c-1.3,0-2.9,0.7-4.1,1.7c-0.3,0.2-0.6,0.5-0.8,0.8
				C216.4,15.8,215.1,18.2,215,20.4z M220.6,13.8c0.5-0.6,1.1-1,1.6-1c0.4,0,0.5,0.2,0.5,0.6c0,0.6-0.3,1.2-0.8,1.9
				c-0.8,1-2.1,2.1-3.6,3C218.7,16.8,219.6,14.9,220.6,13.8z M257,10.2c0.3,0,0.7-0.2,1-0.4c0.3-0.2,0.5-0.6,0.6-1
				c0.2-0.8-0.3-1.3-1-1.3c-0.5,0-1,0.3-1.3,0.8l0,0c-0.1,0.2-0.2,0.3-0.2,0.5c0,0,0,0,0,0C255.9,9.6,256.3,10.2,257,10.2z
				 M191.1,14.3L191.1,14.3l0.2-0.1c-0.2-0.3-0.3-0.8-0.3-1.2c0-0.1,0-0.1,0-0.2c0-1.4,0.7-2.5,1.9-3.3c1.6-1.1,4-1.6,7.1-1.6h3
				c-0.9,0.5-1.7,1.1-2.4,1.8c-0.7,0.8-1.4,1.7-1.9,2.9c-0.3,0.7-1.6,3.7-2.6,6.3c-0.4,1.1-0.9,2.2-1.1,3c-0.2,0.5-0.4,0.9-0.5,1.4
				c-0.6,1.5-1.1,2.4-1.6,3c-0.2,0.2-0.4,0.4-0.7,0.6v0c0,0,0,0,0,0l0.2,0.3c2.5,0.1,4-1,5-3.2c0.1-0.1,0.1-0.2,0.2-0.3
				c1-2.2,2.2-5.8,2.8-7.4c0.2-0.4,0.3-0.9,0.5-1.3c1.5-3.9,2.4-5.8,3.7-6.8c0,0,0,0,0,0c0,0,0.1,0,0.1-0.1c0.1,0,0.1-0.1,0.2-0.1
				c1.4,0,2.7,0,3.6,0c0.3,0,0.6,0,0.7,0c0.1,0,0.1,0,0.1,0h0c0.1,0,0.1,0,0.2,0c2.3-0.1,3.3-0.6,4-1.5h0c0,0,0,0,0,0L213.1,6
				c-0.6,0.3-1.9,0.4-3,0.4h-10.8c-4.9,0-8.3,1.3-9.7,3.3c-0.3,0.5-0.6,1-0.7,1.5C188.6,12.6,189.4,14.1,191.1,14.3z M262.2,31.8
				c-8.8-0.1-19.6-0.1-30.2-0.1c-10.7,0-21.5,0.1-30.4,0.1c-11.4,0.1-19.7,0.3-20.5,0.5c-0.1,0-0.1,0-0.1,0c0,0.4,25.7,0.7,51,0.7
				c22.1,0,44.6-0.2,49.8-0.5c0.8,0,1.2-0.1,1.2-0.1C283,32.1,274.4,31.9,262.2,31.8z M124,12c-1.1,0-2.1,0.3-3,0.8V6h-3v18
				c0,3.3,2.7,6,6,6s6-2.7,6-6v-6C130,14.7,127.3,12,124,12z M127,24c0,1.7-1.3,3-3,3s-3-1.3-3-3v-6c0-1.7,1.3-3,3-3s3,1.3,3,3V24z
				 M103,24c0,1.7-1.3,3-3,3s-3-1.3-3-3V13h-3v11c0,3.3,2.7,6,6,6s6-2.7,6-6V13h-3V24z M109,18v11h3V18c0-1.7,1.3-3,3-3v-3
				C111.7,12,109,14.7,109,18z M139,12c-3.3,0-6,2.7-6,6s2.7,6,6,6s6-2.7,6-6S142.3,12,139,12z M139,21c-1.7,0-3-1.3-3-3
				c0-1.7,1.3-3,3-3s3,1.3,3,3C142,19.7,140.7,21,139,21z"/>
		</g>
	</g>
	<path class="st1" d="M139,6c-3.3,0-6.3,1.3-8.5,3.5l2.1,2.1C134.3,10,136.5,9,139,9s4.7,1,6.4,2.6l2.1-2.1C145.3,7.4,142.3,6,139,6
		z"/>
</g>
<g>
	<path class="st0" d="M168,33c-0.3,0-0.5-0.3-0.6-0.7c-0.1-2.6-0.2-7.5-0.2-12.8c0-5.3,0.1-10.2,0.2-12.8c0-0.4,0.3-0.7,0.6-0.7l0,0
		c0.3,0,0.5,0.3,0.6,0.7c0.1,2.6,0.2,7.5,0.2,12.8c0,5.3-0.1,10.2-0.2,12.8C168.5,32.7,168.3,33,168,33z"/>
</g>
</svg>
