<?xml version="1.0" encoding="utf-8"?>
<!-- Generator: Adobe Illustrator 19.0.0, SVG Export Plug-In . SVG Version: 6.00 Build 0)  -->
<svg version="1.0" id="Layer_1" xmlns:x="&ns_extend;" xmlns:i="&ns_ai;" xmlns:graph="&ns_graphs;"
	 xmlns="http://www.w3.org/2000/svg" xmlns:xlink="http://www.w3.org/1999/xlink" x="0px" y="0px" width="60px" height="30px"
	 viewBox="6 4 60 30" style="enable-background:new 6 4 60 30;" xml:space="preserve">
<style type="text/css">
	.st0{fill:#FFFFFF;}
	.st1{fill:#00B8C7;}
</style>
<metadata>
	<sfw  xmlns="&ns_sfw;">
		<slices></slices>
		<sliceSourceBounds  height="24" width="53.5" bottomLeftOrigin="true" y="0" x="0"></sliceSourceBounds>
	</sfw>
</metadata>
<g>
	<g>
		<g>
			<path class="st0" d="M39,13c-1.1,0-2.1,0.3-3,0.8V7h-3v18c0,3.3,2.7,6,6,6s6-2.7,6-6v-6C45,15.7,42.3,13,39,13z M42,25
				c0,1.7-1.3,3-3,3s-3-1.3-3-3v-6c0-1.7,1.3-3,3-3s3,1.3,3,3V25z M18,25c0,1.7-1.3,3-3,3s-3-1.3-3-3V14H9v11c0,3.3,2.7,6,6,6
				s6-2.7,6-6V14h-3V25z M24,19v11h3V19c0-1.7,1.3-3,3-3v-3C26.7,13,24,15.7,24,19z M54,13c-3.3,0-6,2.7-6,6s2.7,6,6,6s6-2.7,6-6
				S57.3,13,54,13z M54,22c-1.7,0-3-1.3-3-3s1.3-3,3-3s3,1.3,3,3S55.7,22,54,22z"/>
		</g>
	</g>
	<path class="st1" d="M54,7c-3.3,0-6.3,1.3-8.5,3.5l2.1,2.1C49.3,11,51.5,10,54,10s4.7,1,6.4,2.6l2.1-2.1C60.3,8.3,57.3,7,54,7z"/>
</g>
</svg>
