<?xml version="1.0" encoding="UTF-8"?>
<svg width="16px" height="16px" viewBox="0 0 16 16" version="1.1" xmlns="http://www.w3.org/2000/svg" xmlns:xlink="http://www.w3.org/1999/xlink">
    <!-- Generator: Sketch 48.2 (47327) - http://www.bohemiancoding.com/sketch -->
    <title>icons/color/valor-med</title>
    <desc>Created with Sketch.</desc>
    <defs></defs>
    <g id="Symbols" stroke="none" stroke-width="1" fill="none" fill-rule="evenodd">
        <g id="icons/color/valor-med">
            <g id="Group" transform="translate(3.000000, 3.000000)">
                <path d="M9,4.00035 L1,4.00035 C0.448,4.00035 0,4.44835 0,5.00035 C0,5.55235 0.448,6.00035 1,6.00035 L9,6.00035 C9.552,6.00035 10,5.55235 10,5.00035 C10,4.44835 9.552,4.00035 9,4.00035" id="Page-1" fill="#6EBAFF"></path>
                <path d="M3,3.00035 L7,3.00035 C7.464,3.00035 7.867,2.68135 7.973,2.23035 C8.08,1.77835 7.862,1.31335 7.447,1.10535 L5.447,0.10535 C5.166,-0.03465 4.834,-0.03465 4.553,0.10535 L2.553,1.10535 C2.138,1.31335 1.92,1.77835 2.027,2.23035 C2.133,2.68135 2.536,3.00035 3,3.00035" id="Path" fill="#FFFFFF" opacity="0.2"></path>
                <path d="M3.00002146,7 C2.53602146,7 2.13302146,7.319 2.02702146,7.77 C1.92002146,8.222 2.13802146,8.687 2.55302146,8.894 L4.55302146,9.894 C4.83402146,10.035 5.16602146,10.035 5.44702146,9.894 L7.44702146,8.894 C7.86202146,8.687 8.08002146,8.222 7.97302146,7.77 C7.86702146,7.319 7.46402146,7 7.00002146,7 L3.00002146,7 Z" id="Path" fill="#FFFFFF" opacity="0.2"></path>
            </g>
        </g>
    </g>
</svg>